<svg xmlns:xlink="http://www.w3.org/1999/xlink" version="1.1" style="font-family:'lucida grande', 'lucida sans unicode', arial, helvetica, sans-serif;font-size:12px;" xmlns="http://www.w3.org/2000/svg" width="600" height="400"><desc>Created with Highcharts 4.0.3</desc><defs><clipPath id="highcharts-8"><rect x="0" y="0" width="580" height="337"></rect></clipPath></defs><rect x="0" y="0" width="600" height="400" strokeWidth="0" fill="#FFFFFF" class=" highcharts-background"></rect><g class="highcharts-grid" ><path fill="none" d="M 300 178.5 L 424.0364884570262 250.11249999999995" stroke="#C0C0C0" stroke-width="1"  opacity="1"></path><path fill="none" d="M 300 178.5 L 300.00000000000006 321.725" stroke="#C0C0C0" stroke-width="1"  opacity="1"></path><path fill="none" d="M 300 178.5 L 175.9635115429738 250.11250000000004" stroke="#C0C0C0" stroke-width="1"  opacity="1"></path><path fill="none" d="M 300 178.5 L 175.96351154297378 106.88749999999999" stroke="#C0C0C0" stroke-width="1"  opacity="1"></path><path fill="none" d="M 300 178.5 L 300 35.275000000000006" stroke="#C0C0C0" stroke-width="1"  opacity="1"></path><path fill="none" d="M 300 178.5 L 424.03648845702617 106.88749999999995" stroke="#C0C0C0" stroke-width="1"  opacity="1"></path><path fill="none" d="M 300 178.5 L 424.0364884570262 106.8875" stroke="#C0C0C0" stroke-width="1"  opacity="1"></path><path fill="none" d="M 300 178.5 L 300 35.275000000000006" stroke="#C0C0C0" stroke-width="1"  opacity="1"></path></g><g class="highcharts-grid" ><path fill="none" d="M 300 35.275000000000006 A 143.225 143.225 0 1 1 299.85677502387074 35.27507161249403 M 300 178.5 A 0 0 0 1 0 300 178.5 " stroke="#C0C0C0" stroke-width="1"  opacity="1"></path><path fill="none" d="M 300 83.01666666666667 A 95.48333333333333 95.48333333333333 0 1 1 299.9045166825805 83.01671440832935 M 300 178.5 A 0 0 0 1 0 300 178.5 " stroke="#C0C0C0" stroke-width="1"  opacity="1"></path><path fill="none" d="M 300 130.75833333333333 A 47.74166666666667 47.74166666666667 0 1 1 299.95225834129025 130.75835720416467 M 300 178.5 A 0 0 0 1 0 300 178.5 " stroke="#C0C0C0" stroke-width="1"  opacity="1"></path><path fill="none" stroke="#C0C0C0" stroke-width="1" ></path></g><g class="highcharts-axis" ><path fill="none" d="M 300 35.275000000000006 A 143.225 143.225 0 1 1 299.85677502387074 35.27507161249403 M 300 178.5 A 0 0 0 1 0 300 178.5 " stroke="#C0D0E0" stroke-width="1"  visibility="visible"></path></g><g class="highcharts-axis" ></g><g class="highcharts-series-group" ><g class="highcharts-series" visibility="visible"  transform="translate(10,10) scale(1 1)" clip-path="url(#highcharts-8)"><path fill="none" d="M 322.6846794871795 111.88847449910084 L 382.0390597287428 168.5 L 315.2428435114504 212.2218874893424 L 249.75931384061374 238.1989129594907 L 208.3276488095238 168.5 L 247.94775474956816 95.66337465390517 L 322.6846794871795 111.88847449910084" stroke="#ff0000" stroke-width="2"  stroke-linejoin="round" stroke-linecap="round"></path></g><g class="highcharts-markers" visibility="visible"  transform="translate(10,10) scale(1 1)" clip-path="none"><path fill="#ff0000" d="M 247 91.66337465390517 C 252.328 91.66337465390517 252.328 99.66337465390517 247 99.66337465390517 C 241.672 99.66337465390517 241.672 91.66337465390517 247 91.66337465390517 Z"></path><path fill="#ff0000" d="M 208 164.5 C 213.328 164.5 213.328 172.5 208 172.5 C 202.672 172.5 202.672 164.5 208 164.5 Z"></path><path fill="#ff0000" d="M 249 234.1989129594907 C 254.328 234.1989129594907 254.328 242.1989129594907 249 242.1989129594907 C 243.672 242.1989129594907 243.672 234.1989129594907 249 234.1989129594907 Z"></path><path fill="#ff0000" d="M 315 208.2218874893424 C 320.328 208.2218874893424 320.328 216.2218874893424 315 216.2218874893424 C 309.672 216.2218874893424 309.672 208.2218874893424 315 208.2218874893424 Z"></path><path fill="#ff0000" d="M 382 164.5 C 387.328 164.5 387.328 172.5 382 172.5 C 376.672 172.5 376.672 164.5 382 164.5 Z"></path><path fill="#ff0000" d="M 322 107.88847449910084 C 327.328 107.88847449910084 327.328 115.88847449910084 322 115.88847449910084 C 316.672 115.88847449910084 316.672 107.88847449910084 322 107.88847449910084 Z"></path></g><g class="highcharts-series" visibility="visible"  transform="translate(10,10) scale(1 1)" clip-path="url(#highcharts-8)"><path fill="none" d="M 313.87083333333334 127.1545038476579 L 337.7416666666667 168.5 L 313.87083333333334 209.84549615234206 L 266.12916666666666 209.8454961523421 L 242.25833333333333 168.5 L 266.12916666666666 127.15450384765794 L 313.87083333333334 127.1545038476579" stroke="#999999" stroke-width="2"  stroke-linejoin="round" stroke-linecap="round"></path></g><g class="highcharts-markers" visibility="visible"  transform="translate(10,10) scale(1 1)" clip-path="none"><path fill="#999999" d="M 266 123.15450384765794 L 270 127.15450384765794 266 131.15450384765794 262 127.15450384765794 Z"></path><path fill="#999999" d="M 242 164.5 L 246 168.5 242 172.5 238 168.5 Z"></path><path fill="#999999" d="M 266 205.8454961523421 L 270 209.8454961523421 266 213.8454961523421 262 209.8454961523421 Z"></path><path fill="#999999" d="M 313 205.84549615234206 L 317 209.84549615234206 313 213.84549615234206 309 209.84549615234206 Z"></path><path fill="#999999" d="M 337 164.5 L 341 168.5 337 172.5 333 168.5 Z"></path><path fill="#999999" d="M 313 123.1545038476579 L 317 127.1545038476579 313 131.1545038476579 309 127.1545038476579 Z"></path></g><g class="highcharts-series" visibility="visible"  transform="translate(10,10) scale(1 1)" clip-path="url(#highcharts-8)"><path fill="none" d="M 351.67759446693657 61.6712726946368 L 391.75176186750133 168.5 L 343.64774173027996 261.42061438817785 L 237.42586308125883 259.56107630734243 L 175.53804258241757 168.5 L 230.08242180003833 64.71971029118512 L 351.67759446693657 61.6712726946368" stroke="#7cb5ec" stroke-width="2"  stroke-linejoin="round" stroke-linecap="round"></path></g><g class="highcharts-markers" visibility="visible"  transform="translate(10,10) scale(1 1)" clip-path="none"><path fill="#7cb5ec" d="M 226 60.71971029118512 L 234 60.71971029118512 234 68.71971029118512 226 68.71971029118512 Z"></path><path fill="#7cb5ec" d="M 171 164.5 L 179 164.5 179 172.5 171 172.5 Z"></path><path fill="#7cb5ec" d="M 233 255.56107630734243 L 241 255.56107630734243 241 263.56107630734243 233 263.56107630734243 Z"></path><path fill="#7cb5ec" d="M 339 257.42061438817785 L 347 257.42061438817785 347 265.42061438817785 339 265.42061438817785 Z"></path><path fill="#7cb5ec" d="M 387 164.5 L 395 164.5 395 172.5 387 172.5 Z"></path><path fill="#7cb5ec" d="M 347 57.6712726946368 L 355 57.6712726946368 355 65.6712726946368 347 65.6712726946368 Z"></path></g></g><g class="highcharts-legend"  transform="translate(164,367)"><g ><g><g class="highcharts-legend-item"  transform="translate(8,3)"><path fill="none" d="M 0 11 L 16 11" stroke="#ff0000" stroke-width="2"></path><path fill="#ff0000" d="M 8 7 C 13.328 7 13.328 15 8 15 C 2.6719999999999997 15 2.6719999999999997 7 8 7 Z"></path><text x="21" style="color:#333333;font-size:12px;font-weight:bold;cursor:pointer;fill:#333333;" text-anchor="start"  y="15">考生位置</text></g><g class="highcharts-legend-item"  transform="translate(95,3)"><path fill="none" d="M 0 11 L 16 11" stroke="#999999" stroke-width="2"></path><path fill="#999999" d="M 8 7 L 12 11 8 15 4 11 Z"></path><text x="21" y="15" style="color:#333333;font-size:12px;font-weight:bold;cursor:pointer;fill:#333333;" text-anchor="start" >平均分位置</text></g><g class="highcharts-legend-item"  transform="translate(194,3)"><path fill="none" d="M 0 11 L 16 11" stroke="#7cb5ec" stroke-width="2"></path><path fill="#7cb5ec" d="M 4 7 L 12 7 12 15 4 15 Z"></path><text x="21" y="15" style="color:#333333;font-size:12px;font-weight:bold;cursor:pointer;fill:#333333;" text-anchor="start" >最高分位置</text></g></g></g></g><g class="highcharts-axis-labels highcharts-xaxis-labels" ><text x="379.11249999999995" text-anchor="start" style="width:63px;color:#606060;cursor:default;font-size:11px;fill:#606060;" y="46.4731304862072" opacity="1">语文</text><text x="458.225" text-anchor="start" style="width:63px;color:#606060;cursor:default;font-size:11px;fill:#606060;" y="183.5" opacity="1">数学</text><text x="379.11250000000007" text-anchor="start" style="width:63px;color:#606060;cursor:default;font-size:11px;fill:#606060;" y="320.5268695137928" opacity="1">英语</text><text x="220.88750000000005" text-anchor="end" style="width:63px;color:#606060;cursor:default;font-size:11px;fill:#606060;" y="320.5268695137928" opacity="1">物理</text><text x="141.775" text-anchor="end" style="width:63px;color:#606060;cursor:default;font-size:11px;fill:#606060;" y="183.50000000000003" opacity="1">化学</text><text x="220.88749999999993" text-anchor="end" style="width:63px;color:#606060;cursor:default;font-size:11px;fill:#606060;" y="46.473130486207225" opacity="1">生物</text><text x="0" text-anchor="start" style="width:63px;color:#606060;cursor:default;font-size:11px;fill:#606060;" y="-9999">6</text></g><g class="highcharts-axis-labels highcharts-yaxis-labels" ><text x="297" text-anchor="end" style="width:178px;color:#606060;cursor:default;font-size:11px;fill:#606060;" y="176.5" opacity="1">-2</text><text x="297" text-anchor="end" style="width:178px;color:#606060;cursor:default;font-size:11px;fill:#606060;" y="128.75833333333333" opacity="1">0</text><text x="297" text-anchor="end" style="width:178px;color:#606060;cursor:default;font-size:11px;fill:#606060;" y="81.01666666666667" opacity="1">2</text><text x="0" text-anchor="end" style="width:178px;color:#606060;cursor:default;font-size:11px;fill:#606060;" y="-9999">4</text></g><g class="highcharts-tooltip"  style="cursor:default;padding:0;white-space:nowrap;" transform="translate(0,-9999)"><path fill="none" d="M 3 0 L 13 0 C 16 0 16 0 16 3 L 16 13 C 16 16 16 16 13 16 L 3 16 C 0 16 0 16 0 13 L 0 3 C 0 0 0 0 3 0"  stroke="black" stroke-opacity="0.049999999999999996" stroke-width="5" transform="translate(1, 1)"></path><path fill="none" d="M 3 0 L 13 0 C 16 0 16 0 16 3 L 16 13 C 16 16 16 16 13 16 L 3 16 C 0 16 0 16 0 13 L 0 3 C 0 0 0 0 3 0"  stroke="black" stroke-opacity="0.09999999999999999" stroke-width="3" transform="translate(1, 1)"></path><path fill="none" d="M 3 0 L 13 0 C 16 0 16 0 16 3 L 16 13 C 16 16 16 16 13 16 L 3 16 C 0 16 0 16 0 13 L 0 3 C 0 0 0 0 3 0"  stroke="black" stroke-opacity="0.15" stroke-width="1" transform="translate(1, 1)"></path><path fill="rgb(249, 249, 249)" fill-opacity=" .85" d="M 3 0 L 13 0 C 16 0 16 0 16 3 L 16 13 C 16 16 16 16 13 16 L 3 16 C 0 16 0 16 0 13 L 0 3 C 0 0 0 0 3 0"></path><text x="8"  style="font-size:12px;color:#333333;fill:#333333;" y="21"></text></g><text x="590" text-anchor="end"  style="cursor:pointer;color:#909090;font-size:9px;fill:#909090;" y="395">Septnet</text></svg>