<svg xmlns:xlink="http://www.w3.org/1999/xlink" version="1.1" style="font-family:'lucida grande', 'lucida sans unicode', arial, helvetica, sans-serif;font-size:12px;" xmlns="http://www.w3.org/2000/svg" width="600" height="400"><desc>Created with Highcharts 4.0.3</desc><defs><clipPath id="highcharts-8"><rect x="0" y="0" width="580" height="337"></rect></clipPath></defs><rect x="0" y="0" width="600" height="400" strokeWidth="0" fill="#FFFFFF" class=" highcharts-background"></rect><g class="highcharts-grid" ><path fill="none" d="M 300 178.5 L 424.0364884570262 250.11249999999995" stroke="#C0C0C0" stroke-width="1"  opacity="1"></path><path fill="none" d="M 300 178.5 L 300.00000000000006 321.725" stroke="#C0C0C0" stroke-width="1"  opacity="1"></path><path fill="none" d="M 300 178.5 L 175.9635115429738 250.11250000000004" stroke="#C0C0C0" stroke-width="1"  opacity="1"></path><path fill="none" d="M 300 178.5 L 175.96351154297378 106.88749999999999" stroke="#C0C0C0" stroke-width="1"  opacity="1"></path><path fill="none" d="M 300 178.5 L 300 35.275000000000006" stroke="#C0C0C0" stroke-width="1"  opacity="1"></path><path fill="none" d="M 300 178.5 L 424.03648845702617 106.88749999999995" stroke="#C0C0C0" stroke-width="1"  opacity="1"></path><path fill="none" d="M 300 178.5 L 424.0364884570262 106.8875" stroke="#C0C0C0" stroke-width="1"  opacity="1"></path><path fill="none" d="M 300 178.5 L 300 35.275000000000006" stroke="#C0C0C0" stroke-width="1"  opacity="1"></path></g><g class="highcharts-grid" ><path fill="none" d="M 300 35.275000000000006 A 143.225 143.225 0 1 1 299.85677502387074 35.27507161249403 M 300 178.5 A 0 0 0 1 0 300 178.5 " stroke="#C0C0C0" stroke-width="1"  opacity="1"></path><path fill="none" d="M 300 83.01666666666667 A 95.48333333333333 95.48333333333333 0 1 1 299.9045166825805 83.01671440832935 M 300 178.5 A 0 0 0 1 0 300 178.5 " stroke="#C0C0C0" stroke-width="1"  opacity="1"></path><path fill="none" d="M 300 130.75833333333333 A 47.74166666666667 47.74166666666667 0 1 1 299.95225834129025 130.75835720416467 M 300 178.5 A 0 0 0 1 0 300 178.5 " stroke="#C0C0C0" stroke-width="1"  opacity="1"></path><path fill="none" stroke="#C0C0C0" stroke-width="1" ></path></g><g class="highcharts-axis" ><path fill="none" d="M 300 35.275000000000006 A 143.225 143.225 0 1 1 299.85677502387074 35.27507161249403 M 300 178.5 A 0 0 0 1 0 300 178.5 " stroke="#C0D0E0" stroke-width="1"  visibility="visible"></path></g><g class="highcharts-axis" ></g><g class="highcharts-series-group" ><g class="highcharts-series" visibility="visible"  transform="translate(10,10) scale(1 1)" clip-path="url(#highcharts-8)"><path fill="none" d="M 315.54966117216117 124.24668873364703 L 356.65772772523644 168.5 L 306.7598547894022 197.52892002272117 L 269.9979959536308 203.14448726150974 L 219.6420750473485 168.5 L 256.9160978464419 111.19700055740006 L 315.54966117216117 124.24668873364703" stroke="#ff0000" stroke-width="2"  stroke-linejoin="round" stroke-linecap="round"></path></g><g class="highcharts-markers" visibility="visible"  transform="translate(10,10) scale(1 1)" clip-path="none"><path fill="#ff0000" d="M 256 107.19700055740006 C 261.328 107.19700055740006 261.328 115.19700055740006 256 115.19700055740006 C 250.672 115.19700055740006 250.672 107.19700055740006 256 107.19700055740006 Z"></path><path fill="#ff0000" d="M 219 164.5 C 224.328 164.5 224.328 172.5 219 172.5 C 213.672 172.5 213.672 164.5 219 164.5 Z"></path><path fill="#ff0000" d="M 269 199.14448726150974 C 274.328 199.14448726150974 274.328 207.14448726150974 269 207.14448726150974 C 263.672 207.14448726150974 263.672 199.14448726150974 269 199.14448726150974 Z"></path><path fill="#ff0000" d="M 306 193.52892002272117 C 311.328 193.52892002272117 311.328 201.52892002272117 306 201.52892002272117 C 300.672 201.52892002272117 300.672 193.52892002272117 306 193.52892002272117 Z"></path><path fill="#ff0000" d="M 356 164.5 C 361.328 164.5 361.328 172.5 356 172.5 C 350.672 172.5 350.672 164.5 356 164.5 Z"></path><path fill="#ff0000" d="M 315 120.24668873364703 C 320.328 120.24668873364703 320.328 128.24668873364703 315 128.24668873364703 C 309.672 128.24668873364703 309.672 120.24668873364703 315 120.24668873364703 Z"></path></g><g class="highcharts-series" visibility="visible"  transform="translate(10,10) scale(1 1)" clip-path="url(#highcharts-8)"><path fill="none" d="M 313.87083333333334 127.1545038476579 L 337.7416666666667 168.5 L 313.87083333333334 209.84549615234206 L 266.12916666666666 209.8454961523421 L 242.25833333333333 168.5 L 266.12916666666666 127.15450384765794 L 313.87083333333334 127.1545038476579" stroke="#999999" stroke-width="2"  stroke-linejoin="round" stroke-linecap="round"></path></g><g class="highcharts-markers" visibility="visible"  transform="translate(10,10) scale(1 1)" clip-path="none"><path fill="#999999" d="M 266 123.15450384765794 L 270 127.15450384765794 266 131.15450384765794 262 127.15450384765794 Z"></path><path fill="#999999" d="M 242 164.5 L 246 168.5 242 172.5 238 168.5 Z"></path><path fill="#999999" d="M 266 205.8454961523421 L 270 209.8454961523421 266 213.8454961523421 262 209.8454961523421 Z"></path><path fill="#999999" d="M 313 205.84549615234206 L 317 209.84549615234206 313 213.84549615234206 309 209.84549615234206 Z"></path><path fill="#999999" d="M 337 164.5 L 341 168.5 337 172.5 333 168.5 Z"></path><path fill="#999999" d="M 313 123.1545038476579 L 317 127.1545038476579 313 131.1545038476579 309 127.1545038476579 Z"></path></g><g class="highcharts-series" visibility="visible"  transform="translate(10,10) scale(1 1)" clip-path="url(#highcharts-8)"><path fill="none" d="M 335.22342490842493 90.17073036633215 L 402.99732453957193 168.5 L 336.7605624433877 249.49166994244456 L 243.37042596237973 249.26479136845296 L 189.12538470643938 168.5 L 230.09493679775275 64.74138690308313 L 335.22342490842493 90.17073036633215" stroke="#7cb5ec" stroke-width="2"  stroke-linejoin="round" stroke-linecap="round"></path></g><g class="highcharts-markers" visibility="visible"  transform="translate(10,10) scale(1 1)" clip-path="none"><path fill="#7cb5ec" d="M 226 60.741386903083125 L 234 60.741386903083125 234 68.74138690308313 226 68.74138690308313 Z"></path><path fill="#7cb5ec" d="M 185 164.5 L 193 164.5 193 172.5 185 172.5 Z"></path><path fill="#7cb5ec" d="M 239 245.26479136845296 L 247 245.26479136845296 247 253.26479136845296 239 253.26479136845296 Z"></path><path fill="#7cb5ec" d="M 332 245.49166994244456 L 340 245.49166994244456 340 253.49166994244456 332 253.49166994244456 Z"></path><path fill="#7cb5ec" d="M 398 164.5 L 406 164.5 406 172.5 398 172.5 Z"></path><path fill="#7cb5ec" d="M 331 86.17073036633215 L 339 86.17073036633215 339 94.17073036633215 331 94.17073036633215 Z"></path></g></g><g class="highcharts-legend"  transform="translate(161,367)"><g ><g><g class="highcharts-legend-item"  transform="translate(8,3)"><path fill="none" d="M 0 11 L 16 11" stroke="#ff0000" stroke-width="2"></path><path fill="#ff0000" d="M 8 7 C 13.328 7 13.328 15 8 15 C 2.6719999999999997 15 2.6719999999999997 7 8 7 Z"></path><text x="21" style="color:#333333;font-size:12px;font-weight:bold;cursor:pointer;fill:#333333;" text-anchor="start"  y="15">考生位置</text></g><g class="highcharts-legend-item"  transform="translate(97,3)"><path fill="none" d="M 0 11 L 16 11" stroke="#999999" stroke-width="2"></path><path fill="#999999" d="M 8 7 L 12 11 8 15 4 11 Z"></path><text x="21" y="15" style="color:#333333;font-size:12px;font-weight:bold;cursor:pointer;fill:#333333;" text-anchor="start" >平均分位置</text></g><g class="highcharts-legend-item"  transform="translate(198,3)"><path fill="none" d="M 0 11 L 16 11" stroke="#7cb5ec" stroke-width="2"></path><path fill="#7cb5ec" d="M 4 7 L 12 7 12 15 4 15 Z"></path><text x="21" y="15" style="color:#333333;font-size:12px;font-weight:bold;cursor:pointer;fill:#333333;" text-anchor="start" >最高分位置</text></g></g></g></g><g class="highcharts-axis-labels highcharts-xaxis-labels" ><text x="379.11249999999995" text-anchor="start" style="width:63px;color:#606060;cursor:default;font-size:11px;fill:#606060;" y="46.4731304862072" opacity="1">语文</text><text x="458.225" text-anchor="start" style="width:63px;color:#606060;cursor:default;font-size:11px;fill:#606060;" y="183.5" opacity="1">数学</text><text x="379.11250000000007" text-anchor="start" style="width:63px;color:#606060;cursor:default;font-size:11px;fill:#606060;" y="320.5268695137928" opacity="1">英语</text><text x="220.88750000000005" text-anchor="end" style="width:63px;color:#606060;cursor:default;font-size:11px;fill:#606060;" y="320.5268695137928" opacity="1">政治</text><text x="141.775" text-anchor="end" style="width:63px;color:#606060;cursor:default;font-size:11px;fill:#606060;" y="183.50000000000003" opacity="1">历史</text><text x="220.88749999999993" text-anchor="end" style="width:63px;color:#606060;cursor:default;font-size:11px;fill:#606060;" y="46.473130486207225" opacity="1">地理</text><text x="0" text-anchor="start" style="width:63px;color:#606060;cursor:default;font-size:11px;fill:#606060;" y="-9999">6</text></g><g class="highcharts-axis-labels highcharts-yaxis-labels" ><text x="297" text-anchor="end" style="width:178px;color:#606060;cursor:default;font-size:11px;fill:#606060;" y="176.5" opacity="1">-2</text><text x="297" text-anchor="end" style="width:178px;color:#606060;cursor:default;font-size:11px;fill:#606060;" y="128.75833333333333" opacity="1">0</text><text x="297" text-anchor="end" style="width:178px;color:#606060;cursor:default;font-size:11px;fill:#606060;" y="81.01666666666667" opacity="1">2</text><text x="0" text-anchor="end" style="width:178px;color:#606060;cursor:default;font-size:11px;fill:#606060;" y="-9999">4</text></g><g class="highcharts-tooltip"  style="cursor:default;padding:0;white-space:nowrap;" transform="translate(0,-9999)"><path fill="none" d="M 3 0 L 13 0 C 16 0 16 0 16 3 L 16 13 C 16 16 16 16 13 16 L 3 16 C 0 16 0 16 0 13 L 0 3 C 0 0 0 0 3 0"  stroke="black" stroke-opacity="0.049999999999999996" stroke-width="5" transform="translate(1, 1)"></path><path fill="none" d="M 3 0 L 13 0 C 16 0 16 0 16 3 L 16 13 C 16 16 16 16 13 16 L 3 16 C 0 16 0 16 0 13 L 0 3 C 0 0 0 0 3 0"  stroke="black" stroke-opacity="0.09999999999999999" stroke-width="3" transform="translate(1, 1)"></path><path fill="none" d="M 3 0 L 13 0 C 16 0 16 0 16 3 L 16 13 C 16 16 16 16 13 16 L 3 16 C 0 16 0 16 0 13 L 0 3 C 0 0 0 0 3 0"  stroke="black" stroke-opacity="0.15" stroke-width="1" transform="translate(1, 1)"></path><path fill="rgb(249, 249, 249)" fill-opacity=" .85" d="M 3 0 L 13 0 C 16 0 16 0 16 3 L 16 13 C 16 16 16 16 13 16 L 3 16 C 0 16 0 16 0 13 L 0 3 C 0 0 0 0 3 0"></path><text x="8"  style="font-size:12px;color:#333333;fill:#333333;" y="21"></text></g><text x="590" text-anchor="end"  style="cursor:pointer;color:#909090;font-size:9px;fill:#909090;" y="395">Septnet</text></svg>