<svg xmlns:xlink="http://www.w3.org/1999/xlink" version="1.1" style="font-family:'lucida grande', 'lucida sans unicode', arial, helvetica, sans-serif;font-size:12px;" xmlns="http://www.w3.org/2000/svg" width="600" height="400"><desc>Created with Highcharts 4.0.3</desc><defs><clipPath id="highcharts-7"><rect x="0" y="0" width="522" height="318"></rect></clipPath></defs><rect x="0" y="0" width="600" height="400" strokeWidth="0" fill="#FFFFFF" class=" highcharts-background"></rect><g class="highcharts-grid" ></g><g class="highcharts-grid" ><path fill="none" d="M 68 9.5 L 590 9.5" stroke="#C0C0C0" stroke-width="1"  opacity="1"></path><path fill="none" d="M 68 74.5 L 590 74.5" stroke="#C0C0C0" stroke-width="1"  opacity="1"></path><path fill="none" d="M 68 137.5 L 590 137.5" stroke="#C0C0C0" stroke-width="1"  opacity="1"></path><path fill="none" d="M 68 201.5 L 590 201.5" stroke="#C0C0C0" stroke-width="1"  opacity="1"></path><path fill="none" d="M 68 264.5 L 590 264.5" stroke="#C0C0C0" stroke-width="1"  opacity="1"></path><path fill="none" d="M 68 328.5 L 590 328.5" stroke="#C0C0C0" stroke-width="1"  opacity="1"></path></g><g class="highcharts-axis" ><path fill="none" d="M 328.5 328 L 328.5 338" stroke="#C0D0E0" stroke-width="1" opacity="1"></path><path fill="none" d="M 459.5 328 L 459.5 338" stroke="#C0D0E0" stroke-width="1" opacity="1"></path><path fill="none" d="M 590.5 328 L 590.5 338" stroke="#C0D0E0" stroke-width="1" opacity="1"></path><path fill="none" d="M 198.5 328 L 198.5 338" stroke="#C0D0E0" stroke-width="1" opacity="1"></path><path fill="none" d="M 67.5 328 L 67.5 338" stroke="#C0D0E0" stroke-width="1" opacity="1"></path><path fill="none" d="M 68 328.5 L 590 328.5" stroke="#C0D0E0" stroke-width="1"  visibility="visible"></path></g><g class="highcharts-axis" ><text x="24.40625"  text-anchor="middle" transform="translate(0,0) rotate(270 24.40625 169)" class=" highcharts-yaxis-title" style="color:#707070;fill:#707070;" visibility="visible" y="169">成绩（分）</text></g><g class="highcharts-series-group" ><g class="highcharts-series" visibility="visible"  transform="translate(68,10) scale(1 1)" clip-path="url(#highcharts-7)"><rect x="33.5" y="212.5" width="63" height="106" fill="#999999" rx="0" ry="0" stroke="#FFFFFF" stroke-width="1"></rect><rect x="163.5" y="215.5" width="63" height="103" fill="#999999" rx="0" ry="0" stroke="#FFFFFF" stroke-width="1"></rect><rect x="294.5" y="197.5" width="63" height="121" fill="#999999" rx="0" ry="0" stroke="#FFFFFF" stroke-width="1"></rect><rect x="424.5" y="130.5" width="63" height="188" fill="#999999" rx="0" ry="0" stroke="#FFFFFF" stroke-width="1"></rect></g><g class="highcharts-markers" visibility="visible"  transform="translate(68,10) scale(1 1)" clip-path="none"></g><g class="highcharts-series" visibility="hidden"  transform="translate(68,10) scale(1 1)" clip-path="url(#highcharts-7)"></g><g class="highcharts-markers" visibility="hidden"  transform="translate(68,10) scale(1 1)" clip-path="none"></g><g class="highcharts-series" visibility="visible"  transform="translate(68,10) scale(1 1)" clip-path="url(#highcharts-7)"><path fill="none" d="M 65.25 220.05599999999998 L 195.75 165.35999999999999 L 326.25 160.272 L 456.75 31.80000000000001" stroke="#ff0000" stroke-width="2"  stroke-linejoin="round" stroke-linecap="round"></path></g><g class="highcharts-markers" visibility="visible"  transform="translate(68,10) scale(1 1)" clip-path="none"><path fill="#ff0000" d="M 456 27.80000000000001 C 461.328 27.80000000000001 461.328 35.80000000000001 456 35.80000000000001 C 450.672 35.80000000000001 450.672 27.80000000000001 456 27.80000000000001 Z"></path><path fill="#ff0000" d="M 326 156.272 C 331.328 156.272 331.328 164.272 326 164.272 C 320.672 164.272 320.672 156.272 326 156.272 Z"></path><path fill="#ff0000" d="M 195 161.35999999999999 C 200.328 161.35999999999999 200.328 169.35999999999999 195 169.35999999999999 C 189.672 169.35999999999999 189.672 161.35999999999999 195 161.35999999999999 Z"></path><path fill="#ff0000" d="M 65 216.05599999999998 C 70.328 216.05599999999998 70.328 224.05599999999998 65 224.05599999999998 C 59.672 224.05599999999998 59.672 216.05599999999998 65 216.05599999999998 Z"></path></g></g><g class="highcharts-legend"  transform="translate(137,368)"><g ><g><g class="highcharts-legend-item"  transform="translate(8,3)"><path fill="none" d="M 0 11 L 16 11" stroke="#ff0000" stroke-width="2"></path><path fill="#ff0000" d="M 8 7 C 13.328 7 13.328 15 8 15 C 2.6719999999999997 15 2.6719999999999997 7 8 7 Z"></path><text x="21" style="color:#333333;font-size:12px;font-weight:bold;cursor:pointer;fill:#333333;" text-anchor="start"  y="15">考生成绩</text></g><g class="highcharts-legend-item"  transform="translate(97,3)"><text x="21" y="15" style="color:#333333;font-size:12px;font-weight:bold;cursor:pointer;fill:#333333;" text-anchor="start" >全体学生平均分</text><rect x="0" y="4" width="16" height="12"  fill="#999999"></rect></g><g class="highcharts-legend-item"  transform="translate(222,3)"><text x="21" y="15" style="color:#ccc;font-size:12px;font-weight:bold;cursor:pointer;fill:#ccc;" text-anchor="start" >全体学生最高分</text><rect x="0" y="4" width="16" height="12"  fill="#CCC"></rect></g></g></g></g><g class="highcharts-axis-labels highcharts-xaxis-labels" ><text x="133.25" text-anchor="middle" style="width:111px;color:#606060;cursor:default;font-size:11px;fill:#606060;" y="348" opacity="1">语文</text><text x="263.75" text-anchor="middle" style="width:111px;color:#606060;cursor:default;font-size:11px;fill:#606060;" y="348" opacity="1">数学</text><text x="394.25" text-anchor="middle" style="width:111px;color:#606060;cursor:default;font-size:11px;fill:#606060;" y="348" opacity="1">英语</text><text x="524.75" text-anchor="middle" style="width:111px;color:#606060;cursor:default;font-size:11px;fill:#606060;" y="348" opacity="1">理科综合</text></g><g class="highcharts-axis-labels highcharts-yaxis-labels" ><text x="53" text-anchor="end" style="width:178px;color:#606060;cursor:default;font-size:11px;fill:#606060;" y="333.75" opacity="1">0</text><text x="53" text-anchor="end" style="width:178px;color:#606060;cursor:default;font-size:11px;fill:#606060;" y="270.15" opacity="1">50</text><text x="53" text-anchor="end" style="width:178px;color:#606060;cursor:default;font-size:11px;fill:#606060;" y="206.55" opacity="1">100</text><text x="53" text-anchor="end" style="width:178px;color:#606060;cursor:default;font-size:11px;fill:#606060;" y="142.95" opacity="1">150</text><text x="53" text-anchor="end" style="width:178px;color:#606060;cursor:default;font-size:11px;fill:#606060;" y="79.35" opacity="1">200</text><text x="53" text-anchor="end" style="width:178px;color:#606060;cursor:default;font-size:11px;fill:#606060;" y="15.75" opacity="1">250</text></g><g class="highcharts-tooltip"  style="cursor:default;padding:0;white-space:nowrap;" transform="translate(0,-9999)"><path fill="none" d="M 3 0 L 13 0 C 16 0 16 0 16 3 L 16 13 C 16 16 16 16 13 16 L 3 16 C 0 16 0 16 0 13 L 0 3 C 0 0 0 0 3 0"  stroke="black" stroke-opacity="0.049999999999999996" stroke-width="5" transform="translate(1, 1)"></path><path fill="none" d="M 3 0 L 13 0 C 16 0 16 0 16 3 L 16 13 C 16 16 16 16 13 16 L 3 16 C 0 16 0 16 0 13 L 0 3 C 0 0 0 0 3 0"  stroke="black" stroke-opacity="0.09999999999999999" stroke-width="3" transform="translate(1, 1)"></path><path fill="none" d="M 3 0 L 13 0 C 16 0 16 0 16 3 L 16 13 C 16 16 16 16 13 16 L 3 16 C 0 16 0 16 0 13 L 0 3 C 0 0 0 0 3 0"  stroke="black" stroke-opacity="0.15" stroke-width="1" transform="translate(1, 1)"></path><path fill="rgb(249, 249, 249)" fill-opacity=" .85" d="M 3 0 L 13 0 C 16 0 16 0 16 3 L 16 13 C 16 16 16 16 13 16 L 3 16 C 0 16 0 16 0 13 L 0 3 C 0 0 0 0 3 0"></path><text x="8"  style="font-size:12px;color:#333333;fill:#333333;" y="21"></text></g><text x="590" text-anchor="end"  style="cursor:pointer;color:#909090;font-size:9px;fill:#909090;" y="395">Septnet</text></svg>