<svg xmlns:xlink="http://www.w3.org/1999/xlink" version="1.1" style="font-family:'lucida grande', 'lucida sans unicode', arial, helvetica, sans-serif;font-size:12px;" xmlns="http://www.w3.org/2000/svg" width="600" height="400"><desc>Created with Highcharts 4.0.3</desc><defs><clipPath id="highcharts-8"><rect x="0" y="0" width="515" height="312"></rect></clipPath></defs><rect x="0" y="0" width="600" height="400" strokeWidth="0" fill="#FFFFFF" class=" highcharts-background"></rect><g class="highcharts-grid" ></g><g class="highcharts-grid" ><path fill="none" d="M 75 9.5 L 590 9.5" stroke="#C0C0C0" stroke-width="1"  opacity="1"></path><path fill="none" d="M 75 62.5 L 590 62.5" stroke="#C0C0C0" stroke-width="1"  opacity="1"></path><path fill="none" d="M 75 114.5 L 590 114.5" stroke="#C0C0C0" stroke-width="1"  opacity="1"></path><path fill="none" d="M 75 166.5 L 590 166.5" stroke="#C0C0C0" stroke-width="1"  opacity="1"></path><path fill="none" d="M 75 218.5 L 590 218.5" stroke="#C0C0C0" stroke-width="1"  opacity="1"></path><path fill="none" d="M 75 270.5 L 590 270.5" stroke="#C0C0C0" stroke-width="1"  opacity="1"></path><path fill="none" d="M 75 322.5 L 590 322.5" stroke="#C0C0C0" stroke-width="1"  opacity="1"></path></g><g class="highcharts-axis" ><path fill="none" d="M 332.5 322 L 332.5 332" stroke="#C0D0E0" stroke-width="1" opacity="1"></path><path fill="none" d="M 460.5 322 L 460.5 332" stroke="#C0D0E0" stroke-width="1" opacity="1"></path><path fill="none" d="M 590.5 322 L 590.5 332" stroke="#C0D0E0" stroke-width="1" opacity="1"></path><path fill="none" d="M 203.5 322 L 203.5 332" stroke="#C0D0E0" stroke-width="1" opacity="1"></path><path fill="none" d="M 74.5 322 L 74.5 332" stroke="#C0D0E0" stroke-width="1" opacity="1"></path><path fill="none" d="M 75 322.5 L 590 322.5" stroke="#C0D0E0" stroke-width="1"  visibility="visible"></path></g><g class="highcharts-axis" ><text x="26"  text-anchor="middle" transform="translate(0,0) rotate(270 26 166)" class=" highcharts-yaxis-title" style="color:#707070;fill:#707070;" visibility="visible" y="166">成绩（分）</text></g><g class="highcharts-series-group" ><g class="highcharts-series" visibility="visible"  transform="translate(75,10) scale(1 1)" clip-path="url(#highcharts-8)"><rect x="29.5" y="229.5" width="31" height="83" fill="#999999" rx="0" ry="0" stroke="#FFFFFF" stroke-width="1"></rect><rect x="157.5" y="253.5" width="31" height="59" fill="#999999" rx="0" ry="0" stroke="#FFFFFF" stroke-width="1"></rect><rect x="286.5" y="236.5" width="31" height="76" fill="#999999" rx="0" ry="0" stroke="#FFFFFF" stroke-width="1"></rect><rect x="415.5" y="194.5" width="31" height="118" fill="#999999" rx="0" ry="0" stroke="#FFFFFF" stroke-width="1"></rect></g><g class="highcharts-markers" visibility="visible"  transform="translate(75,10) scale(1 1)" clip-path="none"></g><g class="highcharts-series" visibility="visible"  transform="translate(75,10) scale(1 1)" clip-path="url(#highcharts-8)"><rect x="67.5" y="207.5" width="31" height="105" fill="#7cb5ec" rx="0" ry="0" stroke="#FFFFFF" stroke-width="1"></rect><rect x="196.5" y="177.5" width="31" height="135" fill="#7cb5ec" rx="0" ry="0" stroke="#FFFFFF" stroke-width="1"></rect><rect x="325.5" y="171.5" width="31" height="141" fill="#7cb5ec" rx="0" ry="0" stroke="#FFFFFF" stroke-width="1"></rect><rect x="453.5" y="56.5" width="31" height="256" fill="#7cb5ec" rx="0" ry="0" stroke="#FFFFFF" stroke-width="1"></rect></g><g class="highcharts-markers" visibility="visible"  transform="translate(75,10) scale(1 1)" clip-path="none"></g><g class="highcharts-series" visibility="visible"  transform="translate(75,10) scale(1 1)" clip-path="url(#highcharts-8)"><path fill="none" d="M 64.375 224.12 L 193.125 224.64 L 321.875 184.07999999999998 L 450.625 109.19999999999999" stroke="#ff0000" stroke-width="2"  stroke-linejoin="round" stroke-linecap="round"></path></g><g class="highcharts-markers" visibility="visible"  transform="translate(75,10) scale(1 1)" clip-path="none"><path fill="#ff0000" d="M 450 105.19999999999999 C 455.328 105.19999999999999 455.328 113.19999999999999 450 113.19999999999999 C 444.672 113.19999999999999 444.672 105.19999999999999 450 105.19999999999999 Z"></path><path fill="#ff0000" d="M 321 180.07999999999998 C 326.328 180.07999999999998 326.328 188.07999999999998 321 188.07999999999998 C 315.672 188.07999999999998 315.672 180.07999999999998 321 180.07999999999998 Z"></path><path fill="#ff0000" d="M 193 220.64 C 198.328 220.64 198.328 228.64 193 228.64 C 187.672 228.64 187.672 220.64 193 220.64 Z"></path><path fill="#ff0000" d="M 64 220.12 C 69.328 220.12 69.328 228.12 64 228.12 C 58.672 228.12 58.672 220.12 64 220.12 Z"></path></g></g><g class="highcharts-legend"  transform="translate(102,366)"><g ><g><g class="highcharts-legend-item"  transform="translate(8,3)"><path fill="none" d="M 0 11 L 16 11" stroke="#ff0000" stroke-width="2"></path><path fill="#ff0000" d="M 8 7 C 13.328 7 13.328 15 8 15 C 2.6719999999999997 15 2.6719999999999997 7 8 7 Z"></path><text x="21" style="color:#333333;font-size:12px;font-weight:bold;cursor:pointer;fill:#333333;" text-anchor="start"  y="15">考生成绩</text></g><g class="highcharts-legend-item"  transform="translate(101,3)"><text x="21" y="15" style="color:#333333;font-size:12px;font-weight:bold;cursor:pointer;fill:#333333;" text-anchor="start" >考生单位学生平均分</text><rect x="0" y="4" width="16" height="12"  fill="#999999"></rect></g><g class="highcharts-legend-item"  transform="translate(259,3)"><text x="21" y="15" style="color:#333333;font-size:12px;font-weight:bold;cursor:pointer;fill:#333333;" text-anchor="start" >考生单位学生最高分</text><rect x="0" y="4" width="16" height="12"  fill="#7cb5ec"></rect></g></g></g></g><g class="highcharts-axis-labels highcharts-xaxis-labels" ><text x="139.375" text-anchor="middle" style="width:109px;color:#606060;cursor:default;font-size:11px;fill:#606060;" y="343" opacity="1">语文</text><text x="268.125" text-anchor="middle" style="width:109px;color:#606060;cursor:default;font-size:11px;fill:#606060;" y="343" opacity="1">数学</text><text x="396.875" text-anchor="middle" style="width:109px;color:#606060;cursor:default;font-size:11px;fill:#606060;" y="343" opacity="1">英语</text><text x="525.625" text-anchor="middle" style="width:109px;color:#606060;cursor:default;font-size:11px;fill:#606060;" y="343" opacity="1">理科综合</text></g><g class="highcharts-axis-labels highcharts-yaxis-labels" ><text x="60" text-anchor="end" style="width:178px;color:#606060;cursor:default;font-size:11px;fill:#606060;" y="327" opacity="1">0</text><text x="60" text-anchor="end" style="width:178px;color:#606060;cursor:default;font-size:11px;fill:#606060;" y="275" opacity="1">50</text><text x="60" text-anchor="end" style="width:178px;color:#606060;cursor:default;font-size:11px;fill:#606060;" y="223" opacity="1">100</text><text x="60" text-anchor="end" style="width:178px;color:#606060;cursor:default;font-size:11px;fill:#606060;" y="171" opacity="1">150</text><text x="60" text-anchor="end" style="width:178px;color:#606060;cursor:default;font-size:11px;fill:#606060;" y="119" opacity="1">200</text><text x="60" text-anchor="end" style="width:178px;color:#606060;cursor:default;font-size:11px;fill:#606060;" y="67" opacity="1">250</text><text x="60" text-anchor="end" style="width:178px;color:#606060;cursor:default;font-size:11px;fill:#606060;" y="15" opacity="1">300</text></g><g class="highcharts-tooltip"  style="cursor:default;padding:0;white-space:nowrap;" transform="translate(0,-9999)"><path fill="none" d="M 3 0 L 13 0 C 16 0 16 0 16 3 L 16 13 C 16 16 16 16 13 16 L 3 16 C 0 16 0 16 0 13 L 0 3 C 0 0 0 0 3 0"  stroke="black" stroke-opacity="0.049999999999999996" stroke-width="5" transform="translate(1, 1)"></path><path fill="none" d="M 3 0 L 13 0 C 16 0 16 0 16 3 L 16 13 C 16 16 16 16 13 16 L 3 16 C 0 16 0 16 0 13 L 0 3 C 0 0 0 0 3 0"  stroke="black" stroke-opacity="0.09999999999999999" stroke-width="3" transform="translate(1, 1)"></path><path fill="none" d="M 3 0 L 13 0 C 16 0 16 0 16 3 L 16 13 C 16 16 16 16 13 16 L 3 16 C 0 16 0 16 0 13 L 0 3 C 0 0 0 0 3 0"  stroke="black" stroke-opacity="0.15" stroke-width="1" transform="translate(1, 1)"></path><path fill="rgb(249, 249, 249)" fill-opacity=" .85" d="M 3 0 L 13 0 C 16 0 16 0 16 3 L 16 13 C 16 16 16 16 13 16 L 3 16 C 0 16 0 16 0 13 L 0 3 C 0 0 0 0 3 0"></path><text x="8"  style="font-size:12px;color:#333333;fill:#333333;" y="21"></text></g><text x="590" text-anchor="end"  style="cursor:pointer;color:#909090;font-size:9px;fill:#909090;" y="395">Septnet</text></svg>