<svg xmlns:xlink="http://www.w3.org/1999/xlink" version="1.1" style="font-family:'lucida grande', 'lucida sans unicode', arial, helvetica, sans-serif;font-size:12px;" xmlns="http://www.w3.org/2000/svg" width="600" height="400"><desc>Created with Highcharts 4.0.3</desc><defs><clipPath id="highcharts-7"><rect x="0" y="0" width="522" height="317"></rect></clipPath></defs><rect x="0" y="0" width="600" height="400" strokeWidth="0" fill="#FFFFFF" class=" highcharts-background"></rect><g class="highcharts-grid" ></g><g class="highcharts-grid" ><path fill="none" d="M 68 9.5 L 590 9.5" stroke="#C0C0C0" stroke-width="1"  opacity="1"></path><path fill="none" d="M 68 73.5 L 590 73.5" stroke="#C0C0C0" stroke-width="1"  opacity="1"></path><path fill="none" d="M 68 137.5 L 590 137.5" stroke="#C0C0C0" stroke-width="1"  opacity="1"></path><path fill="none" d="M 68 200.5 L 590 200.5" stroke="#C0C0C0" stroke-width="1"  opacity="1"></path><path fill="none" d="M 68 264.5 L 590 264.5" stroke="#C0C0C0" stroke-width="1"  opacity="1"></path><path fill="none" d="M 68 327.5 L 590 327.5" stroke="#C0C0C0" stroke-width="1"  opacity="1"></path></g><g class="highcharts-axis" ><path fill="none" d="M 590.5 327 L 590.5 337" stroke="#C0D0E0" stroke-width="1" opacity="1"></path><path fill="none" d="M 328.5 327 L 328.5 337" stroke="#C0D0E0" stroke-width="1" opacity="1"></path><path fill="none" d="M 67.5 327 L 67.5 337" stroke="#C0D0E0" stroke-width="1" opacity="1"></path><path fill="none" d="M 68 327.5 L 590 327.5" stroke="#C0D0E0" stroke-width="1"  visibility="visible"></path></g><g class="highcharts-axis" ><text x="24.46875"  text-anchor="middle" transform="translate(0,0) rotate(270 24.46875 168.5)" class=" highcharts-yaxis-title" style="color:#707070;fill:#707070;" visibility="visible" y="168.5">成绩（分）</text></g><g class="highcharts-series-group" ><g class="highcharts-series" visibility="visible"  transform="translate(68,10) scale(1 1)" clip-path="url(#highcharts-7)"><rect x="59.5" y="84.5" width="63" height="233" fill="#999999" rx="0" ry="0" stroke="#FFFFFF" stroke-width="1"></rect><rect x="320.5" y="117.5" width="63" height="200" fill="#999999" rx="0" ry="0" stroke="#FFFFFF" stroke-width="1"></rect></g><g class="highcharts-markers" visibility="visible"  transform="translate(68,10) scale(1 1)" clip-path="none"></g><g class="highcharts-series" visibility="visible"  transform="translate(68,10) scale(1 1)" clip-path="url(#highcharts-7)"><rect x="137.5" y="23.5" width="63" height="294" fill="#7cb5ec" rx="0" ry="0" stroke="#FFFFFF" stroke-width="1"></rect><rect x="398.5" y="71.5" width="63" height="246" fill="#7cb5ec" rx="0" ry="0" stroke="#FFFFFF" stroke-width="1"></rect></g><g class="highcharts-markers" visibility="visible"  transform="translate(68,10) scale(1 1)" clip-path="none"></g><g class="highcharts-series" visibility="visible"  transform="translate(68,10) scale(1 1)" clip-path="url(#highcharts-7)"><path fill="none" d="M 130.5 60.863999999999976 L 391.5 83.68799999999999" stroke="#ff0000" stroke-width="2"  stroke-linejoin="round" stroke-linecap="round"></path></g><g class="highcharts-markers" visibility="visible"  transform="translate(68,10) scale(1 1)" clip-path="none"><path fill="#ff0000" d="M 391 79.68799999999999 C 396.328 79.68799999999999 396.328 87.68799999999999 391 87.68799999999999 C 385.672 87.68799999999999 385.672 79.68799999999999 391 79.68799999999999 Z"></path><path fill="#ff0000" d="M 130 56.863999999999976 C 135.328 56.863999999999976 135.328 64.86399999999998 130 64.86399999999998 C 124.672 64.86399999999998 124.672 56.863999999999976 130 56.863999999999976 Z"></path></g></g><g class="highcharts-legend"  transform="translate(113,368)"><g ><g><g class="highcharts-legend-item"  transform="translate(8,3)"><path fill="none" d="M 0 11 L 16 11" stroke="#ff0000" stroke-width="2"></path><path fill="#ff0000" d="M 8 7 C 13.328 7 13.328 15 8 15 C 2.6719999999999997 15 2.6719999999999997 7 8 7 Z"></path><text x="21" style="color:#333333;font-size:12px;font-weight:bold;cursor:pointer;fill:#333333;" text-anchor="start"  y="15">考生成绩</text></g><g class="highcharts-legend-item"  transform="translate(97,3)"><text x="21" y="15" style="color:#333333;font-size:12px;font-weight:bold;cursor:pointer;fill:#333333;" text-anchor="start" >考生单位学生平均分</text><rect x="0" y="4" width="16" height="12"  fill="#999999"></rect></g><g class="highcharts-legend-item"  transform="translate(246,3)"><text x="21" y="15" style="color:#333333;font-size:12px;font-weight:bold;cursor:pointer;fill:#333333;" text-anchor="start" >考生单位学生最高分</text><rect x="0" y="4" width="16" height="12"  fill="#7cb5ec"></rect></g></g></g></g><g class="highcharts-axis-labels highcharts-xaxis-labels" ><text x="198.5" text-anchor="middle" style="width:241px;color:#606060;cursor:default;font-size:11px;fill:#606060;" y="347" opacity="1">英语</text><text x="459.5" text-anchor="middle" style="width:241px;color:#606060;cursor:default;font-size:11px;fill:#606060;" y="347" opacity="1">化学</text></g><g class="highcharts-axis-labels highcharts-yaxis-labels" ><text x="53" text-anchor="end" style="width:178px;color:#606060;cursor:default;font-size:11px;fill:#606060;" y="332.5" opacity="1">0</text><text x="53" text-anchor="end" style="width:178px;color:#606060;cursor:default;font-size:11px;fill:#606060;" y="269.1" opacity="1">25</text><text x="53" text-anchor="end" style="width:178px;color:#606060;cursor:default;font-size:11px;fill:#606060;" y="205.7" opacity="1">50</text><text x="53" text-anchor="end" style="width:178px;color:#606060;cursor:default;font-size:11px;fill:#606060;" y="142.3" opacity="1">75</text><text x="53" text-anchor="end" style="width:178px;color:#606060;cursor:default;font-size:11px;fill:#606060;" y="78.9" opacity="1">100</text><text x="53" text-anchor="end" style="width:178px;color:#606060;cursor:default;font-size:11px;fill:#606060;" y="15.5" opacity="1">125</text></g><g class="highcharts-tooltip"  style="cursor:default;padding:0;white-space:nowrap;" transform="translate(0,-9999)"><path fill="none" d="M 3 0 L 13 0 C 16 0 16 0 16 3 L 16 13 C 16 16 16 16 13 16 L 3 16 C 0 16 0 16 0 13 L 0 3 C 0 0 0 0 3 0"  stroke="black" stroke-opacity="0.049999999999999996" stroke-width="5" transform="translate(1, 1)"></path><path fill="none" d="M 3 0 L 13 0 C 16 0 16 0 16 3 L 16 13 C 16 16 16 16 13 16 L 3 16 C 0 16 0 16 0 13 L 0 3 C 0 0 0 0 3 0"  stroke="black" stroke-opacity="0.09999999999999999" stroke-width="3" transform="translate(1, 1)"></path><path fill="none" d="M 3 0 L 13 0 C 16 0 16 0 16 3 L 16 13 C 16 16 16 16 13 16 L 3 16 C 0 16 0 16 0 13 L 0 3 C 0 0 0 0 3 0"  stroke="black" stroke-opacity="0.15" stroke-width="1" transform="translate(1, 1)"></path><path fill="rgb(249, 249, 249)" fill-opacity=" .85" d="M 3 0 L 13 0 C 16 0 16 0 16 3 L 16 13 C 16 16 16 16 13 16 L 3 16 C 0 16 0 16 0 13 L 0 3 C 0 0 0 0 3 0"></path><text x="8"  style="font-size:12px;color:#333333;fill:#333333;" y="21"></text></g><text x="590" text-anchor="end"  style="cursor:pointer;color:#909090;font-size:9px;fill:#909090;" y="395">Septnet</text></svg>