<svg xmlns:xlink="http://www.w3.org/1999/xlink" version="1.1" style="font-family:'lucida grande', 'lucida sans unicode', arial, helvetica, sans-serif;font-size:12px;" xmlns="http://www.w3.org/2000/svg" width="600" height="400"><desc>Created with Highcharts 4.0.3</desc><defs><clipPath id="highcharts-12"><rect x="0" y="0" width="519" height="314"></rect></clipPath></defs><rect x="0" y="0" width="600" height="400" strokeWidth="0" fill="#FFFFFF" class=" highcharts-background"></rect><g class="highcharts-grid" ></g><g class="highcharts-grid" ><path fill="none" d="M 71 9.5 L 590 9.5" stroke="#C0C0C0" stroke-width="1"  opacity="1"></path><path fill="none" d="M 71 73.5 L 590 73.5" stroke="#C0C0C0" stroke-width="1"  opacity="1"></path><path fill="none" d="M 71 136.5 L 590 136.5" stroke="#C0C0C0" stroke-width="1"  opacity="1"></path><path fill="none" d="M 71 198.5 L 590 198.5" stroke="#C0C0C0" stroke-width="1"  opacity="1"></path><path fill="none" d="M 71 261.5 L 590 261.5" stroke="#C0C0C0" stroke-width="1"  opacity="1"></path><path fill="none" d="M 71 324.5 L 590 324.5" stroke="#C0C0C0" stroke-width="1"  opacity="1"></path></g><g class="highcharts-axis" ><path fill="none" d="M 330.5 324 L 330.5 334" stroke="#C0D0E0" stroke-width="1" opacity="1"></path><path fill="none" d="M 459.5 324 L 459.5 334" stroke="#C0D0E0" stroke-width="1" opacity="1"></path><path fill="none" d="M 590.5 324 L 590.5 334" stroke="#C0D0E0" stroke-width="1" opacity="1"></path><path fill="none" d="M 200.5 324 L 200.5 334" stroke="#C0D0E0" stroke-width="1" opacity="1"></path><path fill="none" d="M 70.5 324 L 70.5 334" stroke="#C0D0E0" stroke-width="1" opacity="1"></path><path fill="none" d="M 71 324.5 L 590 324.5" stroke="#C0D0E0" stroke-width="1"  visibility="visible"></path></g><g class="highcharts-axis" ><text x="25"  text-anchor="middle" transform="translate(0,0) rotate(270 25 167)" class=" highcharts-yaxis-title" style="color:#707070;fill:#707070;" visibility="visible" y="167">成绩（分）</text></g><g class="highcharts-series-group" ><g class="highcharts-series" visibility="visible"  transform="translate(71,10) scale(1 1)" clip-path="url(#highcharts-12)"><rect x="29.5" y="196.5" width="32" height="118" fill="#999999" rx="0" ry="0" stroke="#FFFFFF" stroke-width="1"></rect><rect x="159.5" y="193.5" width="32" height="121" fill="#999999" rx="0" ry="0" stroke="#FFFFFF" stroke-width="1"></rect><rect x="288.5" y="207.5" width="32" height="107" fill="#999999" rx="0" ry="0" stroke="#FFFFFF" stroke-width="1"></rect><rect x="418.5" y="120.5" width="32" height="194" fill="#999999" rx="0" ry="0" stroke="#FFFFFF" stroke-width="1"></rect></g><g class="highcharts-markers" visibility="visible"  transform="translate(71,10) scale(1 1)" clip-path="none"></g><g class="highcharts-series" visibility="visible"  transform="translate(71,10) scale(1 1)" clip-path="url(#highcharts-12)"><rect x="68.5" y="186.5" width="32" height="128" fill="#7cb5ec" rx="0" ry="0" stroke="#FFFFFF" stroke-width="1"></rect><rect x="198.5" y="154.5" width="32" height="160" fill="#7cb5ec" rx="0" ry="0" stroke="#FFFFFF" stroke-width="1"></rect><rect x="327.5" y="174.5" width="32" height="140" fill="#7cb5ec" rx="0" ry="0" stroke="#FFFFFF" stroke-width="1"></rect><rect x="457.5" y="36.5" width="32" height="278" fill="#7cb5ec" rx="0" ry="0" stroke="#FFFFFF" stroke-width="1"></rect></g><g class="highcharts-markers" visibility="visible"  transform="translate(71,10) scale(1 1)" clip-path="none"></g><g class="highcharts-series" visibility="visible"  transform="translate(71,10) scale(1 1)" clip-path="url(#highcharts-12)"><path fill="none" d="M 64.875 195.93599999999998 L 194.625 190.912 L 324.375 182.12 L 454.125 79.12799999999999" stroke="#ff0000" stroke-width="2"  stroke-linejoin="round" stroke-linecap="round"></path></g><g class="highcharts-markers" visibility="visible"  transform="translate(71,10) scale(1 1)" clip-path="none"><path fill="#ff0000" d="M 454 75.12799999999999 C 459.328 75.12799999999999 459.328 83.12799999999999 454 83.12799999999999 C 448.672 83.12799999999999 448.672 75.12799999999999 454 75.12799999999999 Z"></path><path fill="#ff0000" d="M 324 178.12 C 329.328 178.12 329.328 186.12 324 186.12 C 318.672 186.12 318.672 178.12 324 178.12 Z"></path><path fill="#ff0000" d="M 194 186.912 C 199.328 186.912 199.328 194.912 194 194.912 C 188.672 194.912 188.672 186.912 194 186.912 Z"></path><path fill="#ff0000" d="M 64 191.93599999999998 C 69.328 191.93599999999998 69.328 199.93599999999998 64 199.93599999999998 C 58.672 199.93599999999998 58.672 191.93599999999998 64 191.93599999999998 Z"></path></g></g><g class="highcharts-legend"  transform="translate(102,367)"><g ><g><g class="highcharts-legend-item"  transform="translate(8,3)"><path fill="none" d="M 0 11 L 16 11" stroke="#ff0000" stroke-width="2"></path><path fill="#ff0000" d="M 8 7 C 13.328 7 13.328 15 8 15 C 2.6719999999999997 15 2.6719999999999997 7 8 7 Z"></path><text x="21" style="color:#333333;font-size:12px;font-weight:bold;cursor:pointer;fill:#333333;" text-anchor="start"  y="15">考生成绩</text></g><g class="highcharts-legend-item"  transform="translate(101,3)"><text x="21" y="15" style="color:#333333;font-size:12px;font-weight:bold;cursor:pointer;fill:#333333;" text-anchor="start" >考生单位学生平均分</text><rect x="0" y="4" width="16" height="12"  fill="#999999"></rect></g><g class="highcharts-legend-item"  transform="translate(259,3)"><text x="21" y="15" style="color:#333333;font-size:12px;font-weight:bold;cursor:pointer;fill:#333333;" text-anchor="start" >考生单位学生最高分</text><rect x="0" y="4" width="16" height="12"  fill="#7cb5ec"></rect></g></g></g></g><g class="highcharts-axis-labels highcharts-xaxis-labels" ><text x="135.875" text-anchor="middle" style="width:110px;color:#606060;cursor:default;font-size:11px;fill:#606060;" y="345" opacity="1">语文</text><text x="265.625" text-anchor="middle" style="width:110px;color:#606060;cursor:default;font-size:11px;fill:#606060;" y="345" opacity="1">数学</text><text x="395.375" text-anchor="middle" style="width:110px;color:#606060;cursor:default;font-size:11px;fill:#606060;" y="345" opacity="1">英语</text><text x="525.125" text-anchor="middle" style="width:110px;color:#606060;cursor:default;font-size:11px;fill:#606060;" y="345" opacity="1">理科综合</text></g><g class="highcharts-axis-labels highcharts-yaxis-labels" ><text x="56" text-anchor="end" style="width:178px;color:#606060;cursor:default;font-size:11px;fill:#606060;" y="329.5" opacity="1">0</text><text x="56" text-anchor="end" style="width:178px;color:#606060;cursor:default;font-size:11px;fill:#606060;" y="266.7" opacity="1">50</text><text x="56" text-anchor="end" style="width:178px;color:#606060;cursor:default;font-size:11px;fill:#606060;" y="203.89999999999998" opacity="1">100</text><text x="56" text-anchor="end" style="width:178px;color:#606060;cursor:default;font-size:11px;fill:#606060;" y="141.1" opacity="1">150</text><text x="56" text-anchor="end" style="width:178px;color:#606060;cursor:default;font-size:11px;fill:#606060;" y="78.30000000000001" opacity="1">200</text><text x="56" text-anchor="end" style="width:178px;color:#606060;cursor:default;font-size:11px;fill:#606060;" y="15.5" opacity="1">250</text></g><g class="highcharts-tooltip"  style="cursor:default;padding:0;white-space:nowrap;" transform="translate(0,-9999)"><path fill="none" d="M 3 0 L 13 0 C 16 0 16 0 16 3 L 16 13 C 16 16 16 16 13 16 L 3 16 C 0 16 0 16 0 13 L 0 3 C 0 0 0 0 3 0"  stroke="black" stroke-opacity="0.049999999999999996" stroke-width="5" transform="translate(1, 1)"></path><path fill="none" d="M 3 0 L 13 0 C 16 0 16 0 16 3 L 16 13 C 16 16 16 16 13 16 L 3 16 C 0 16 0 16 0 13 L 0 3 C 0 0 0 0 3 0"  stroke="black" stroke-opacity="0.09999999999999999" stroke-width="3" transform="translate(1, 1)"></path><path fill="none" d="M 3 0 L 13 0 C 16 0 16 0 16 3 L 16 13 C 16 16 16 16 13 16 L 3 16 C 0 16 0 16 0 13 L 0 3 C 0 0 0 0 3 0"  stroke="black" stroke-opacity="0.15" stroke-width="1" transform="translate(1, 1)"></path><path fill="rgb(249, 249, 249)" fill-opacity=" .85" d="M 3 0 L 13 0 C 16 0 16 0 16 3 L 16 13 C 16 16 16 16 13 16 L 3 16 C 0 16 0 16 0 13 L 0 3 C 0 0 0 0 3 0"></path><text x="8"  style="font-size:12px;color:#333333;fill:#333333;" y="21"></text></g><text x="590" text-anchor="end"  style="cursor:pointer;color:#909090;font-size:9px;fill:#909090;" y="395">Septnet</text></svg>