<svg xmlns:xlink="http://www.w3.org/1999/xlink" style="font-family: 'lucida grande', 'lucida sans unicode', arial, helvetica, sans-serif; font-size: 12px" xmlns="http://www.w3.org/2000/svg" version="1.1" width="600" height="400"><desc>Created with Highcharts 4.0.3</desc><defs><clipPath id="highcharts-13"><rect width="520" height="315" x="0" y="0"></rect></clipPath></defs><rect fill="#FFFFFF" class=" highcharts-background" strokeWidth="0" width="600" height="400" x="0" y="0"></rect><g class="highcharts-grid" ></g><g class="highcharts-grid" ><path opacity="1" d="M 70 9.5 L 590 9.5" fill="none"  stroke="#C0C0C0" stroke-width="1"></path><path opacity="1" d="M 70 63.5 L 590 63.5" fill="none"  stroke="#C0C0C0" stroke-width="1"></path><path opacity="1" d="M 70 115.5 L 590 115.5" fill="none"  stroke="#C0C0C0" stroke-width="1"></path><path opacity="1" d="M 70 168.5 L 590 168.5" fill="none"  stroke="#C0C0C0" stroke-width="1"></path><path opacity="1" d="M 70 220.5 L 590 220.5" fill="none"  stroke="#C0C0C0" stroke-width="1"></path><path opacity="1" d="M 70 273.5 L 590 273.5" fill="none"  stroke="#C0C0C0" stroke-width="1"></path><path opacity="1" d="M 70 325.5 L 590 325.5" fill="none"  stroke="#C0C0C0" stroke-width="1"></path></g><g class="highcharts-axis" ><path opacity="1" d="M 242.5 325 L 242.5 335" fill="none" stroke="#C0D0E0" stroke-width="1"></path><path opacity="1" d="M 329.5 325 L 329.5 335" fill="none" stroke="#C0D0E0" stroke-width="1"></path><path opacity="1" d="M 416.5 325 L 416.5 335" fill="none" stroke="#C0D0E0" stroke-width="1"></path><path opacity="1" d="M 502.5 325 L 502.5 335" fill="none" stroke="#C0D0E0" stroke-width="1"></path><path opacity="1" d="M 590.5 325 L 590.5 335" fill="none" stroke="#C0D0E0" stroke-width="1"></path><path opacity="1" d="M 156.5 325 L 156.5 335" fill="none" stroke="#C0D0E0" stroke-width="1"></path><path opacity="1" d="M 69.5 325 L 69.5 335" fill="none" stroke="#C0D0E0" stroke-width="1"></path><path d="M 70 325.5 L 590 325.5" fill="none"  stroke="#C0D0E0" stroke-width="1" visibility="visible"></path></g><g class="highcharts-axis" ><text style="position: absolute; color: #707070; fill: #707070" class=" highcharts-yaxis-title" x="24"  y="167.5" transform="translate(0,0) rotate(270 24 167.5)" text-anchor="middle" visibility="visible">成绩（分）</text></g><g class="highcharts-series-group" ><g class="highcharts-series"  transform="translate(70,10) scale(1 1)" visibility="visible" clip-path="url(#highcharts-13)"><rect fill="#999999" width="21" height="225" x="19.5" y="90.5" stroke="#FFFFFF" stroke-width="1" rx="0" ry="0"></rect><rect fill="#999999" width="21" height="196" x="106.5" y="119.5" stroke="#FFFFFF" stroke-width="1" rx="0" ry="0"></rect><rect fill="#999999" width="21" height="226" x="192.5" y="89.5" stroke="#FFFFFF" stroke-width="1" rx="0" ry="0"></rect><rect fill="#999999" width="21" height="151" x="279.5" y="164.5" stroke="#FFFFFF" stroke-width="1" rx="0" ry="0"></rect><rect fill="#999999" width="21" height="138" x="366.5" y="177.5" stroke="#FFFFFF" stroke-width="1" rx="0" ry="0"></rect><rect fill="#999999" width="21" height="161" x="452.5" y="154.5" stroke="#FFFFFF" stroke-width="1" rx="0" ry="0"></rect></g><g class="highcharts-markers"  transform="translate(70,10) scale(1 1)" visibility="visible" clip-path="none"></g><g class="highcharts-series"  transform="translate(70,10) scale(1 1)" visibility="visible" clip-path="url(#highcharts-13)"><rect fill="#7cb5ec" width="21" height="262" x="45.5" y="53.5" stroke="#FFFFFF" stroke-width="1" rx="0" ry="0"></rect><rect fill="#7cb5ec" width="21" height="288" x="132.5" y="27.5" stroke="#FFFFFF" stroke-width="1" rx="0" ry="0"></rect><rect fill="#7cb5ec" width="21" height="296" x="218.5" y="19.5" stroke="#FFFFFF" stroke-width="1" rx="0" ry="0"></rect><rect fill="#7cb5ec" width="21" height="193" x="305.5" y="122.5" stroke="#FFFFFF" stroke-width="1" rx="0" ry="0"></rect><rect fill="#7cb5ec" width="21" height="176" x="392.5" y="139.5" stroke="#FFFFFF" stroke-width="1" rx="0" ry="0"></rect><rect fill="#7cb5ec" width="21" height="199" x="478.5" y="116.5" stroke="#FFFFFF" stroke-width="1" rx="0" ry="0"></rect></g><g class="highcharts-markers"  transform="translate(70,10) scale(1 1)" visibility="visible" clip-path="none"></g><g class="highcharts-series"  transform="translate(70,10) scale(1 1)" visibility="visible" clip-path="url(#highcharts-13)"><path d="M 43.333333333333336 77.69999999999999 L 130 134.4 L 216.66666666666668 64.04999999999998 L 303.3333333333333 163.79999999999998 L 390 159.6 L 476.6666666666667 134.4" fill="none" stroke-linejoin="round" stroke-linecap="round"  stroke="#ff0000" stroke-width="2"></path></g><g class="highcharts-markers"  transform="translate(70,10) scale(1 1)" visibility="visible" clip-path="none"><path d="M 476 130.4 C 481.328 130.4 481.328 138.4 476 138.4 C 470.672 138.4 470.672 130.4 476 130.4 Z" fill="#ff0000"></path><path d="M 390 155.6 C 395.328 155.6 395.328 163.6 390 163.6 C 384.672 163.6 384.672 155.6 390 155.6 Z" fill="#ff0000"></path><path d="M 303 159.79999999999998 C 308.328 159.79999999999998 308.328 167.79999999999998 303 167.79999999999998 C 297.672 167.79999999999998 297.672 159.79999999999998 303 159.79999999999998 Z" fill="#ff0000"></path><path d="M 216 60.04999999999998 C 221.328 60.04999999999998 221.328 68.04999999999998 216 68.04999999999998 C 210.672 68.04999999999998 210.672 60.04999999999998 216 60.04999999999998 Z" fill="#ff0000"></path><path d="M 130 130.4 C 135.328 130.4 135.328 138.4 130 138.4 C 124.672 138.4 124.672 130.4 130 130.4 Z" fill="#ff0000"></path><path d="M 43 73.69999999999999 C 48.328 73.69999999999999 48.328 81.69999999999999 43 81.69999999999999 C 37.672 81.69999999999999 37.672 73.69999999999999 43 73.69999999999999 Z" fill="#ff0000"></path></g></g><g class="highcharts-legend"  transform="translate(128,368)"><g ><g><g class="highcharts-legend-item"  transform="translate(8,3)"><path d="M 0 11 L 16 11" fill="none" stroke="#ff0000" stroke-width="2"></path><path d="M 8 7 C 13.328 7 13.328 15 8 15 C 2.6719999999999997 15 2.6719999999999997 7 8 7 Z" fill="#ff0000"></path><text style="position: absolute; color: #333333; font-size: 12px; cursor: pointer; font-weight: bold; fill: #333333" x="21"  y="15" text-anchor="start">考生成绩</text></g><g class="highcharts-legend-item"  transform="translate(101,3)"><text style="position: absolute; color: #333333; font-size: 12px; cursor: pointer; font-weight: bold; fill: #333333" x="21"  y="15" text-anchor="start">全体学生平均分</text><rect fill="#999999" width="16" height="12" x="0"  y="4"></rect></g><g class="highcharts-legend-item"  transform="translate(233,3)"><text style="position: absolute; color: #333333; font-size: 12px; cursor: pointer; font-weight: bold; fill: #333333" x="21"  y="15" text-anchor="start">全体学生最高分</text><rect fill="#7cb5ec" width="16" height="12" x="0"  y="4"></rect></g></g></g></g><g class="highcharts-axis-labels highcharts-xaxis-labels" ><text style="position: absolute; color: #606060; font-size: 11px; cursor: default; fill: #606060" opacity="1" x="113.333333333333" y="345" text-anchor="middle">语文</text><text style="position: absolute; color: #606060; font-size: 11px; cursor: default; fill: #606060" opacity="1" x="200" y="345" text-anchor="middle">数学</text><text style="position: absolute; color: #606060; font-size: 11px; cursor: default; fill: #606060" opacity="1" x="286.666666666667" y="345" text-anchor="middle">英语</text><text style="position: absolute; color: #606060; font-size: 11px; cursor: default; fill: #606060" opacity="1" x="373.333333333333" y="345" text-anchor="middle">政治</text><text style="position: absolute; color: #606060; font-size: 11px; cursor: default; fill: #606060" opacity="1" x="460" y="345" text-anchor="middle">历史</text><text style="position: absolute; color: #606060; font-size: 11px; cursor: default; fill: #606060" opacity="1" x="546.666666666667" y="345" text-anchor="middle">地理</text></g><g class="highcharts-axis-labels highcharts-yaxis-labels" ><text style="position: absolute; color: #606060; font-size: 11px; cursor: default; fill: #606060" opacity="1" x="55" y="329.5" text-anchor="end">0</text><text style="position: absolute; color: #606060; font-size: 11px; cursor: default; fill: #606060" opacity="1" x="55" y="277" text-anchor="end">25</text><text style="position: absolute; color: #606060; font-size: 11px; cursor: default; fill: #606060" opacity="1" x="55" y="224.5" text-anchor="end">50</text><text style="position: absolute; color: #606060; font-size: 11px; cursor: default; fill: #606060" opacity="1" x="55" y="172" text-anchor="end">75</text><text style="position: absolute; color: #606060; font-size: 11px; cursor: default; fill: #606060" opacity="1" x="55" y="119.5" text-anchor="end">100</text><text style="position: absolute; color: #606060; font-size: 11px; cursor: default; fill: #606060" opacity="1" x="55" y="67" text-anchor="end">125</text><text style="position: absolute; color: #606060; font-size: 11px; cursor: default; fill: #606060" opacity="1" x="55" y="14.5" text-anchor="end">150</text></g><g style="padding-bottom: 0px; padding-left: 0px; padding-right: 0px; white-space: nowrap; cursor: default; padding-top: 0px" class="highcharts-tooltip"  transform="translate(0,-9999)"><path d="M 3 0 L 13 0 C 16 0 16 0 16 3 L 16 13 C 16 16 16 16 13 16 L 3 16 C 0 16 0 16 0 13 L 0 3 C 0 0 0 0 3 0"  fill="none" transform="translate(1, 1)" stroke="black" stroke-opacity="0.05" stroke-width="5"></path><path d="M 3 0 L 13 0 C 16 0 16 0 16 3 L 16 13 C 16 16 16 16 13 16 L 3 16 C 0 16 0 16 0 13 L 0 3 C 0 0 0 0 3 0"  fill="none" transform="translate(1, 1)" stroke="black" stroke-opacity="0.1" stroke-width="3"></path><path d="M 3 0 L 13 0 C 16 0 16 0 16 3 L 16 13 C 16 16 16 16 13 16 L 3 16 C 0 16 0 16 0 13 L 0 3 C 0 0 0 0 3 0"  fill="none" transform="translate(1, 1)" stroke="black" stroke-opacity="0.15" stroke-width="1"></path><path d="M 3 0 L 13 0 C 16 0 16 0 16 3 L 16 13 C 16 16 16 16 13 16 L 3 16 C 0 16 0 16 0 13 L 0 3 C 0 0 0 0 3 0" fill="rgb(249, 249, 249)" fill-opacity=" .85"></path><text style="position: absolute; color: #333333; font-size: 12px; fill: #333333" x="8"  y="21"></text></g><text style="position: absolute; color: #909090; font-size: 9px; cursor: pointer; fill: #909090" x="590"  y="395" text-anchor="end">Septnet</text></svg>