<svg xmlns:xlink="http://www.w3.org/1999/xlink" version="1.1" style="font-family:'lucida grande', 'lucida sans unicode', arial, helvetica, sans-serif;font-size:12px;" xmlns="http://www.w3.org/2000/svg" width="600" height="400"><desc>Created with Highcharts 4.0.3</desc><defs><clipPath id="highcharts-9"><rect x="0" y="0" width="515" height="312"></rect></clipPath></defs><rect x="0" y="0" width="600" height="400" strokeWidth="0" fill="#FFFFFF" class=" highcharts-background"></rect><g class="highcharts-grid" ></g><g class="highcharts-grid" ><path fill="none" d="M 75 9.5 L 590 9.5" stroke="#C0C0C0" stroke-width="1"  opacity="1"></path><path fill="none" d="M 75 62.5 L 590 62.5" stroke="#C0C0C0" stroke-width="1"  opacity="1"></path><path fill="none" d="M 75 114.5 L 590 114.5" stroke="#C0C0C0" stroke-width="1"  opacity="1"></path><path fill="none" d="M 75 166.5 L 590 166.5" stroke="#C0C0C0" stroke-width="1"  opacity="1"></path><path fill="none" d="M 75 218.5 L 590 218.5" stroke="#C0C0C0" stroke-width="1"  opacity="1"></path><path fill="none" d="M 75 270.5 L 590 270.5" stroke="#C0C0C0" stroke-width="1"  opacity="1"></path><path fill="none" d="M 75 322.5 L 590 322.5" stroke="#C0C0C0" stroke-width="1"  opacity="1"></path></g><g class="highcharts-axis" ><path fill="none" d="M 246.5 322 L 246.5 332" stroke="#C0D0E0" stroke-width="1" opacity="1"></path><path fill="none" d="M 332.5 322 L 332.5 332" stroke="#C0D0E0" stroke-width="1" opacity="1"></path><path fill="none" d="M 417.5 322 L 417.5 332" stroke="#C0D0E0" stroke-width="1" opacity="1"></path><path fill="none" d="M 503.5 322 L 503.5 332" stroke="#C0D0E0" stroke-width="1" opacity="1"></path><path fill="none" d="M 590.5 322 L 590.5 332" stroke="#C0D0E0" stroke-width="1" opacity="1"></path><path fill="none" d="M 160.5 322 L 160.5 332" stroke="#C0D0E0" stroke-width="1" opacity="1"></path><path fill="none" d="M 74.5 322 L 74.5 332" stroke="#C0D0E0" stroke-width="1" opacity="1"></path><path fill="none" d="M 75 322.5 L 590 322.5" stroke="#C0D0E0" stroke-width="1"  visibility="visible"></path></g><g class="highcharts-axis" ><text x="26"  text-anchor="middle" transform="translate(0,0) rotate(270 26 166)" class=" highcharts-yaxis-title" style="color:#707070;fill:#707070;" visibility="visible" y="166">成绩（分）</text></g><g class="highcharts-series-group" ><g class="highcharts-series" visibility="visible"  transform="translate(75,10) scale(1 1)" clip-path="url(#highcharts-9)"><rect x="19.5" y="125.5" width="21" height="187" fill="#999999" rx="0" ry="0" stroke="#FFFFFF" stroke-width="1"></rect><rect x="105.5" y="147.5" width="21" height="165" fill="#999999" rx="0" ry="0" stroke="#FFFFFF" stroke-width="1"></rect><rect x="190.5" y="146.5" width="21" height="166" fill="#999999" rx="0" ry="0" stroke="#FFFFFF" stroke-width="1"></rect><rect x="276.5" y="218.5" width="21" height="94" fill="#999999" rx="0" ry="0" stroke="#FFFFFF" stroke-width="1"></rect><rect x="362.5" y="213.5" width="21" height="99" fill="#999999" rx="0" ry="0" stroke="#FFFFFF" stroke-width="1"></rect><rect x="448.5" y="235.5" width="21" height="77" fill="#999999" rx="0" ry="0" stroke="#FFFFFF" stroke-width="1"></rect></g><g class="highcharts-markers" visibility="visible"  transform="translate(75,10) scale(1 1)" clip-path="none"></g><g class="highcharts-series" visibility="visible"  transform="translate(75,10) scale(1 1)" clip-path="url(#highcharts-9)"><rect x="44.5" y="94.5" width="21" height="218" fill="#7cb5ec" rx="0" ry="0" stroke="#FFFFFF" stroke-width="1"></rect><rect x="130.5" y="21.5" width="21" height="291" fill="#7cb5ec" rx="0" ry="0" stroke="#FFFFFF" stroke-width="1"></rect><rect x="216.5" y="75.5" width="21" height="237" fill="#7cb5ec" rx="0" ry="0" stroke="#FFFFFF" stroke-width="1"></rect><rect x="302.5" y="137.5" width="21" height="175" fill="#7cb5ec" rx="0" ry="0" stroke="#FFFFFF" stroke-width="1"></rect><rect x="388.5" y="131.5" width="21" height="181" fill="#7cb5ec" rx="0" ry="0" stroke="#FFFFFF" stroke-width="1"></rect><rect x="474.5" y="130.5" width="21" height="182" fill="#7cb5ec" rx="0" ry="0" stroke="#FFFFFF" stroke-width="1"></rect></g><g class="highcharts-markers" visibility="visible"  transform="translate(75,10) scale(1 1)" clip-path="none"></g><g class="highcharts-series" visibility="visible"  transform="translate(75,10) scale(1 1)" clip-path="url(#highcharts-9)"><path fill="none" d="M 42.916666666666664 145.6 L 128.75 195.51999999999998 L 214.58333333333331 126.88 L 300.4166666666667 251.68 L 386.25 222.56 L 472.0833333333333 240.24" stroke="#ff0000" stroke-width="2"  stroke-linejoin="round" stroke-linecap="round"></path></g><g class="highcharts-markers" visibility="visible"  transform="translate(75,10) scale(1 1)" clip-path="none"><path fill="#ff0000" d="M 472 236.24 C 477.328 236.24 477.328 244.24 472 244.24 C 466.672 244.24 466.672 236.24 472 236.24 Z"></path><path fill="#ff0000" d="M 386 218.56 C 391.328 218.56 391.328 226.56 386 226.56 C 380.672 226.56 380.672 218.56 386 218.56 Z"></path><path fill="#ff0000" d="M 300 247.68 C 305.328 247.68 305.328 255.68 300 255.68 C 294.672 255.68 294.672 247.68 300 247.68 Z"></path><path fill="#ff0000" d="M 214 122.88 C 219.328 122.88 219.328 130.88 214 130.88 C 208.672 130.88 208.672 122.88 214 122.88 Z"></path><path fill="#ff0000" d="M 128 191.51999999999998 C 133.328 191.51999999999998 133.328 199.51999999999998 128 199.51999999999998 C 122.672 199.51999999999998 122.672 191.51999999999998 128 191.51999999999998 Z"></path><path fill="#ff0000" d="M 42 141.6 C 47.328 141.6 47.328 149.6 42 149.6 C 36.672 149.6 36.672 141.6 42 141.6 Z"></path></g></g><g class="highcharts-legend"  transform="translate(102,366)"><g ><g><g class="highcharts-legend-item"  transform="translate(8,3)"><path fill="none" d="M 0 11 L 16 11" stroke="#ff0000" stroke-width="2"></path><path fill="#ff0000" d="M 8 7 C 13.328 7 13.328 15 8 15 C 2.6719999999999997 15 2.6719999999999997 7 8 7 Z"></path><text x="21" style="color:#333333;font-size:12px;font-weight:bold;cursor:pointer;fill:#333333;" text-anchor="start"  y="15">考生成绩</text></g><g class="highcharts-legend-item"  transform="translate(101,3)"><text x="21" y="15" style="color:#333333;font-size:12px;font-weight:bold;cursor:pointer;fill:#333333;" text-anchor="start" >考生单位学生平均分</text><rect x="0" y="4" width="16" height="12"  fill="#999999"></rect></g><g class="highcharts-legend-item"  transform="translate(259,3)"><text x="21" y="15" style="color:#333333;font-size:12px;font-weight:bold;cursor:pointer;fill:#333333;" text-anchor="start" >考生单位学生最高分</text><rect x="0" y="4" width="16" height="12"  fill="#7cb5ec"></rect></g></g></g></g><g class="highcharts-axis-labels highcharts-xaxis-labels" ><text x="117.91666666666666" text-anchor="middle" style="width:66px;color:#606060;cursor:default;font-size:11px;fill:#606060;" y="343" opacity="1">语文</text><text x="203.75" text-anchor="middle" style="width:66px;color:#606060;cursor:default;font-size:11px;fill:#606060;" y="343" opacity="1">数学</text><text x="289.5833333333333" text-anchor="middle" style="width:66px;color:#606060;cursor:default;font-size:11px;fill:#606060;" y="343" opacity="1">英语</text><text x="375.41666666666663" text-anchor="middle" style="width:66px;color:#606060;cursor:default;font-size:11px;fill:#606060;" y="343" opacity="1">物理</text><text x="461.25" text-anchor="middle" style="width:66px;color:#606060;cursor:default;font-size:11px;fill:#606060;" y="343" opacity="1">化学</text><text x="547.0833333333334" text-anchor="middle" style="width:66px;color:#606060;cursor:default;font-size:11px;fill:#606060;" y="343" opacity="1">生物</text></g><g class="highcharts-axis-labels highcharts-yaxis-labels" ><text x="60" text-anchor="end" style="width:178px;color:#606060;cursor:default;font-size:11px;fill:#606060;" y="327" opacity="1">0</text><text x="60" text-anchor="end" style="width:178px;color:#606060;cursor:default;font-size:11px;fill:#606060;" y="275" opacity="1">25</text><text x="60" text-anchor="end" style="width:178px;color:#606060;cursor:default;font-size:11px;fill:#606060;" y="223" opacity="1">50</text><text x="60" text-anchor="end" style="width:178px;color:#606060;cursor:default;font-size:11px;fill:#606060;" y="171" opacity="1">75</text><text x="60" text-anchor="end" style="width:178px;color:#606060;cursor:default;font-size:11px;fill:#606060;" y="119" opacity="1">100</text><text x="60" text-anchor="end" style="width:178px;color:#606060;cursor:default;font-size:11px;fill:#606060;" y="67" opacity="1">125</text><text x="60" text-anchor="end" style="width:178px;color:#606060;cursor:default;font-size:11px;fill:#606060;" y="15" opacity="1">150</text></g><g class="highcharts-tooltip"  style="cursor:default;padding:0;white-space:nowrap;" transform="translate(0,-9999)"><path fill="none" d="M 3 0 L 13 0 C 16 0 16 0 16 3 L 16 13 C 16 16 16 16 13 16 L 3 16 C 0 16 0 16 0 13 L 0 3 C 0 0 0 0 3 0"  stroke="black" stroke-opacity="0.049999999999999996" stroke-width="5" transform="translate(1, 1)"></path><path fill="none" d="M 3 0 L 13 0 C 16 0 16 0 16 3 L 16 13 C 16 16 16 16 13 16 L 3 16 C 0 16 0 16 0 13 L 0 3 C 0 0 0 0 3 0"  stroke="black" stroke-opacity="0.09999999999999999" stroke-width="3" transform="translate(1, 1)"></path><path fill="none" d="M 3 0 L 13 0 C 16 0 16 0 16 3 L 16 13 C 16 16 16 16 13 16 L 3 16 C 0 16 0 16 0 13 L 0 3 C 0 0 0 0 3 0"  stroke="black" stroke-opacity="0.15" stroke-width="1" transform="translate(1, 1)"></path><path fill="rgb(249, 249, 249)" fill-opacity=" .85" d="M 3 0 L 13 0 C 16 0 16 0 16 3 L 16 13 C 16 16 16 16 13 16 L 3 16 C 0 16 0 16 0 13 L 0 3 C 0 0 0 0 3 0"></path><text x="8"  style="font-size:12px;color:#333333;fill:#333333;" y="21"></text></g><text x="590" text-anchor="end"  style="cursor:pointer;color:#909090;font-size:9px;fill:#909090;" y="395">Septnet</text></svg>