<svg xmlns:xlink="http://www.w3.org/1999/xlink" version="1.1" style="font-family:'lucida grande', 'lucida sans unicode', arial, helvetica, sans-serif;font-size:12px;" xmlns="http://www.w3.org/2000/svg" width="600" height="400"><desc>Created with Highcharts 4.0.3</desc><defs><clipPath id="highcharts-7"><rect x="0" y="0" width="580" height="338"></rect></clipPath></defs><rect x="0" y="0" width="600" height="400" strokeWidth="0" fill="#FFFFFF" class=" highcharts-background"></rect><g class="highcharts-grid" ><path fill="none" d="M 300 179 L 424.4045492536346 250.825" stroke="#C0C0C0" stroke-width="1"  opacity="1"></path><path fill="none" d="M 300 179 L 300.00000000000006 322.65" stroke="#C0C0C0" stroke-width="1"  opacity="1"></path><path fill="none" d="M 300 179 L 175.5954507463654 250.82500000000005" stroke="#C0C0C0" stroke-width="1"  opacity="1"></path><path fill="none" d="M 300 179 L 175.59545074636537 107.17499999999997" stroke="#C0C0C0" stroke-width="1"  opacity="1"></path><path fill="none" d="M 300 179 L 300 35.349999999999994" stroke="#C0C0C0" stroke-width="1"  opacity="1"></path><path fill="none" d="M 300 179 L 424.40454925363457 107.17499999999991" stroke="#C0C0C0" stroke-width="1"  opacity="1"></path><path fill="none" d="M 300 179 L 424.4045492536346 107.175" stroke="#C0C0C0" stroke-width="1"  opacity="1"></path><path fill="none" d="M 300 179 L 300 35.349999999999994" stroke="#C0C0C0" stroke-width="1"  opacity="1"></path></g><g class="highcharts-grid" ><path fill="none" d="M 300 35.349999999999994 A 143.65 143.65 0 1 1 299.85635002394156 35.350071824994046 M 300 179 A 0 0 0 1 0 300 179 " stroke="#C0C0C0" stroke-width="1"  opacity="1"></path><path fill="none" d="M 300 83.23333333333333 A 95.76666666666667 95.76666666666667 0 1 1 299.9042333492944 83.2333812166627 M 300 179 A 0 0 0 1 0 300 179 " stroke="#C0C0C0" stroke-width="1"  opacity="1"></path><path fill="none" d="M 300 131.11666666666667 A 47.88333333333333 47.88333333333333 0 1 1 299.9521166746472 131.11669060833134 M 300 179 A 0 0 0 1 0 300 179 " stroke="#C0C0C0" stroke-width="1"  opacity="1"></path><path fill="none" stroke="#C0C0C0" stroke-width="1" ></path></g><g class="highcharts-axis" ><path fill="none" d="M 300 35.349999999999994 A 143.65 143.65 0 1 1 299.85635002394156 35.350071824994046 M 300 179 A 0 0 0 1 0 300 179 " stroke="#C0D0E0" stroke-width="1"  visibility="visible"></path></g><g class="highcharts-axis" ></g><g class="highcharts-series-group" ><g class="highcharts-series" visibility="visible"  transform="translate(10,10) scale(1 1)" clip-path="url(#highcharts-7)"><path fill="none" d="M 317.950503875969 120.5883071896709 L 348.9667853051874 169 L 329.03532608695656 236.6111680726275 L 256.78239027103564 226.5345877565606 L 259.32335492494343 169 L 259.58667392005157 116.32257400236976 L 317.950503875969 120.5883071896709" stroke="#ff0000" stroke-width="2"  stroke-linejoin="round" stroke-linecap="round"></path></g><g class="highcharts-markers" visibility="visible"  transform="translate(10,10) scale(1 1)" clip-path="none"><path fill="#ff0000" d="M 259 112.32257400236976 C 264.328 112.32257400236976 264.328 120.32257400236976 259 120.32257400236976 C 253.672 120.32257400236976 253.672 112.32257400236976 259 112.32257400236976 Z"></path><path fill="#ff0000" d="M 259 165 C 264.328 165 264.328 173 259 173 C 253.672 173 253.672 165 259 165 Z"></path><path fill="#ff0000" d="M 256 222.5345877565606 C 261.328 222.5345877565606 261.328 230.5345877565606 256 230.5345877565606 C 250.672 230.5345877565606 250.672 222.5345877565606 256 222.5345877565606 Z"></path><path fill="#ff0000" d="M 329 232.6111680726275 C 334.328 232.6111680726275 334.328 240.6111680726275 329 240.6111680726275 C 323.672 240.6111680726275 323.672 232.6111680726275 329 232.6111680726275 Z"></path><path fill="#ff0000" d="M 348 165 C 353.328 165 353.328 173 348 173 C 342.672 173 342.672 165 348 165 Z"></path><path fill="#ff0000" d="M 317 116.5883071896709 C 322.328 116.5883071896709 322.328 124.5883071896709 317 124.5883071896709 C 311.672 124.5883071896709 311.672 116.5883071896709 317 116.5883071896709 Z"></path></g><g class="highcharts-series" visibility="visible"  transform="translate(10,10) scale(1 1)" clip-path="url(#highcharts-7)"><path fill="none" d="M 313.94166666666666 127.53181691545512 L 337.8833333333333 169 L 313.94166666666666 210.46818308454485 L 266.05833333333334 210.46818308454488 L 242.11666666666667 169 L 266.05833333333334 127.53181691545515 L 313.94166666666666 127.53181691545512" stroke="#999999" stroke-width="2"  stroke-linejoin="round" stroke-linecap="round"></path></g><g class="highcharts-markers" visibility="visible"  transform="translate(10,10) scale(1 1)" clip-path="none"><path fill="#999999" d="M 266 123.53181691545515 L 270 127.53181691545515 266 131.53181691545515 262 127.53181691545515 Z"></path><path fill="#999999" d="M 242 165 L 246 169 242 173 238 169 Z"></path><path fill="#999999" d="M 266 206.46818308454488 L 270 210.46818308454488 266 214.46818308454488 262 210.46818308454488 Z"></path><path fill="#999999" d="M 313 206.46818308454485 L 317 210.46818308454485 313 214.46818308454485 309 210.46818308454485 Z"></path><path fill="#999999" d="M 337 165 L 341 169 337 173 333 169 Z"></path><path fill="#999999" d="M 313 123.53181691545512 L 317 127.53181691545512 313 131.53181691545512 309 127.53181691545512 Z"></path></g><g class="highcharts-series" visibility="visible"  transform="translate(10,10) scale(1 1)" clip-path="url(#highcharts-7)"><path fill="none" d="M 349.96552325581393 65.13666701847717 L 391.279009163803 169 L 349.1236810322909 271.4052194784241 L 245.16022198624597 246.66477371993187 L 186.9518764137364 169 L 243.37858236621528 88.2493359373974 L 349.96552325581393 65.13666701847717" stroke="#7cb5ec" stroke-width="2"  stroke-linejoin="round" stroke-linecap="round"></path></g><g class="highcharts-markers" visibility="visible"  transform="translate(10,10) scale(1 1)" clip-path="none"><path fill="#7cb5ec" d="M 239 84.2493359373974 L 247 84.2493359373974 247 92.2493359373974 239 92.2493359373974 Z"></path><path fill="#7cb5ec" d="M 182 165 L 190 165 190 173 182 173 Z"></path><path fill="#7cb5ec" d="M 241 242.66477371993187 L 249 242.66477371993187 249 250.66477371993187 241 250.66477371993187 Z"></path><path fill="#7cb5ec" d="M 345 267.4052194784241 L 353 267.4052194784241 353 275.4052194784241 345 275.4052194784241 Z"></path><path fill="#7cb5ec" d="M 387 165 L 395 165 395 173 387 173 Z"></path><path fill="#7cb5ec" d="M 345 61.13666701847717 L 353 61.13666701847717 353 69.13666701847717 345 69.13666701847717 Z"></path></g></g><g class="highcharts-legend"  transform="translate(161,368)"><g ><g><g class="highcharts-legend-item"  transform="translate(8,3)"><path fill="none" d="M 0 11 L 16 11" stroke="#ff0000" stroke-width="2"></path><path fill="#ff0000" d="M 8 7 C 13.328 7 13.328 15 8 15 C 2.6719999999999997 15 2.6719999999999997 7 8 7 Z"></path><text x="21" style="color:#333333;font-size:12px;font-weight:bold;cursor:pointer;fill:#333333;" text-anchor="start"  y="15">考生位置</text></g><g class="highcharts-legend-item"  transform="translate(97,3)"><path fill="none" d="M 0 11 L 16 11" stroke="#999999" stroke-width="2"></path><path fill="#999999" d="M 8 7 L 12 11 8 15 4 11 Z"></path><text x="21" y="15" style="color:#333333;font-size:12px;font-weight:bold;cursor:pointer;fill:#333333;" text-anchor="start" >平均分位置</text></g><g class="highcharts-legend-item"  transform="translate(198,3)"><path fill="none" d="M 0 11 L 16 11" stroke="#7cb5ec" stroke-width="2"></path><path fill="#7cb5ec" d="M 4 7 L 12 7 12 15 4 15 Z"></path><text x="21" y="15" style="color:#333333;font-size:12px;font-weight:bold;cursor:pointer;fill:#333333;" text-anchor="start" >最高分位置</text></g></g></g></g><g class="highcharts-axis-labels highcharts-xaxis-labels" ><text x="379.325" text-anchor="start" style="width:63px;color:#606060;cursor:default;font-size:11px;fill:#606060;" y="47.60506968959879" opacity="1">语文</text><text x="458.65" text-anchor="start" style="width:63px;color:#606060;cursor:default;font-size:11px;fill:#606060;" y="185" opacity="1">数学</text><text x="379.32500000000005" text-anchor="start" style="width:63px;color:#606060;cursor:default;font-size:11px;fill:#606060;" y="322.39493031040115" opacity="1">英语</text><text x="220.67500000000004" text-anchor="end" style="width:63px;color:#606060;cursor:default;font-size:11px;fill:#606060;" y="322.39493031040126" opacity="1">物理</text><text x="141.35" text-anchor="end" style="width:63px;color:#606060;cursor:default;font-size:11px;fill:#606060;" y="185.00000000000003" opacity="1">化学</text><text x="220.6749999999999" text-anchor="end" style="width:63px;color:#606060;cursor:default;font-size:11px;fill:#606060;" y="47.60506968959885" opacity="1">生物</text><text x="0" text-anchor="start" style="width:63px;color:#606060;cursor:default;font-size:11px;fill:#606060;" y="-9999">6</text></g><g class="highcharts-axis-labels highcharts-yaxis-labels" ><text x="297" text-anchor="end" style="width:178px;color:#606060;cursor:default;font-size:11px;fill:#606060;" y="177" opacity="1">-2</text><text x="297" text-anchor="end" style="width:178px;color:#606060;cursor:default;font-size:11px;fill:#606060;" y="129.11666666666667" opacity="1">0</text><text x="297" text-anchor="end" style="width:178px;color:#606060;cursor:default;font-size:11px;fill:#606060;" y="81.23333333333333" opacity="1">2</text><text x="0" text-anchor="end" style="width:178px;color:#606060;cursor:default;font-size:11px;fill:#606060;" y="-9999">4</text></g><g class="highcharts-tooltip"  style="cursor:default;padding:0;white-space:nowrap;" transform="translate(0,-9999)"><path fill="none" d="M 3 0 L 13 0 C 16 0 16 0 16 3 L 16 13 C 16 16 16 16 13 16 L 3 16 C 0 16 0 16 0 13 L 0 3 C 0 0 0 0 3 0"  stroke="black" stroke-opacity="0.049999999999999996" stroke-width="5" transform="translate(1, 1)"></path><path fill="none" d="M 3 0 L 13 0 C 16 0 16 0 16 3 L 16 13 C 16 16 16 16 13 16 L 3 16 C 0 16 0 16 0 13 L 0 3 C 0 0 0 0 3 0"  stroke="black" stroke-opacity="0.09999999999999999" stroke-width="3" transform="translate(1, 1)"></path><path fill="none" d="M 3 0 L 13 0 C 16 0 16 0 16 3 L 16 13 C 16 16 16 16 13 16 L 3 16 C 0 16 0 16 0 13 L 0 3 C 0 0 0 0 3 0"  stroke="black" stroke-opacity="0.15" stroke-width="1" transform="translate(1, 1)"></path><path fill="rgb(249, 249, 249)" fill-opacity=" .85" d="M 3 0 L 13 0 C 16 0 16 0 16 3 L 16 13 C 16 16 16 16 13 16 L 3 16 C 0 16 0 16 0 13 L 0 3 C 0 0 0 0 3 0"></path><text x="8"  style="font-size:12px;color:#333333;fill:#333333;" y="21"></text></g><text x="590" text-anchor="end"  style="cursor:pointer;color:#909090;font-size:9px;fill:#909090;" y="395">Septnet</text></svg>