<svg xmlns:xlink="http://www.w3.org/1999/xlink" version="1.1" style="font-family:'lucida grande', 'lucida sans unicode', arial, helvetica, sans-serif;font-size:12px;" xmlns="http://www.w3.org/2000/svg" width="600" height="400"><desc>Created with Highcharts 4.0.3</desc><defs><clipPath id="highcharts-20"><rect x="0" y="0" width="580" height="340"></rect></clipPath></defs><rect x="0" y="0" width="600" height="400" strokeWidth="0" fill="#FFFFFF" class=" highcharts-background"></rect><g class="highcharts-grid" ><path fill="none" d="M 300 180 L 425.1406708468514 252.24999999999997" stroke="#C0C0C0" stroke-width="1"  opacity="1"></path><path fill="none" d="M 300 180 L 300.00000000000006 324.5" stroke="#C0C0C0" stroke-width="1"  opacity="1"></path><path fill="none" d="M 300 180 L 174.85932915314862 252.25000000000006" stroke="#C0C0C0" stroke-width="1"  opacity="1"></path><path fill="none" d="M 300 180 L 174.85932915314862 107.74999999999999" stroke="#C0C0C0" stroke-width="1"  opacity="1"></path><path fill="none" d="M 300 180 L 300 35.5" stroke="#C0C0C0" stroke-width="1"  opacity="1"></path><path fill="none" d="M 300 180 L 425.1406708468513 107.74999999999993" stroke="#C0C0C0" stroke-width="1"  opacity="1"></path><path fill="none" d="M 300 180 L 425.1406708468514 107.75" stroke="#C0C0C0" stroke-width="1"  opacity="1"></path><path fill="none" d="M 300 180 L 300 35.5" stroke="#C0C0C0" stroke-width="1"  opacity="1"></path></g><g class="highcharts-grid" ><path fill="none" d="M 300 35.5 A 144.5 144.5 0 1 1 299.85550002408326 35.50007224999399 M 300 180 A 0 0 0 1 0 300 180 " stroke="#C0C0C0" stroke-width="1"  opacity="1"></path><path fill="none" d="M 300 83.66666666666667 A 96.33333333333333 96.33333333333333 0 1 1 299.9036666827222 83.66671483332932 M 300 180 A 0 0 0 1 0 300 180 " stroke="#C0C0C0" stroke-width="1"  opacity="1"></path><path fill="none" d="M 300 131.83333333333334 A 48.166666666666664 48.166666666666664 0 1 1 299.95183334136107 131.83335741666465 M 300 180 A 0 0 0 1 0 300 180 " stroke="#C0C0C0" stroke-width="1"  opacity="1"></path><path fill="none" stroke="#C0C0C0" stroke-width="1" ></path></g><g class="highcharts-axis" ><path fill="none" d="M 300 35.5 A 144.5 144.5 0 1 1 299.85550002408326 35.50007224999399 M 300 180 A 0 0 0 1 0 300 180 " stroke="#C0D0E0" stroke-width="1"  visibility="visible"></path></g><g class="highcharts-axis" ></g><g class="highcharts-series-group" ><g class="highcharts-series" visibility="visible"  transform="translate(10,10) scale(1 1)" clip-path="url(#highcharts-20)"><path fill="none" d="M 333.70101214574896 94.30762662137815 L 349.6919926969223 170 L 333.5814249363868 245.4852422560711 L 259.01632221700334 223.66530412549332 L 220.83319597069595 170 L 257.27883323738246 113.32527668421241 L 333.70101214574896 94.30762662137815" stroke="#ff0000" stroke-width="2"  stroke-linejoin="round" stroke-linecap="round"></path></g><g class="highcharts-markers" visibility="visible"  transform="translate(10,10) scale(1 1)" clip-path="none"><path fill="#ff0000" d="M 257 109.32527668421241 C 262.328 109.32527668421241 262.328 117.32527668421241 257 117.32527668421241 C 251.672 117.32527668421241 251.672 109.32527668421241 257 109.32527668421241 Z"></path><path fill="#ff0000" d="M 220 166 C 225.328 166 225.328 174 220 174 C 214.672 174 214.672 166 220 166 Z"></path><path fill="#ff0000" d="M 259 219.66530412549332 C 264.328 219.66530412549332 264.328 227.66530412549332 259 227.66530412549332 C 253.672 227.66530412549332 253.672 219.66530412549332 259 219.66530412549332 Z"></path><path fill="#ff0000" d="M 333 241.4852422560711 C 338.328 241.4852422560711 338.328 249.4852422560711 333 249.4852422560711 C 327.672 249.4852422560711 327.672 241.4852422560711 333 241.4852422560711 Z"></path><path fill="#ff0000" d="M 349 166 C 354.328 166 354.328 174 349 174 C 343.672 174 343.672 166 349 166 Z"></path><path fill="#ff0000" d="M 333 90.30762662137815 C 338.328 90.30762662137815 338.328 98.30762662137815 333 98.30762662137815 C 327.672 98.30762662137815 327.672 90.30762662137815 333 90.30762662137815 Z"></path></g><g class="highcharts-series" visibility="visible"  transform="translate(10,10) scale(1 1)" clip-path="url(#highcharts-20)"><path fill="none" d="M 314.0833333333333 128.28644305104956 L 338.16666666666663 170 L 314.08333333333337 211.71355694895044 L 265.9166666666667 211.71355694895044 L 241.83333333333334 170 L 265.91666666666663 128.28644305104956 L 314.0833333333333 128.28644305104956" stroke="#999999" stroke-width="2"  stroke-linejoin="round" stroke-linecap="round"></path></g><g class="highcharts-markers" visibility="visible"  transform="translate(10,10) scale(1 1)" clip-path="none"><path fill="#999999" d="M 265 124.28644305104956 L 269 128.28644305104956 265 132.28644305104956 261 128.28644305104956 Z"></path><path fill="#999999" d="M 241 166 L 245 170 241 174 237 170 Z"></path><path fill="#999999" d="M 265 207.71355694895044 L 269 211.71355694895044 265 215.71355694895044 261 211.71355694895044 Z"></path><path fill="#999999" d="M 314 207.71355694895044 L 318 211.71355694895044 314 215.71355694895044 310 211.71355694895044 Z"></path><path fill="#999999" d="M 338 166 L 342 170 338 174 334 170 Z"></path><path fill="#999999" d="M 314 124.28644305104956 L 318 128.28644305104956 314 132.28644305104956 310 128.28644305104956 Z"></path></g><g class="highcharts-series" visibility="visible"  transform="translate(10,10) scale(1 1)" clip-path="url(#highcharts-20)"><path fill="none" d="M 352.22665317139 62.220275122185484 L 392.6575639019301 170 L 344.1253180661578 263.7478008664109 L 236.95784405824332 261.871709034114 L 174.5190934065934 170 L 229.5490308961811 65.29585014540936 L 352.22665317139 62.220275122185484" stroke="#7cb5ec" stroke-width="2"  stroke-linejoin="round" stroke-linecap="round"></path></g><g class="highcharts-markers" visibility="visible"  transform="translate(10,10) scale(1 1)" clip-path="none"><path fill="#7cb5ec" d="M 225 61.29585014540936 L 233 61.29585014540936 233 69.29585014540936 225 69.29585014540936 Z"></path><path fill="#7cb5ec" d="M 170 166 L 178 166 178 174 170 174 Z"></path><path fill="#7cb5ec" d="M 232 257.871709034114 L 240 257.871709034114 240 265.871709034114 232 265.871709034114 Z"></path><path fill="#7cb5ec" d="M 340 259.7478008664109 L 348 259.7478008664109 348 267.7478008664109 340 267.7478008664109 Z"></path><path fill="#7cb5ec" d="M 388 166 L 396 166 396 174 388 174 Z"></path><path fill="#7cb5ec" d="M 348 58.220275122185484 L 356 58.220275122185484 356 66.22027512218548 348 66.22027512218548 Z"></path></g></g><g class="highcharts-legend"  transform="translate(154,370)"><g ><g><g class="highcharts-legend-item"  transform="translate(8,3)"><path fill="none" d="M 0 11 L 16 11" stroke="#ff0000" stroke-width="2"></path><path fill="#ff0000" d="M 8 7 C 13.328 7 13.328 15 8 15 C 2.6719999999999997 15 2.6719999999999997 7 8 7 Z"></path><text x="21" style="color:#333333;font-size:12px;font-weight:bold;cursor:pointer;fill:#333333;" text-anchor="start"  y="15">考生位置</text></g><g class="highcharts-legend-item"  transform="translate(101,3)"><path fill="none" d="M 0 11 L 16 11" stroke="#999999" stroke-width="2"></path><path fill="#999999" d="M 8 7 L 12 11 8 15 4 11 Z"></path><text x="21" y="15" style="color:#333333;font-size:12px;font-weight:bold;cursor:pointer;fill:#333333;" text-anchor="start" >平均分位置</text></g><g class="highcharts-legend-item"  transform="translate(207,3)"><path fill="none" d="M 0 11 L 16 11" stroke="#7cb5ec" stroke-width="2"></path><path fill="#7cb5ec" d="M 4 7 L 12 7 12 15 4 15 Z"></path><text x="21" y="15" style="color:#333333;font-size:12px;font-weight:bold;cursor:pointer;fill:#333333;" text-anchor="start" >最高分位置</text></g></g></g></g><g class="highcharts-axis-labels highcharts-xaxis-labels" ><text x="379.75" text-anchor="start" style="width:63px;color:#606060;cursor:default;font-size:11px;fill:#606060;" y="47.86894809638201" opacity="1">语文</text><text x="459.5" text-anchor="start" style="width:63px;color:#606060;cursor:default;font-size:11px;fill:#606060;" y="186" opacity="1">数学</text><text x="379.75000000000006" text-anchor="start" style="width:63px;color:#606060;cursor:default;font-size:11px;fill:#606060;" y="324.13105190361796" opacity="1">英语</text><text x="220.25000000000003" text-anchor="end" style="width:63px;color:#606060;cursor:default;font-size:11px;fill:#606060;" y="324.13105190361796" opacity="1">物理</text><text x="140.5" text-anchor="end" style="width:63px;color:#606060;cursor:default;font-size:11px;fill:#606060;" y="186.00000000000003" opacity="1">化学</text><text x="220.24999999999994" text-anchor="end" style="width:63px;color:#606060;cursor:default;font-size:11px;fill:#606060;" y="47.86894809638207" opacity="1">生物</text><text x="0" text-anchor="start" style="width:63px;color:#606060;cursor:default;font-size:11px;fill:#606060;" y="-9999">6</text></g><g class="highcharts-axis-labels highcharts-yaxis-labels" ><text x="297" text-anchor="end" style="width:178px;color:#606060;cursor:default;font-size:11px;fill:#606060;" y="178" opacity="1">-2</text><text x="297" text-anchor="end" style="width:178px;color:#606060;cursor:default;font-size:11px;fill:#606060;" y="129.83333333333334" opacity="1">0</text><text x="297" text-anchor="end" style="width:178px;color:#606060;cursor:default;font-size:11px;fill:#606060;" y="81.66666666666667" opacity="1">2</text><text x="0" text-anchor="end" style="width:178px;color:#606060;cursor:default;font-size:11px;fill:#606060;" y="-9999">4</text></g><g class="highcharts-tooltip"  style="cursor:default;padding:0;white-space:nowrap;" transform="translate(0,-9999)"><path fill="none" d="M 3 0 L 13 0 C 16 0 16 0 16 3 L 16 13 C 16 16 16 16 13 16 L 3 16 C 0 16 0 16 0 13 L 0 3 C 0 0 0 0 3 0"  stroke="black" stroke-opacity="0.049999999999999996" stroke-width="5" transform="translate(1, 1)"></path><path fill="none" d="M 3 0 L 13 0 C 16 0 16 0 16 3 L 16 13 C 16 16 16 16 13 16 L 3 16 C 0 16 0 16 0 13 L 0 3 C 0 0 0 0 3 0"  stroke="black" stroke-opacity="0.09999999999999999" stroke-width="3" transform="translate(1, 1)"></path><path fill="none" d="M 3 0 L 13 0 C 16 0 16 0 16 3 L 16 13 C 16 16 16 16 13 16 L 3 16 C 0 16 0 16 0 13 L 0 3 C 0 0 0 0 3 0"  stroke="black" stroke-opacity="0.15" stroke-width="1" transform="translate(1, 1)"></path><path fill="rgb(249, 249, 249)" fill-opacity=" .85" d="M 3 0 L 13 0 C 16 0 16 0 16 3 L 16 13 C 16 16 16 16 13 16 L 3 16 C 0 16 0 16 0 13 L 0 3 C 0 0 0 0 3 0"></path><text x="8"  style="font-size:12px;color:#333333;fill:#333333;" y="21"></text></g><text x="590" text-anchor="end"  style="cursor:pointer;color:#909090;font-size:9px;fill:#909090;" y="395">Septnet</text></svg>