<svg xmlns:xlink="http://www.w3.org/1999/xlink" version="1.1" style="font-family:'lucida grande', 'lucida sans unicode', arial, helvetica, sans-serif;font-size:12px;" xmlns="http://www.w3.org/2000/svg" width="600" height="400"><desc>Created with Highcharts 4.0.3</desc><defs><clipPath id="highcharts-7"><rect x="0" y="0" width="580" height="338"></rect></clipPath></defs><rect x="0" y="0" width="600" height="400" strokeWidth="0" fill="#FFFFFF" class=" highcharts-background"></rect><g class="highcharts-grid" ><path fill="none" d="M 300 179 L 440.048394584919 210.96513216282457" stroke="#C0C0C0" stroke-width="1"  opacity="1"></path><path fill="none" d="M 300 179 L 362.3273991242372 308.42417787418253" stroke="#C0C0C0" stroke-width="1"  opacity="1"></path><path fill="none" d="M 300 179 L 237.67260087576278 308.42417787418253" stroke="#C0C0C0" stroke-width="1"  opacity="1"></path><path fill="none" d="M 300 179 L 159.95160541508102 210.96513216282457" stroke="#C0C0C0" stroke-width="1"  opacity="1"></path><path fill="none" d="M 300 179 L 187.68990754346748 89.43568996299295" stroke="#C0C0C0" stroke-width="1"  opacity="1"></path><path fill="none" d="M 300 179 L 300 35.349999999999994" stroke="#C0C0C0" stroke-width="1"  opacity="1"></path><path fill="none" d="M 300 179 L 412.31009245653246 89.4356899629929" stroke="#C0C0C0" stroke-width="1"  opacity="1"></path><path fill="none" d="M 300 179 L 412.3100924565325 89.43568996299292" stroke="#C0C0C0" stroke-width="1"  opacity="1"></path><path fill="none" d="M 300 179 L 300 35.349999999999994" stroke="#C0C0C0" stroke-width="1"  opacity="1"></path></g><g class="highcharts-grid" ><path fill="none" d="M 300 35.349999999999994 A 143.65 143.65 0 1 1 299.8563500239416 35.35007182499402 M 300 179 A 0 0 0 1 0 300 179 " stroke="#C0C0C0" stroke-width="1"  opacity="1"></path><path fill="none" d="M 300 83.23333333333333 A 95.76666666666667 95.76666666666667 0 1 1 299.9042333492944 83.23338121666268 M 300 179 A 0 0 0 1 0 300 179 " stroke="#C0C0C0" stroke-width="1"  opacity="1"></path><path fill="none" d="M 300 131.11666666666667 A 47.88333333333333 47.88333333333333 0 1 1 299.9521166746472 131.11669060833134 M 300 179 A 0 0 0 1 0 300 179 " stroke="#C0C0C0" stroke-width="1"  opacity="1"></path><path fill="none" stroke="#C0C0C0" stroke-width="1" ></path></g><g class="highcharts-axis" ><path fill="none" d="M 300 35.349999999999994 A 143.65 143.65 0 1 1 299.8563500239416 35.35007182499402 M 300 179 A 0 0 0 1 0 300 179 " stroke="#C0D0E0" stroke-width="1"  visibility="visible"></path></g><g class="highcharts-axis" ></g><g class="highcharts-series-group" ><g class="highcharts-series" visibility="visible"  transform="translate(10,10) scale(1 1)" clip-path="url(#highcharts-7)"><path fill="none" d="M 311.75544893744865 123.82434478935096 L 360.3267375028116 152.9483810898342 L 333.08265967254 203.35727461112774 L 290 243.62699911738747 L 234.35262552241215 213.37730030705018 L 218.89028059601938 152.76967058032682 L 259.16369159441865 104.96774580450695 L 311.75544893744865 123.82434478935096" stroke="#ff0000" stroke-width="2"  stroke-linejoin="round" stroke-linecap="round"></path></g><g class="highcharts-markers" visibility="visible"  transform="translate(10,10) scale(1 1)" clip-path="none"><path fill="#ff0000" d="M 259 100.96774580450695 C 264.328 100.96774580450695 264.328 108.96774580450695 259 108.96774580450695 C 253.672 108.96774580450695 253.672 100.96774580450695 259 100.96774580450695 Z"></path><path fill="#ff0000" d="M 218 148.76967058032682 C 223.328 148.76967058032682 223.328 156.76967058032682 218 156.76967058032682 C 212.672 156.76967058032682 212.672 148.76967058032682 218 148.76967058032682 Z"></path><path fill="#ff0000" d="M 234 209.37730030705018 C 239.328 209.37730030705018 239.328 217.37730030705018 234 217.37730030705018 C 228.672 217.37730030705018 228.672 209.37730030705018 234 209.37730030705018 Z"></path><path fill="#ff0000" d="M 290 239.62699911738747 C 295.328 239.62699911738747 295.328 247.62699911738747 290 247.62699911738747 C 284.672 247.62699911738747 284.672 239.62699911738747 290 239.62699911738747 Z"></path><path fill="#ff0000" d="M 333 199.35727461112774 C 338.328 199.35727461112774 338.328 207.35727461112774 333 207.35727461112774 C 327.672 207.35727461112774 327.672 199.35727461112774 333 199.35727461112774 Z"></path><path fill="#ff0000" d="M 360 148.9483810898342 C 365.328 148.9483810898342 365.328 156.9483810898342 360 156.9483810898342 C 354.672 156.9483810898342 354.672 148.9483810898342 360 148.9483810898342 Z"></path><path fill="#ff0000" d="M 311 119.82434478935096 C 316.328 119.82434478935096 316.328 127.82434478935096 311 127.82434478935096 C 305.672 127.82434478935096 305.672 119.82434478935096 311 119.82434478935096 Z"></path></g><g class="highcharts-series" visibility="visible"  transform="translate(10,10) scale(1 1)" clip-path="url(#highcharts-7)"><path fill="none" d="M 310.7757997080791 125.8586073752725 L 336.682798194973 158.34495594572513 L 327.4366974855108 198.85477001233568 L 290 216.88333333333333 L 252.56330251448918 198.85477001233568 L 243.31720180502703 158.34495594572516 L 269.2242002919209 125.8586073752725 L 310.7757997080791 125.8586073752725" stroke="#999999" stroke-width="2"  stroke-linejoin="round" stroke-linecap="round"></path></g><g class="highcharts-markers" visibility="visible"  transform="translate(10,10) scale(1 1)" clip-path="none"><path fill="#999999" d="M 269 121.8586073752725 L 273 125.8586073752725 269 129.8586073752725 265 125.8586073752725 Z"></path><path fill="#999999" d="M 243 154.34495594572516 L 247 158.34495594572516 243 162.34495594572516 239 158.34495594572516 Z"></path><path fill="#999999" d="M 252 194.85477001233568 L 256 198.85477001233568 252 202.85477001233568 248 198.85477001233568 Z"></path><path fill="#999999" d="M 290 212.88333333333333 L 294 216.88333333333333 290 220.88333333333333 286 216.88333333333333 Z"></path><path fill="#999999" d="M 327 194.85477001233568 L 331 198.85477001233568 327 202.85477001233568 323 198.85477001233568 Z"></path><path fill="#999999" d="M 336 154.34495594572513 L 340 158.34495594572513 336 162.34495594572513 332 158.34495594572513 Z"></path><path fill="#999999" d="M 310 121.8586073752725 L 314 125.8586073752725 310 129.8586073752725 306 125.8586073752725 Z"></path></g><g class="highcharts-series" visibility="visible"  transform="translate(10,10) scale(1 1)" clip-path="url(#highcharts-7)"><path fill="none" d="M 334.0202041503934 77.59110420022574 L 373.3444039243378 149.9771836773331 L 362.67000775499855 226.95239735448925 L 290 268.139208590762 L 221.251419053292 223.8251638284275 L 176.11108408287117 143.0055981365469 L 241.80949871030046 68.93139296039216 L 334.0202041503934 77.59110420022574" stroke="#7cb5ec" stroke-width="2"  stroke-linejoin="round" stroke-linecap="round"></path></g><g class="highcharts-markers" visibility="visible"  transform="translate(10,10) scale(1 1)" clip-path="none"><path fill="#7cb5ec" d="M 237 64.93139296039216 L 245 64.93139296039216 245 72.93139296039216 237 72.93139296039216 Z"></path><path fill="#7cb5ec" d="M 172 139.0055981365469 L 180 139.0055981365469 180 147.0055981365469 172 147.0055981365469 Z"></path><path fill="#7cb5ec" d="M 217 219.8251638284275 L 225 219.8251638284275 225 227.8251638284275 217 227.8251638284275 Z"></path><path fill="#7cb5ec" d="M 286 264.139208590762 L 294 264.139208590762 294 272.139208590762 286 272.139208590762 Z"></path><path fill="#7cb5ec" d="M 358 222.95239735448925 L 366 222.95239735448925 366 230.95239735448925 358 230.95239735448925 Z"></path><path fill="#7cb5ec" d="M 369 145.9771836773331 L 377 145.9771836773331 377 153.9771836773331 369 153.9771836773331 Z"></path><path fill="#7cb5ec" d="M 330 73.59110420022574 L 338 73.59110420022574 338 81.59110420022574 330 81.59110420022574 Z"></path></g></g><g class="highcharts-legend"  transform="translate(161,368)"><g ><g><g class="highcharts-legend-item"  transform="translate(8,3)"><path fill="none" d="M 0 11 L 16 11" stroke="#ff0000" stroke-width="2"></path><path fill="#ff0000" d="M 8 7 C 13.328 7 13.328 15 8 15 C 2.6719999999999997 15 2.6719999999999997 7 8 7 Z"></path><text x="21" style="color:#333333;font-size:12px;font-weight:bold;cursor:pointer;fill:#333333;" text-anchor="start"  y="15">考生位置</text></g><g class="highcharts-legend-item"  transform="translate(97,3)"><path fill="none" d="M 0 11 L 16 11" stroke="#999999" stroke-width="2"></path><path fill="#999999" d="M 8 7 L 12 11 8 15 4 11 Z"></path><text x="21" y="15" style="color:#333333;font-size:12px;font-weight:bold;cursor:pointer;fill:#333333;" text-anchor="start" >平均分位置</text></g><g class="highcharts-legend-item"  transform="translate(198,3)"><path fill="none" d="M 0 11 L 16 11" stroke="#7cb5ec" stroke-width="2"></path><path fill="#7cb5ec" d="M 4 7 L 12 7 12 15 4 15 Z"></path><text x="21" y="15" style="color:#333333;font-size:12px;font-weight:bold;cursor:pointer;fill:#333333;" text-anchor="start" >最高分位置</text></g></g></g></g><g class="highcharts-axis-labels highcharts-xaxis-labels" ><text x="368.8356552110006" text-anchor="start" style="width:53px;color:#606060;cursor:default;font-size:11px;fill:#606060;" y="41.8112891072812" opacity="1">语文</text><text x="454.67231326764636" text-anchor="start" style="width:53px;color:#606060;cursor:default;font-size:11px;fill:#606060;" y="149.44705382783073" opacity="1">数学</text><text x="424.03756469355295" text-anchor="start" style="width:53px;color:#606060;cursor:default;font-size:11px;fill:#606060;" y="283.66665706488806" opacity="1">英语</text><text x="300" text-anchor="middle" style="width:53px;color:#606060;cursor:default;font-size:11px;fill:#606060;" y="343.4" opacity="1">物理</text><text x="175.96243530644705" text-anchor="end" style="width:53px;color:#606060;cursor:default;font-size:11px;fill:#606060;" y="283.6666570648881" opacity="1">化学</text><text x="145.32768673235367" text-anchor="end" style="width:53px;color:#606060;cursor:default;font-size:11px;fill:#606060;" y="149.44705382783073" opacity="1">生物</text><text x="231.16434478899936" text-anchor="end" style="width:53px;color:#606060;cursor:default;font-size:11px;fill:#606060;" y="41.811289107281226" opacity="1">文科综合</text><text x="0" text-anchor="start" style="width:53px;color:#606060;cursor:default;font-size:11px;fill:#606060;" y="-9999">7</text></g><g class="highcharts-axis-labels highcharts-yaxis-labels" ><text x="297" text-anchor="end" style="width:178px;color:#606060;cursor:default;font-size:11px;fill:#606060;" y="129.11666666666667" opacity="1">0</text><text x="297" text-anchor="end" style="width:178px;color:#606060;cursor:default;font-size:11px;fill:#606060;" y="177" opacity="1">-2.5</text><text x="297" text-anchor="end" style="width:178px;color:#606060;cursor:default;font-size:11px;fill:#606060;" y="81.23333333333333" opacity="1">2.5</text><text x="0" text-anchor="end" style="width:178px;color:#606060;cursor:default;font-size:11px;fill:#606060;" y="-9999">5</text></g><g class="highcharts-tooltip"  style="cursor:default;padding:0;white-space:nowrap;" transform="translate(0,-9999)"><path fill="none" d="M 3 0 L 13 0 C 16 0 16 0 16 3 L 16 13 C 16 16 16 16 13 16 L 3 16 C 0 16 0 16 0 13 L 0 3 C 0 0 0 0 3 0"  stroke="black" stroke-opacity="0.049999999999999996" stroke-width="5" transform="translate(1, 1)"></path><path fill="none" d="M 3 0 L 13 0 C 16 0 16 0 16 3 L 16 13 C 16 16 16 16 13 16 L 3 16 C 0 16 0 16 0 13 L 0 3 C 0 0 0 0 3 0"  stroke="black" stroke-opacity="0.09999999999999999" stroke-width="3" transform="translate(1, 1)"></path><path fill="none" d="M 3 0 L 13 0 C 16 0 16 0 16 3 L 16 13 C 16 16 16 16 13 16 L 3 16 C 0 16 0 16 0 13 L 0 3 C 0 0 0 0 3 0"  stroke="black" stroke-opacity="0.15" stroke-width="1" transform="translate(1, 1)"></path><path fill="rgb(249, 249, 249)" fill-opacity=" .85" d="M 3 0 L 13 0 C 16 0 16 0 16 3 L 16 13 C 16 16 16 16 13 16 L 3 16 C 0 16 0 16 0 13 L 0 3 C 0 0 0 0 3 0"></path><text x="8"  style="font-size:12px;color:#333333;fill:#333333;" y="21"></text></g><text x="590" text-anchor="end"  style="cursor:pointer;color:#909090;font-size:9px;fill:#909090;" y="395">Septnet</text></svg>