<svg xmlns:xlink="http://www.w3.org/1999/xlink" version="1.1" style="font-family:'lucida grande', 'lucida sans unicode', arial, helvetica, sans-serif;font-size:12px;" xmlns="http://www.w3.org/2000/svg" width="600" height="400"><desc>Created with Highcharts 4.0.3</desc><defs><clipPath id="highcharts-10"><rect x="0" y="0" width="521" height="315"></rect></clipPath></defs><rect x="0" y="0" width="600" height="400" strokeWidth="0" fill="#FFFFFF" class=" highcharts-background"></rect><g class="highcharts-grid" ></g><g class="highcharts-grid" ><path fill="none" d="M 69 9.5 L 590 9.5" stroke="#C0C0C0" stroke-width="1"  opacity="1"></path><path fill="none" d="M 69 73.5 L 590 73.5" stroke="#C0C0C0" stroke-width="1"  opacity="1"></path><path fill="none" d="M 69 136.5 L 590 136.5" stroke="#C0C0C0" stroke-width="1"  opacity="1"></path><path fill="none" d="M 69 199.5 L 590 199.5" stroke="#C0C0C0" stroke-width="1"  opacity="1"></path><path fill="none" d="M 69 262.5 L 590 262.5" stroke="#C0C0C0" stroke-width="1"  opacity="1"></path><path fill="none" d="M 69 325.5 L 590 325.5" stroke="#C0C0C0" stroke-width="1"  opacity="1"></path></g><g class="highcharts-axis" ><path fill="none" d="M 329.5 325 L 329.5 335" stroke="#C0D0E0" stroke-width="1" opacity="1"></path><path fill="none" d="M 459.5 325 L 459.5 335" stroke="#C0D0E0" stroke-width="1" opacity="1"></path><path fill="none" d="M 590.5 325 L 590.5 335" stroke="#C0D0E0" stroke-width="1" opacity="1"></path><path fill="none" d="M 198.5 325 L 198.5 335" stroke="#C0D0E0" stroke-width="1" opacity="1"></path><path fill="none" d="M 68.5 325 L 68.5 335" stroke="#C0D0E0" stroke-width="1" opacity="1"></path><path fill="none" d="M 69 325.5 L 590 325.5" stroke="#C0D0E0" stroke-width="1"  visibility="visible"></path></g><g class="highcharts-axis" ><text x="25"  text-anchor="middle" transform="translate(0,0) rotate(270 25 167.5)" class=" highcharts-yaxis-title" style="color:#707070;fill:#707070;" visibility="visible" y="167.5">成绩（分）</text></g><g class="highcharts-series-group" ><g class="highcharts-series" visibility="visible"  transform="translate(69,10) scale(1 1)" clip-path="url(#highcharts-10)"><rect x="29.5" y="217.5" width="32" height="98" fill="#999999" rx="0" ry="0" stroke="#FFFFFF" stroke-width="1"></rect><rect x="159.5" y="245.5" width="32" height="70" fill="#999999" rx="0" ry="0" stroke="#FFFFFF" stroke-width="1"></rect><rect x="289.5" y="218.5" width="32" height="97" fill="#999999" rx="0" ry="0" stroke="#FFFFFF" stroke-width="1"></rect><rect x="420.5" y="148.5" width="32" height="167" fill="#999999" rx="0" ry="0" stroke="#FFFFFF" stroke-width="1"></rect></g><g class="highcharts-markers" visibility="visible"  transform="translate(69,10) scale(1 1)" clip-path="none"></g><g class="highcharts-series" visibility="visible"  transform="translate(69,10) scale(1 1)" clip-path="url(#highcharts-10)"><rect x="68.5" y="192.5" width="32" height="123" fill="#7cb5ec" rx="0" ry="0" stroke="#FFFFFF" stroke-width="1"></rect><rect x="198.5" y="169.5" width="32" height="146" fill="#7cb5ec" rx="0" ry="0" stroke="#FFFFFF" stroke-width="1"></rect><rect x="329.5" y="149.5" width="32" height="166" fill="#7cb5ec" rx="0" ry="0" stroke="#FFFFFF" stroke-width="1"></rect><rect x="459.5" y="63.5" width="32" height="252" fill="#7cb5ec" rx="0" ry="0" stroke="#FFFFFF" stroke-width="1"></rect></g><g class="highcharts-markers" visibility="visible"  transform="translate(69,10) scale(1 1)" clip-path="none"></g><g class="highcharts-series" visibility="visible"  transform="translate(69,10) scale(1 1)" clip-path="url(#highcharts-10)"><path fill="none" d="M 65.125 201.6 L 195.375 186.48 L 325.625 171.35999999999999 L 455.875 102.06" stroke="#ff0000" stroke-width="2"  stroke-linejoin="round" stroke-linecap="round"></path></g><g class="highcharts-markers" visibility="visible"  transform="translate(69,10) scale(1 1)" clip-path="none"><path fill="#ff0000" d="M 455 98.06 C 460.328 98.06 460.328 106.06 455 106.06 C 449.672 106.06 449.672 98.06 455 98.06 Z"></path><path fill="#ff0000" d="M 325 167.35999999999999 C 330.328 167.35999999999999 330.328 175.35999999999999 325 175.35999999999999 C 319.672 175.35999999999999 319.672 167.35999999999999 325 167.35999999999999 Z"></path><path fill="#ff0000" d="M 195 182.48 C 200.328 182.48 200.328 190.48 195 190.48 C 189.672 190.48 189.672 182.48 195 182.48 Z"></path><path fill="#ff0000" d="M 65 197.6 C 70.328 197.6 70.328 205.6 65 205.6 C 59.672 205.6 59.672 197.6 65 197.6 Z"></path></g></g><g class="highcharts-legend"  transform="translate(113,367)"><g ><g><g class="highcharts-legend-item"  transform="translate(8,3)"><path fill="none" d="M 0 11 L 16 11" stroke="#ff0000" stroke-width="2"></path><path fill="#ff0000" d="M 8 7 C 13.328 7 13.328 15 8 15 C 2.6719999999999997 15 2.6719999999999997 7 8 7 Z"></path><text x="21" style="color:#333333;font-size:12px;font-weight:bold;cursor:pointer;fill:#333333;" text-anchor="start"  y="15">考生成绩</text></g><g class="highcharts-legend-item"  transform="translate(97,3)"><text x="21" y="15" style="color:#333333;font-size:12px;font-weight:bold;cursor:pointer;fill:#333333;" text-anchor="start" >考生单位学生平均分</text><rect x="0" y="4" width="16" height="12"  fill="#999999"></rect></g><g class="highcharts-legend-item"  transform="translate(246,3)"><text x="21" y="15" style="color:#333333;font-size:12px;font-weight:bold;cursor:pointer;fill:#333333;" text-anchor="start" >考生单位学生最高分</text><rect x="0" y="4" width="16" height="12"  fill="#7cb5ec"></rect></g></g></g></g><g class="highcharts-axis-labels highcharts-xaxis-labels" ><text x="134.125" text-anchor="middle" style="width:110px;color:#606060;cursor:default;font-size:11px;fill:#606060;" y="345" opacity="1">语文</text><text x="264.375" text-anchor="middle" style="width:110px;color:#606060;cursor:default;font-size:11px;fill:#606060;" y="345" opacity="1">数学</text><text x="394.625" text-anchor="middle" style="width:110px;color:#606060;cursor:default;font-size:11px;fill:#606060;" y="345" opacity="1">英语</text><text x="524.875" text-anchor="middle" style="width:110px;color:#606060;cursor:default;font-size:11px;fill:#606060;" y="345" opacity="1">文科综合</text></g><g class="highcharts-axis-labels highcharts-yaxis-labels" ><text x="54" text-anchor="end" style="width:178px;color:#606060;cursor:default;font-size:11px;fill:#606060;" y="330" opacity="1">0</text><text x="54" text-anchor="end" style="width:178px;color:#606060;cursor:default;font-size:11px;fill:#606060;" y="267" opacity="1">50</text><text x="54" text-anchor="end" style="width:178px;color:#606060;cursor:default;font-size:11px;fill:#606060;" y="204" opacity="1">100</text><text x="54" text-anchor="end" style="width:178px;color:#606060;cursor:default;font-size:11px;fill:#606060;" y="141" opacity="1">150</text><text x="54" text-anchor="end" style="width:178px;color:#606060;cursor:default;font-size:11px;fill:#606060;" y="78" opacity="1">200</text><text x="54" text-anchor="end" style="width:178px;color:#606060;cursor:default;font-size:11px;fill:#606060;" y="15" opacity="1">250</text></g><g class="highcharts-tooltip"  style="cursor:default;padding:0;white-space:nowrap;" transform="translate(0,-9999)"><path fill="none" d="M 3 0 L 13 0 C 16 0 16 0 16 3 L 16 13 C 16 16 16 16 13 16 L 3 16 C 0 16 0 16 0 13 L 0 3 C 0 0 0 0 3 0"  stroke="black" stroke-opacity="0.049999999999999996" stroke-width="5" transform="translate(1, 1)"></path><path fill="none" d="M 3 0 L 13 0 C 16 0 16 0 16 3 L 16 13 C 16 16 16 16 13 16 L 3 16 C 0 16 0 16 0 13 L 0 3 C 0 0 0 0 3 0"  stroke="black" stroke-opacity="0.09999999999999999" stroke-width="3" transform="translate(1, 1)"></path><path fill="none" d="M 3 0 L 13 0 C 16 0 16 0 16 3 L 16 13 C 16 16 16 16 13 16 L 3 16 C 0 16 0 16 0 13 L 0 3 C 0 0 0 0 3 0"  stroke="black" stroke-opacity="0.15" stroke-width="1" transform="translate(1, 1)"></path><path fill="rgb(249, 249, 249)" fill-opacity=" .85" d="M 3 0 L 13 0 C 16 0 16 0 16 3 L 16 13 C 16 16 16 16 13 16 L 3 16 C 0 16 0 16 0 13 L 0 3 C 0 0 0 0 3 0"></path><text x="8"  style="font-size:12px;color:#333333;fill:#333333;" y="21"></text></g><text x="590" text-anchor="end"  style="cursor:pointer;color:#909090;font-size:9px;fill:#909090;" y="395">Septnet</text></svg>