<svg xmlns:xlink="http://www.w3.org/1999/xlink" version="1.1" style="font-family:'lucida grande', 'lucida sans unicode', arial, helvetica, sans-serif;font-size:12px;" xmlns="http://www.w3.org/2000/svg" width="600" height="400"><desc>Created with Highcharts 4.0.3</desc><defs><clipPath id="highcharts-8"><rect x="0" y="0" width="522" height="317"></rect></clipPath></defs><rect x="0" y="0" width="600" height="400" strokeWidth="0" fill="#FFFFFF" class=" highcharts-background"></rect><g class="highcharts-grid" ></g><g class="highcharts-grid" ><path fill="none" d="M 68 9.5 L 590 9.5" stroke="#C0C0C0" stroke-width="1"  opacity="1"></path><path fill="none" d="M 68 73.5 L 590 73.5" stroke="#C0C0C0" stroke-width="1"  opacity="1"></path><path fill="none" d="M 68 137.5 L 590 137.5" stroke="#C0C0C0" stroke-width="1"  opacity="1"></path><path fill="none" d="M 68 200.5 L 590 200.5" stroke="#C0C0C0" stroke-width="1"  opacity="1"></path><path fill="none" d="M 68 264.5 L 590 264.5" stroke="#C0C0C0" stroke-width="1"  opacity="1"></path><path fill="none" d="M 68 327.5 L 590 327.5" stroke="#C0C0C0" stroke-width="1"  opacity="1"></path></g><g class="highcharts-axis" ><path fill="none" d="M 328.5 327 L 328.5 337" stroke="#C0D0E0" stroke-width="1" opacity="1"></path><path fill="none" d="M 459.5 327 L 459.5 337" stroke="#C0D0E0" stroke-width="1" opacity="1"></path><path fill="none" d="M 590.5 327 L 590.5 337" stroke="#C0D0E0" stroke-width="1" opacity="1"></path><path fill="none" d="M 198.5 327 L 198.5 337" stroke="#C0D0E0" stroke-width="1" opacity="1"></path><path fill="none" d="M 67.5 327 L 67.5 337" stroke="#C0D0E0" stroke-width="1" opacity="1"></path><path fill="none" d="M 68 327.5 L 590 327.5" stroke="#C0D0E0" stroke-width="1"  visibility="visible"></path></g><g class="highcharts-axis" ><text x="24"  text-anchor="middle" transform="translate(0,0) rotate(270 24 168.5)" class=" highcharts-yaxis-title" style="color:#707070;fill:#707070;" visibility="visible" y="168.5">成绩（分）</text></g><g class="highcharts-series-group" ><g class="highcharts-series" visibility="visible"  transform="translate(68,10) scale(1 1)" clip-path="url(#highcharts-8)"><rect x="33.5" y="198.5" width="63" height="119" fill="#999999" rx="0" ry="0" stroke="#FFFFFF" stroke-width="1"></rect><rect x="163.5" y="194.5" width="63" height="123" fill="#999999" rx="0" ry="0" stroke="#FFFFFF" stroke-width="1"></rect><rect x="294.5" y="172.5" width="63" height="145" fill="#999999" rx="0" ry="0" stroke="#FFFFFF" stroke-width="1"></rect><rect x="424.5" y="80.5" width="63" height="237" fill="#999999" rx="0" ry="0" stroke="#FFFFFF" stroke-width="1"></rect></g><g class="highcharts-markers" visibility="visible"  transform="translate(68,10) scale(1 1)" clip-path="none"></g><g class="highcharts-series" visibility="hidden"  transform="translate(68,10) scale(1 1)" clip-path="url(#highcharts-8)"></g><g class="highcharts-markers" visibility="hidden"  transform="translate(68,10) scale(1 1)" clip-path="none"></g><g class="highcharts-series" visibility="visible"  transform="translate(68,10) scale(1 1)" clip-path="url(#highcharts-8)"><path fill="none" d="M 65.25 192.736 L 195.75 204.148 L 326.25 161.036 L 456.75 73.54399999999998" stroke="#ff0000" stroke-width="2"  stroke-linejoin="round" stroke-linecap="round"></path></g><g class="highcharts-markers" visibility="visible"  transform="translate(68,10) scale(1 1)" clip-path="none"><path fill="#ff0000" d="M 456 69.54399999999998 C 461.328 69.54399999999998 461.328 77.54399999999998 456 77.54399999999998 C 450.672 77.54399999999998 450.672 69.54399999999998 456 69.54399999999998 Z"></path><path fill="#ff0000" d="M 326 157.036 C 331.328 157.036 331.328 165.036 326 165.036 C 320.672 165.036 320.672 157.036 326 157.036 Z"></path><path fill="#ff0000" d="M 195 200.148 C 200.328 200.148 200.328 208.148 195 208.148 C 189.672 208.148 189.672 200.148 195 200.148 Z"></path><path fill="#ff0000" d="M 65 188.736 C 70.328 188.736 70.328 196.736 65 196.736 C 59.672 196.736 59.672 188.736 65 188.736 Z"></path></g></g><g class="highcharts-legend"  transform="translate(111,368)"><g ><g><g class="highcharts-legend-item"  transform="translate(8,3)"><path fill="none" d="M 0 11 L 16 11" stroke="#ff0000" stroke-width="2"></path><path fill="#ff0000" d="M 8 7 C 13.328 7 13.328 15 8 15 C 2.6719999999999997 15 2.6719999999999997 7 8 7 Z"></path><text x="21" style="color:#333333;font-size:12px;font-weight:bold;cursor:pointer;fill:#333333;" text-anchor="start"  y="15">考生成绩</text></g><g class="highcharts-legend-item"  transform="translate(98,3)"><text x="21" y="15" style="color:#333333;font-size:12px;font-weight:bold;cursor:pointer;fill:#333333;" text-anchor="start" >考生单位学生平均分</text><rect x="0" y="4" width="16" height="12"  fill="#999999"></rect></g><g class="highcharts-legend-item"  transform="translate(248,3)"><text x="21" y="15" style="color:#ccc;font-size:12px;font-weight:bold;cursor:pointer;fill:#ccc;" text-anchor="start" >考生单位学生最高分</text><rect x="0" y="4" width="16" height="12"  fill="#CCC"></rect></g></g></g></g><g class="highcharts-axis-labels highcharts-xaxis-labels" ><text x="133.25" text-anchor="middle" style="width:111px;color:#606060;cursor:default;font-size:11px;fill:#606060;" y="347" opacity="1">语文</text><text x="263.75" text-anchor="middle" style="width:111px;color:#606060;cursor:default;font-size:11px;fill:#606060;" y="347" opacity="1">数学</text><text x="394.25" text-anchor="middle" style="width:111px;color:#606060;cursor:default;font-size:11px;fill:#606060;" y="347" opacity="1">英语</text><text x="524.75" text-anchor="middle" style="width:111px;color:#606060;cursor:default;font-size:11px;fill:#606060;" y="347" opacity="1">理科综合</text></g><g class="highcharts-axis-labels highcharts-yaxis-labels" ><text x="53" text-anchor="end" style="width:178px;color:#606060;cursor:default;font-size:11px;fill:#606060;" y="332.5" opacity="1">0</text><text x="53" text-anchor="end" style="width:178px;color:#606060;cursor:default;font-size:11px;fill:#606060;" y="269.1" opacity="1">50</text><text x="53" text-anchor="end" style="width:178px;color:#606060;cursor:default;font-size:11px;fill:#606060;" y="205.7" opacity="1">100</text><text x="53" text-anchor="end" style="width:178px;color:#606060;cursor:default;font-size:11px;fill:#606060;" y="142.3" opacity="1">150</text><text x="53" text-anchor="end" style="width:178px;color:#606060;cursor:default;font-size:11px;fill:#606060;" y="78.9" opacity="1">200</text><text x="53" text-anchor="end" style="width:178px;color:#606060;cursor:default;font-size:11px;fill:#606060;" y="15.5" opacity="1">250</text></g><g class="highcharts-tooltip"  style="cursor:default;padding:0;white-space:nowrap;" transform="translate(0,-9999)"><path fill="none" d="M 3 0 L 13 0 C 16 0 16 0 16 3 L 16 13 C 16 16 16 16 13 16 L 3 16 C 0 16 0 16 0 13 L 0 3 C 0 0 0 0 3 0"  stroke="black" stroke-opacity="0.049999999999999996" stroke-width="5" transform="translate(1, 1)"></path><path fill="none" d="M 3 0 L 13 0 C 16 0 16 0 16 3 L 16 13 C 16 16 16 16 13 16 L 3 16 C 0 16 0 16 0 13 L 0 3 C 0 0 0 0 3 0"  stroke="black" stroke-opacity="0.09999999999999999" stroke-width="3" transform="translate(1, 1)"></path><path fill="none" d="M 3 0 L 13 0 C 16 0 16 0 16 3 L 16 13 C 16 16 16 16 13 16 L 3 16 C 0 16 0 16 0 13 L 0 3 C 0 0 0 0 3 0"  stroke="black" stroke-opacity="0.15" stroke-width="1" transform="translate(1, 1)"></path><path fill="rgb(249, 249, 249)" fill-opacity=" .85" d="M 3 0 L 13 0 C 16 0 16 0 16 3 L 16 13 C 16 16 16 16 13 16 L 3 16 C 0 16 0 16 0 13 L 0 3 C 0 0 0 0 3 0"></path><text x="8"  style="font-size:12px;color:#333333;fill:#333333;" y="21"></text></g><text x="590" text-anchor="end"  style="cursor:pointer;color:#909090;font-size:9px;fill:#909090;" y="395">Septnet</text></svg>