<svg xmlns:xlink="http://www.w3.org/1999/xlink" version="1.1" style="font-family:'lucida grande', 'lucida sans unicode', arial, helvetica, sans-serif;font-size:12px;" xmlns="http://www.w3.org/2000/svg" width="600" height="400"><desc>Created with Highcharts 4.0.3</desc><defs><clipPath id="highcharts-8"><rect x="0" y="0" width="523" height="317"></rect></clipPath></defs><rect x="0" y="0" width="600" height="400" strokeWidth="0" fill="#FFFFFF" class=" highcharts-background"></rect><g class="highcharts-grid" ></g><g class="highcharts-grid" ><path fill="none" d="M 67 9.5 L 590 9.5" stroke="#C0C0C0" stroke-width="1"  opacity="1"></path><path fill="none" d="M 67 63.5 L 590 63.5" stroke="#C0C0C0" stroke-width="1"  opacity="1"></path><path fill="none" d="M 67 116.5 L 590 116.5" stroke="#C0C0C0" stroke-width="1"  opacity="1"></path><path fill="none" d="M 67 169.5 L 590 169.5" stroke="#C0C0C0" stroke-width="1"  opacity="1"></path><path fill="none" d="M 67 221.5 L 590 221.5" stroke="#C0C0C0" stroke-width="1"  opacity="1"></path><path fill="none" d="M 67 274.5 L 590 274.5" stroke="#C0C0C0" stroke-width="1"  opacity="1"></path><path fill="none" d="M 67 327.5 L 590 327.5" stroke="#C0C0C0" stroke-width="1"  opacity="1"></path></g><g class="highcharts-axis" ><path fill="none" d="M 240.5 327 L 240.5 337" stroke="#C0D0E0" stroke-width="1" opacity="1"></path><path fill="none" d="M 328.5 327 L 328.5 337" stroke="#C0D0E0" stroke-width="1" opacity="1"></path><path fill="none" d="M 415.5 327 L 415.5 337" stroke="#C0D0E0" stroke-width="1" opacity="1"></path><path fill="none" d="M 502.5 327 L 502.5 337" stroke="#C0D0E0" stroke-width="1" opacity="1"></path><path fill="none" d="M 590.5 327 L 590.5 337" stroke="#C0D0E0" stroke-width="1" opacity="1"></path><path fill="none" d="M 153.5 327 L 153.5 337" stroke="#C0D0E0" stroke-width="1" opacity="1"></path><path fill="none" d="M 66.5 327 L 66.5 337" stroke="#C0D0E0" stroke-width="1" opacity="1"></path><path fill="none" d="M 67 327.5 L 590 327.5" stroke="#C0D0E0" stroke-width="1"  visibility="visible"></path></g><g class="highcharts-axis" ><text x="24"  text-anchor="middle" transform="translate(0,0) rotate(270 24 168.5)" class=" highcharts-yaxis-title" style="color:#707070;fill:#707070;" visibility="visible" y="168.5">成绩（分）</text></g><g class="highcharts-series-group" ><g class="highcharts-series" visibility="visible"  transform="translate(67,10) scale(1 1)" clip-path="url(#highcharts-8)"><rect x="19.5" y="104.5" width="21" height="213" fill="#999999" rx="0" ry="0" stroke="#FFFFFF" stroke-width="1"></rect><rect x="106.5" y="117.5" width="21" height="200" fill="#999999" rx="0" ry="0" stroke="#FFFFFF" stroke-width="1"></rect><rect x="193.5" y="118.5" width="21" height="199" fill="#999999" rx="0" ry="0" stroke="#FFFFFF" stroke-width="1"></rect><rect x="281.5" y="159.5" width="21" height="158" fill="#999999" rx="0" ry="0" stroke="#FFFFFF" stroke-width="1"></rect><rect x="368.5" y="152.5" width="21" height="165" fill="#999999" rx="0" ry="0" stroke="#FFFFFF" stroke-width="1"></rect><rect x="455.5" y="170.5" width="21" height="147" fill="#999999" rx="0" ry="0" stroke="#FFFFFF" stroke-width="1"></rect></g><g class="highcharts-markers" visibility="visible"  transform="translate(67,10) scale(1 1)" clip-path="none"></g><g class="highcharts-series" visibility="visible"  transform="translate(67,10) scale(1 1)" clip-path="url(#highcharts-8)"><rect x="45.5" y="68.5" width="21" height="249" fill="#7cb5ec" rx="0" ry="0" stroke="#FFFFFF" stroke-width="1"></rect><rect x="132.5" y="21.5" width="21" height="296" fill="#7cb5ec" rx="0" ry="0" stroke="#FFFFFF" stroke-width="1"></rect><rect x="220.5" y="59.5" width="21" height="258" fill="#7cb5ec" rx="0" ry="0" stroke="#FFFFFF" stroke-width="1"></rect><rect x="307.5" y="106.5" width="21" height="211" fill="#7cb5ec" rx="0" ry="0" stroke="#FFFFFF" stroke-width="1"></rect><rect x="394.5" y="120.5" width="21" height="197" fill="#7cb5ec" rx="0" ry="0" stroke="#FFFFFF" stroke-width="1"></rect><rect x="481.5" y="138.5" width="21" height="179" fill="#7cb5ec" rx="0" ry="0" stroke="#FFFFFF" stroke-width="1"></rect></g><g class="highcharts-markers" visibility="visible"  transform="translate(67,10) scale(1 1)" clip-path="none"></g><g class="highcharts-series" visibility="visible"  transform="translate(67,10) scale(1 1)" clip-path="url(#highcharts-8)"><path fill="none" d="M 43.583333333333336 109.89333333333335 L 130.75 116.23333333333335 L 217.91666666666669 84.53333333333333 L 305.0833333333333 112.00666666666666 L 392.25 152.16 L 479.4166666666667 147.93333333333334" stroke="#ff0000" stroke-width="2"  stroke-linejoin="round" stroke-linecap="round"></path></g><g class="highcharts-markers" visibility="visible"  transform="translate(67,10) scale(1 1)" clip-path="none"><path fill="#ff0000" d="M 479 143.93333333333334 C 484.328 143.93333333333334 484.328 151.93333333333334 479 151.93333333333334 C 473.672 151.93333333333334 473.672 143.93333333333334 479 143.93333333333334 Z"></path><path fill="#ff0000" d="M 392 148.16 C 397.328 148.16 397.328 156.16 392 156.16 C 386.672 156.16 386.672 148.16 392 148.16 Z"></path><path fill="#ff0000" d="M 305 108.00666666666666 C 310.328 108.00666666666666 310.328 116.00666666666666 305 116.00666666666666 C 299.672 116.00666666666666 299.672 108.00666666666666 305 108.00666666666666 Z"></path><path fill="#ff0000" d="M 217 80.53333333333333 C 222.328 80.53333333333333 222.328 88.53333333333333 217 88.53333333333333 C 211.672 88.53333333333333 211.672 80.53333333333333 217 80.53333333333333 Z"></path><path fill="#ff0000" d="M 130 112.23333333333335 C 135.328 112.23333333333335 135.328 120.23333333333335 130 120.23333333333335 C 124.672 120.23333333333335 124.672 112.23333333333335 130 112.23333333333335 Z"></path><path fill="#ff0000" d="M 43 105.89333333333335 C 48.328 105.89333333333335 48.328 113.89333333333335 43 113.89333333333335 C 37.672 113.89333333333335 37.672 105.89333333333335 43 105.89333333333335 Z"></path></g></g><g class="highcharts-legend"  transform="translate(113,368)"><g ><g><g class="highcharts-legend-item"  transform="translate(8,3)"><path fill="none" d="M 0 11 L 16 11" stroke="#ff0000" stroke-width="2"></path><path fill="#ff0000" d="M 8 7 C 13.328 7 13.328 15 8 15 C 2.6719999999999997 15 2.6719999999999997 7 8 7 Z"></path><text x="21" style="color:#333333;font-size:12px;font-weight:bold;cursor:pointer;fill:#333333;" text-anchor="start"  y="15">考生成绩</text></g><g class="highcharts-legend-item"  transform="translate(97,3)"><text x="21" y="15" style="color:#333333;font-size:12px;font-weight:bold;cursor:pointer;fill:#333333;" text-anchor="start" >考生单位学生平均分</text><rect x="0" y="4" width="16" height="12"  fill="#999999"></rect></g><g class="highcharts-legend-item"  transform="translate(246,3)"><text x="21" y="15" style="color:#333333;font-size:12px;font-weight:bold;cursor:pointer;fill:#333333;" text-anchor="start" >考生单位学生最高分</text><rect x="0" y="4" width="16" height="12"  fill="#7cb5ec"></rect></g></g></g></g><g class="highcharts-axis-labels highcharts-xaxis-labels" ><text x="110.58333333333334" text-anchor="middle" style="width:67px;color:#606060;cursor:default;font-size:11px;fill:#606060;" y="347" opacity="1">语文</text><text x="197.75" text-anchor="middle" style="width:67px;color:#606060;cursor:default;font-size:11px;fill:#606060;" y="347" opacity="1">数学</text><text x="284.9166666666667" text-anchor="middle" style="width:67px;color:#606060;cursor:default;font-size:11px;fill:#606060;" y="347" opacity="1">英语</text><text x="372.08333333333337" text-anchor="middle" style="width:67px;color:#606060;cursor:default;font-size:11px;fill:#606060;" y="347" opacity="1">物理</text><text x="459.25" text-anchor="middle" style="width:67px;color:#606060;cursor:default;font-size:11px;fill:#606060;" y="347" opacity="1">化学</text><text x="546.4166666666666" text-anchor="middle" style="width:67px;color:#606060;cursor:default;font-size:11px;fill:#606060;" y="347" opacity="1">生物</text></g><g class="highcharts-axis-labels highcharts-yaxis-labels" ><text x="52" text-anchor="end" style="width:178px;color:#606060;cursor:default;font-size:11px;fill:#606060;" y="332.5" opacity="1">0</text><text x="52" text-anchor="end" style="width:178px;color:#606060;cursor:default;font-size:11px;fill:#606060;" y="279.6666666666667" opacity="1">25</text><text x="52" text-anchor="end" style="width:178px;color:#606060;cursor:default;font-size:11px;fill:#606060;" y="226.83333333333337" opacity="1">50</text><text x="52" text-anchor="end" style="width:178px;color:#606060;cursor:default;font-size:11px;fill:#606060;" y="174" opacity="1">75</text><text x="52" text-anchor="end" style="width:178px;color:#606060;cursor:default;font-size:11px;fill:#606060;" y="121.16666666666669" opacity="1">100</text><text x="52" text-anchor="end" style="width:178px;color:#606060;cursor:default;font-size:11px;fill:#606060;" y="68.33333333333331" opacity="1">125</text><text x="52" text-anchor="end" style="width:178px;color:#606060;cursor:default;font-size:11px;fill:#606060;" y="15.5" opacity="1">150</text></g><g class="highcharts-tooltip"  style="cursor:default;padding:0;white-space:nowrap;" transform="translate(0,-9999)"><path fill="none" d="M 3 0 L 13 0 C 16 0 16 0 16 3 L 16 13 C 16 16 16 16 13 16 L 3 16 C 0 16 0 16 0 13 L 0 3 C 0 0 0 0 3 0"  stroke="black" stroke-opacity="0.049999999999999996" stroke-width="5" transform="translate(1, 1)"></path><path fill="none" d="M 3 0 L 13 0 C 16 0 16 0 16 3 L 16 13 C 16 16 16 16 13 16 L 3 16 C 0 16 0 16 0 13 L 0 3 C 0 0 0 0 3 0"  stroke="black" stroke-opacity="0.09999999999999999" stroke-width="3" transform="translate(1, 1)"></path><path fill="none" d="M 3 0 L 13 0 C 16 0 16 0 16 3 L 16 13 C 16 16 16 16 13 16 L 3 16 C 0 16 0 16 0 13 L 0 3 C 0 0 0 0 3 0"  stroke="black" stroke-opacity="0.15" stroke-width="1" transform="translate(1, 1)"></path><path fill="rgb(249, 249, 249)" fill-opacity=" .85" d="M 3 0 L 13 0 C 16 0 16 0 16 3 L 16 13 C 16 16 16 16 13 16 L 3 16 C 0 16 0 16 0 13 L 0 3 C 0 0 0 0 3 0"></path><text x="8"  style="font-size:12px;color:#333333;fill:#333333;" y="21"></text></g><text x="590" text-anchor="end"  style="cursor:pointer;color:#909090;font-size:9px;fill:#909090;" y="395">Septnet</text></svg>