<svg xmlns:xlink="http://www.w3.org/1999/xlink" version="1.1" style="font-family:'lucida grande', 'lucida sans unicode', arial, helvetica, sans-serif;font-size:12px;" xmlns="http://www.w3.org/2000/svg" width="600" height="400"><desc>Created with Highcharts 4.0.3</desc><defs><clipPath id="highcharts-18"><rect x="0" y="0" width="515" height="312"></rect></clipPath></defs><rect x="0" y="0" width="600" height="400" strokeWidth="0" fill="#FFFFFF" class=" highcharts-background"></rect><g class="highcharts-grid" ></g><g class="highcharts-grid" ><path fill="none" d="M 75 9.5 L 590 9.5" stroke="#C0C0C0" stroke-width="1"  opacity="1"></path><path fill="none" d="M 75 62.5 L 590 62.5" stroke="#C0C0C0" stroke-width="1"  opacity="1"></path><path fill="none" d="M 75 114.5 L 590 114.5" stroke="#C0C0C0" stroke-width="1"  opacity="1"></path><path fill="none" d="M 75 166.5 L 590 166.5" stroke="#C0C0C0" stroke-width="1"  opacity="1"></path><path fill="none" d="M 75 218.5 L 590 218.5" stroke="#C0C0C0" stroke-width="1"  opacity="1"></path><path fill="none" d="M 75 270.5 L 590 270.5" stroke="#C0C0C0" stroke-width="1"  opacity="1"></path><path fill="none" d="M 75 322.5 L 590 322.5" stroke="#C0C0C0" stroke-width="1"  opacity="1"></path></g><g class="highcharts-axis" ><path fill="none" d="M 246.5 322 L 246.5 332" stroke="#C0D0E0" stroke-width="1" opacity="1"></path><path fill="none" d="M 332.5 322 L 332.5 332" stroke="#C0D0E0" stroke-width="1" opacity="1"></path><path fill="none" d="M 417.5 322 L 417.5 332" stroke="#C0D0E0" stroke-width="1" opacity="1"></path><path fill="none" d="M 503.5 322 L 503.5 332" stroke="#C0D0E0" stroke-width="1" opacity="1"></path><path fill="none" d="M 590.5 322 L 590.5 332" stroke="#C0D0E0" stroke-width="1" opacity="1"></path><path fill="none" d="M 160.5 322 L 160.5 332" stroke="#C0D0E0" stroke-width="1" opacity="1"></path><path fill="none" d="M 74.5 322 L 74.5 332" stroke="#C0D0E0" stroke-width="1" opacity="1"></path><path fill="none" d="M 75 322.5 L 590 322.5" stroke="#C0D0E0" stroke-width="1"  visibility="visible"></path></g><g class="highcharts-axis" ><text x="26"  text-anchor="middle" transform="translate(0,0) rotate(270 26 166)" class=" highcharts-yaxis-title" style="color:#707070;fill:#707070;" visibility="visible" y="166">成绩（分）</text></g><g class="highcharts-series-group" ><g class="highcharts-series" visibility="hidden"  transform="translate(75,10) scale(1 1)" clip-path="url(#highcharts-18)"></g><g class="highcharts-markers" visibility="hidden"  transform="translate(75,10) scale(1 1)" clip-path="none"></g><g class="highcharts-series" visibility="visible"  transform="translate(75,10) scale(1 1)" clip-path="url(#highcharts-18)"><rect x="21.5" y="83.5" width="42" height="229" fill="#7cb5ec" rx="0" ry="0" stroke="#FFFFFF" stroke-width="1"></rect><rect x="107.5" y="60.5" width="42" height="252" fill="#7cb5ec" rx="0" ry="0" stroke="#FFFFFF" stroke-width="1"></rect><rect x="193.5" y="64.5" width="42" height="248" fill="#7cb5ec" rx="0" ry="0" stroke="#FFFFFF" stroke-width="1"></rect><rect x="279.5" y="146.5" width="42" height="166" fill="#7cb5ec" rx="0" ry="0" stroke="#FFFFFF" stroke-width="1"></rect><rect x="365.5" y="125.5" width="42" height="187" fill="#7cb5ec" rx="0" ry="0" stroke="#FFFFFF" stroke-width="1"></rect><rect x="450.5" y="160.5" width="42" height="152" fill="#7cb5ec" rx="0" ry="0" stroke="#FFFFFF" stroke-width="1"></rect></g><g class="highcharts-markers" visibility="visible"  transform="translate(75,10) scale(1 1)" clip-path="none"></g><g class="highcharts-series" visibility="hidden"  transform="translate(75,10) scale(1 1)" clip-path="url(#highcharts-18)"><path fill="none" d="M 42.916666666666664 151.84 L 128.75 124.79999999999998 L 214.58333333333331 70.72 L 300.4166666666667 180.96 L 386.25 216.32 L 472.0833333333333 189.28" stroke="#ff0000" stroke-width="2"  stroke-linejoin="round" stroke-linecap="round"></path></g><g class="highcharts-markers" visibility="hidden"  transform="translate(75,10) scale(1 1)" clip-path="none"></g></g><g class="highcharts-legend"  transform="translate(102,366)"><g ><g><g class="highcharts-legend-item"  transform="translate(8,3)"><path fill="none" d="M 0 11 L 16 11" stroke="#CCC" stroke-width="2"></path><path fill="#CCC" d="M 8 7 C 13.328 7 13.328 15 8 15 C 2.6719999999999997 15 2.6719999999999997 7 8 7 Z"></path><text x="21" style="color:#ccc;font-size:12px;font-weight:bold;cursor:pointer;fill:#ccc;" text-anchor="start"  y="15">考生成绩</text></g><g class="highcharts-legend-item"  transform="translate(101,3)"><text x="21" y="15" style="color:#ccc;font-size:12px;font-weight:bold;cursor:pointer;fill:#ccc;" text-anchor="start" >考生单位学生平均分</text><rect x="0" y="4" width="16" height="12"  fill="#CCC"></rect></g><g class="highcharts-legend-item"  transform="translate(259,3)"><text x="21" y="15" style="color:#333333;font-size:12px;font-weight:bold;cursor:pointer;fill:#333333;" text-anchor="start" >考生单位学生最高分</text><rect x="0" y="4" width="16" height="12"  fill="#7cb5ec"></rect></g></g></g></g><g class="highcharts-axis-labels highcharts-xaxis-labels" ><text x="117.91666666666666" text-anchor="middle" style="width:66px;color:#606060;cursor:default;font-size:11px;fill:#606060;" y="343" opacity="1">语文</text><text x="203.75" text-anchor="middle" style="width:66px;color:#606060;cursor:default;font-size:11px;fill:#606060;" y="343" opacity="1">数学</text><text x="289.5833333333333" text-anchor="middle" style="width:66px;color:#606060;cursor:default;font-size:11px;fill:#606060;" y="343" opacity="1">英语</text><text x="375.41666666666663" text-anchor="middle" style="width:66px;color:#606060;cursor:default;font-size:11px;fill:#606060;" y="343" opacity="1">物理</text><text x="461.25" text-anchor="middle" style="width:66px;color:#606060;cursor:default;font-size:11px;fill:#606060;" y="343" opacity="1">化学</text><text x="547.0833333333334" text-anchor="middle" style="width:66px;color:#606060;cursor:default;font-size:11px;fill:#606060;" y="343" opacity="1">生物</text></g><g class="highcharts-axis-labels highcharts-yaxis-labels" ><text x="60" text-anchor="end" style="width:178px;color:#606060;cursor:default;font-size:11px;fill:#606060;" y="327" opacity="1">0</text><text x="60" text-anchor="end" style="width:178px;color:#606060;cursor:default;font-size:11px;fill:#606060;" y="275" opacity="1">25</text><text x="60" text-anchor="end" style="width:178px;color:#606060;cursor:default;font-size:11px;fill:#606060;" y="223" opacity="1">50</text><text x="60" text-anchor="end" style="width:178px;color:#606060;cursor:default;font-size:11px;fill:#606060;" y="171" opacity="1">75</text><text x="60" text-anchor="end" style="width:178px;color:#606060;cursor:default;font-size:11px;fill:#606060;" y="119" opacity="1">100</text><text x="60" text-anchor="end" style="width:178px;color:#606060;cursor:default;font-size:11px;fill:#606060;" y="67" opacity="1">125</text><text x="60" text-anchor="end" style="width:178px;color:#606060;cursor:default;font-size:11px;fill:#606060;" y="15" opacity="1">150</text></g><g class="highcharts-tooltip"  style="cursor:default;padding:0;white-space:nowrap;" transform="translate(0,-9999)"><path fill="none" d="M 3 0 L 13 0 C 16 0 16 0 16 3 L 16 13 C 16 16 16 16 13 16 L 3 16 C 0 16 0 16 0 13 L 0 3 C 0 0 0 0 3 0"  stroke="black" stroke-opacity="0.049999999999999996" stroke-width="5" transform="translate(1, 1)"></path><path fill="none" d="M 3 0 L 13 0 C 16 0 16 0 16 3 L 16 13 C 16 16 16 16 13 16 L 3 16 C 0 16 0 16 0 13 L 0 3 C 0 0 0 0 3 0"  stroke="black" stroke-opacity="0.09999999999999999" stroke-width="3" transform="translate(1, 1)"></path><path fill="none" d="M 3 0 L 13 0 C 16 0 16 0 16 3 L 16 13 C 16 16 16 16 13 16 L 3 16 C 0 16 0 16 0 13 L 0 3 C 0 0 0 0 3 0"  stroke="black" stroke-opacity="0.15" stroke-width="1" transform="translate(1, 1)"></path><path fill="rgb(249, 249, 249)" fill-opacity=" .85" d="M 3 0 L 13 0 C 16 0 16 0 16 3 L 16 13 C 16 16 16 16 13 16 L 3 16 C 0 16 0 16 0 13 L 0 3 C 0 0 0 0 3 0"></path><text x="8"  style="font-size:12px;color:#333333;fill:#333333;" y="21"></text></g><text x="590" text-anchor="end"  style="cursor:pointer;color:#909090;font-size:9px;fill:#909090;" y="395">Septnet</text></svg>