<svg xmlns:xlink="http://www.w3.org/1999/xlink" style="font-family: 'lucida grande', 'lucida sans unicode', arial, helvetica, sans-serif; font-size: 12px" xmlns="http://www.w3.org/2000/svg" version="1.1" width="600" height="400"><desc>Created with Highcharts 4.0.3</desc><defs><clipPath id="highcharts-9"><rect width="580" height="338" x="0" y="0"></rect></clipPath></defs><rect fill="#FFFFFF" class=" highcharts-background" strokeWidth="0" width="600" height="400" x="0" y="0"></rect><g class="highcharts-grid" ><path opacity="1" d="M 300 179 L 424.4045492536346 250.825" fill="none"  stroke="#C0C0C0" stroke-width="1"></path><path opacity="1" d="M 300 179 L 300.00000000000005 322.65" fill="none"  stroke="#C0C0C0" stroke-width="1"></path><path opacity="1" d="M 300 179 L 175.5954507463654 250.82500000000004" fill="none"  stroke="#C0C0C0" stroke-width="1"></path><path opacity="1" d="M 300 179 L 175.59545074636537 107.17499999999998" fill="none"  stroke="#C0C0C0" stroke-width="1"></path><path opacity="1" d="M 300 179 L 300 35.349999999999994" fill="none"  stroke="#C0C0C0" stroke-width="1"></path><path opacity="1" d="M 300 179 L 424.40454925363457 107.17499999999994" fill="none"  stroke="#C0C0C0" stroke-width="1"></path><path opacity="1" d="M 300 179 L 424.4045492536346 107.175" fill="none"  stroke="#C0C0C0" stroke-width="1"></path><path opacity="1" d="M 300 179 L 300 35.349999999999994" fill="none"  stroke="#C0C0C0" stroke-width="1"></path></g><g class="highcharts-grid" ><path opacity="1" d="M 300 35.349999999999994 A 143.65 143.65 0 1 1 299.8563500239416 35.35007182499402 M 300 179 A 0 0 0 1 0 300 179 " fill="none"  stroke="#C0C0C0" stroke-width="1"></path><path opacity="1" d="M 300 83.23333333333333 A 95.76666666666666 95.76666666666666 0 1 1 299.9042333492944 83.23338121666268 M 300 179 A 0 0 0 1 0 300 179 " fill="none"  stroke="#C0C0C0" stroke-width="1"></path><path opacity="1" d="M 300 131.11666666666667 A 47.88333333333333 47.88333333333333 0 1 1 299.9521166746472 131.11669060833134 M 300 179 A 0 0 0 1 0 300 179 " fill="none"  stroke="#C0C0C0" stroke-width="1"></path><path fill="none"  stroke="#C0C0C0" stroke-width="1"></path></g><g class="highcharts-axis" ><path d="M 300 35.349999999999994 A 143.65 143.65 0 1 1 299.8563500239416 35.35007182499402 M 300 179 A 0 0 0 1 0 300 179 " fill="none"  stroke="#C0D0E0" stroke-width="1" visibility="visible"></path></g><g class="highcharts-axis" ></g><g class="highcharts-series-group" ><g class="highcharts-series"  transform="translate(10,10) scale(1 1)" visibility="visible" clip-path="url(#highcharts-9)"><path d="M 321.8681167608286 113.8028026287075 L 330.4824290243551 169 L 323.04132296954316 226.2292501325413 L 265.8474779823859 210.83339526543358 L 224.03781036623215 169 L 256.02842315821254 110.1595028967939 L 321.8681167608286 113.8028026287075" fill="none" stroke-linejoin="round" stroke-linecap="round"  stroke="#ff0000" stroke-width="2"></path></g><g class="highcharts-markers"  transform="translate(10,10) scale(1 1)" visibility="visible" clip-path="none"><path d="M 256 106.1595028967939 C 261.328 106.1595028967939 261.328 114.1595028967939 256 114.1595028967939 C 250.672 114.1595028967939 250.672 106.1595028967939 256 106.1595028967939 Z" fill="#ff0000"></path><path d="M 224 165 C 229.328 165 229.328 173 224 173 C 218.672 173 218.672 165 224 165 Z" fill="#ff0000"></path><path d="M 265 206.83339526543358 C 270.328 206.83339526543358 270.328 214.83339526543358 265 214.83339526543358 C 259.672 214.83339526543358 259.672 206.83339526543358 265 206.83339526543358 Z" fill="#ff0000"></path><path d="M 323 222.2292501325413 C 328.328 222.2292501325413 328.328 230.2292501325413 323 230.2292501325413 C 317.672 230.2292501325413 317.672 222.2292501325413 323 222.2292501325413 Z" fill="#ff0000"></path><path d="M 330 165 C 335.328 165 335.328 173 330 173 C 324.672 173 324.672 165 330 165 Z" fill="#ff0000"></path><path d="M 321 109.8028026287075 C 326.328 109.8028026287075 326.328 117.8028026287075 321 117.8028026287075 C 315.672 117.8028026287075 315.672 109.8028026287075 321 109.8028026287075 Z" fill="#ff0000"></path></g><g class="highcharts-series"  transform="translate(10,10) scale(1 1)" visibility="visible" clip-path="url(#highcharts-9)"><path d="M 313.94166666666666 127.53181691545512 L 337.8833333333333 169 L 313.94166666666666 210.46818308454485 L 266.05833333333333 210.46818308454487 L 242.11666666666667 169 L 266.05833333333333 127.53181691545515 L 313.94166666666666 127.53181691545512" fill="none" stroke-linejoin="round" stroke-linecap="round"  stroke="#999999" stroke-width="2"></path></g><g class="highcharts-markers"  transform="translate(10,10) scale(1 1)" visibility="visible" clip-path="none"><path d="M 266 123.53181691545515 L 270 127.53181691545515 266 131.53181691545515 262 127.53181691545515 Z" fill="#999999"></path><path d="M 242 165 L 246 169 242 173 238 169 Z" fill="#999999"></path><path d="M 266 206.46818308454487 L 270 210.46818308454487 266 214.46818308454487 262 210.46818308454487 Z" fill="#999999"></path><path d="M 313 206.46818308454485 L 317 210.46818308454485 313 214.46818308454485 309 210.46818308454485 Z" fill="#999999"></path><path d="M 337 165 L 341 169 337 173 333 169 Z" fill="#999999"></path><path d="M 313 123.53181691545512 L 317 127.53181691545512 313 131.53181691545512 309 127.53181691545512 Z" fill="#999999"></path></g><g class="highcharts-series"  transform="translate(10,10) scale(1 1)" visibility="visible" clip-path="url(#highcharts-9)"><path d="M 338.0997551789077 85.68878019850758 L 383.2720961233607 169 L 339.37209179357023 254.51497146241803 L 246.67880971443822 244.03450261895227 L 201.74575574177533 169 L 246.26959163647336 93.25671087863703 L 338.0997551789077 85.68878019850758" fill="none" stroke-linejoin="round" stroke-linecap="round"  stroke="#7cb5ec" stroke-width="2"></path></g><g class="highcharts-markers"  transform="translate(10,10) scale(1 1)" visibility="visible" clip-path="none"><path d="M 242 89.25671087863703 L 250 89.25671087863703 250 97.25671087863703 242 97.25671087863703 Z" fill="#7cb5ec"></path><path d="M 197 165 L 205 165 205 173 197 173 Z" fill="#7cb5ec"></path><path d="M 242 240.03450261895227 L 250 240.03450261895227 250 248.03450261895227 242 248.03450261895227 Z" fill="#7cb5ec"></path><path d="M 335 250.51497146241803 L 343 250.51497146241803 343 258.51497146241803 335 258.51497146241803 Z" fill="#7cb5ec"></path><path d="M 379 165 L 387 165 387 173 379 173 Z" fill="#7cb5ec"></path><path d="M 334 81.68878019850758 L 342 81.68878019850758 342 89.68878019850758 334 89.68878019850758 Z" fill="#7cb5ec"></path></g></g><g class="highcharts-legend"  transform="translate(154,368)"><g ><g><g class="highcharts-legend-item"  transform="translate(8,3)"><path d="M 0 11 L 16 11" fill="none" stroke="#ff0000" stroke-width="2"></path><path d="M 8 7 C 13.328 7 13.328 15 8 15 C 2.6719999999999997 15 2.6719999999999997 7 8 7 Z" fill="#ff0000"></path><text style="position: absolute; color: #333333; font-size: 12px; cursor: pointer; font-weight: bold; fill: #333333" x="21"  y="15" text-anchor="start">考生位置</text></g><g class="highcharts-legend-item"  transform="translate(101,3)"><path d="M 0 11 L 16 11" fill="none" stroke="#999999" stroke-width="2"></path><path d="M 8 7 L 12 11 8 15 4 11 Z" fill="#999999"></path><text style="position: absolute; color: #333333; font-size: 12px; cursor: pointer; font-weight: bold; fill: #333333" x="21"  y="15" text-anchor="start">平均分位置</text></g><g class="highcharts-legend-item"  transform="translate(207,3)"><path d="M 0 11 L 16 11" fill="none" stroke="#7cb5ec" stroke-width="2"></path><path d="M 4 7 L 12 7 12 15 4 15 Z" fill="#7cb5ec"></path><text style="position: absolute; color: #333333; font-size: 12px; cursor: pointer; font-weight: bold; fill: #333333" x="21"  y="15" text-anchor="start">最高分位置</text></g></g></g></g><g class="highcharts-axis-labels highcharts-xaxis-labels" ><text style="position: absolute; color: #606060; font-size: 11px; cursor: default; fill: #606060" opacity="1" x="379.325" y="46.1050696895988" text-anchor="start">语文</text><text style="position: absolute; color: #606060; font-size: 11px; cursor: default; fill: #606060" opacity="1" x="458.65" y="183.5" text-anchor="start">数学</text><text style="position: absolute; color: #606060; font-size: 11px; cursor: default; fill: #606060" opacity="1" x="379.325" y="320.894930310401" text-anchor="start">英语</text><text style="position: absolute; color: #606060; font-size: 11px; cursor: default; fill: #606060" opacity="1" x="220.675" y="320.894930310401" text-anchor="end">政治</text><text style="position: absolute; color: #606060; font-size: 11px; cursor: default; fill: #606060" opacity="1" x="141.35" y="183.5" text-anchor="end">历史</text><text style="position: absolute; color: #606060; font-size: 11px; cursor: default; fill: #606060" opacity="1" x="220.675" y="46.1050696895988" text-anchor="end">地理</text><text style="position: absolute; color: #606060; font-size: 11px; cursor: default; fill: #606060" x="0" y="-9999" text-anchor="start">6</text></g><g class="highcharts-axis-labels highcharts-yaxis-labels" ><text style="position: absolute; color: #606060; font-size: 11px; cursor: default; fill: #606060" opacity="1" x="297" y="129.116666666667" text-anchor="end">0</text><text style="position: absolute; color: #606060; font-size: 11px; cursor: default; fill: #606060" opacity="1" x="297" y="81.2333333333333" text-anchor="end">2</text><text style="position: absolute; color: #606060; font-size: 11px; cursor: default; fill: #606060" opacity="1" x="297" y="177" text-anchor="end">-2</text><text style="position: absolute; color: #606060; font-size: 11px; cursor: default; fill: #606060" x="0" y="-9999" text-anchor="end">4</text></g><g style="padding-bottom: 0px; padding-left: 0px; padding-right: 0px; white-space: nowrap; cursor: default; padding-top: 0px" class="highcharts-tooltip"  transform="translate(0,-9999)"><path d="M 3 0 L 13 0 C 16 0 16 0 16 3 L 16 13 C 16 16 16 16 13 16 L 3 16 C 0 16 0 16 0 13 L 0 3 C 0 0 0 0 3 0"  fill="none" transform="translate(1, 1)" stroke="black" stroke-opacity="0.05" stroke-width="5"></path><path d="M 3 0 L 13 0 C 16 0 16 0 16 3 L 16 13 C 16 16 16 16 13 16 L 3 16 C 0 16 0 16 0 13 L 0 3 C 0 0 0 0 3 0"  fill="none" transform="translate(1, 1)" stroke="black" stroke-opacity="0.1" stroke-width="3"></path><path d="M 3 0 L 13 0 C 16 0 16 0 16 3 L 16 13 C 16 16 16 16 13 16 L 3 16 C 0 16 0 16 0 13 L 0 3 C 0 0 0 0 3 0"  fill="none" transform="translate(1, 1)" stroke="black" stroke-opacity="0.15" stroke-width="1"></path><path d="M 3 0 L 13 0 C 16 0 16 0 16 3 L 16 13 C 16 16 16 16 13 16 L 3 16 C 0 16 0 16 0 13 L 0 3 C 0 0 0 0 3 0" fill="rgb(249, 249, 249)" fill-opacity=" .85"></path><text style="position: absolute; color: #333333; font-size: 12px; fill: #333333" x="8"  y="21"></text></g><text style="position: absolute; color: #909090; font-size: 9px; cursor: pointer; fill: #909090" x="590"  y="395" text-anchor="end">Septnet</text></svg>