<svg xmlns:xlink="http://www.w3.org/1999/xlink" version="1.1" style="font-family:'lucida grande', 'lucida sans unicode', arial, helvetica, sans-serif;font-size:12px;" xmlns="http://www.w3.org/2000/svg" width="600" height="400"><desc>Created with Highcharts 4.0.3</desc><defs><clipPath id="highcharts-8"><rect x="0" y="0" width="525" height="312"></rect></clipPath></defs><rect x="0" y="0" width="600" height="400" strokeWidth="0" fill="#FFFFFF" class=" highcharts-background"></rect><g class="highcharts-grid" ></g><g class="highcharts-grid" ><path fill="none" d="M 65 9.5 L 590 9.5" stroke="#C0C0C0" stroke-width="1"  opacity="1"></path><path fill="none" d="M 65 62.5 L 590 62.5" stroke="#C0C0C0" stroke-width="1"  opacity="1"></path><path fill="none" d="M 65 114.5 L 590 114.5" stroke="#C0C0C0" stroke-width="1"  opacity="1"></path><path fill="none" d="M 65 166.5 L 590 166.5" stroke="#C0C0C0" stroke-width="1"  opacity="1"></path><path fill="none" d="M 65 218.5 L 590 218.5" stroke="#C0C0C0" stroke-width="1"  opacity="1"></path><path fill="none" d="M 65 270.5 L 590 270.5" stroke="#C0C0C0" stroke-width="1"  opacity="1"></path><path fill="none" d="M 65 322.5 L 590 322.5" stroke="#C0C0C0" stroke-width="1"  opacity="1"></path></g><g class="highcharts-axis" ><path fill="none" d="M 327.5 322 L 327.5 332" stroke="#C0D0E0" stroke-width="1" opacity="1"></path><path fill="none" d="M 458.5 322 L 458.5 332" stroke="#C0D0E0" stroke-width="1" opacity="1"></path><path fill="none" d="M 590.5 322 L 590.5 332" stroke="#C0D0E0" stroke-width="1" opacity="1"></path><path fill="none" d="M 195.5 322 L 195.5 332" stroke="#C0D0E0" stroke-width="1" opacity="1"></path><path fill="none" d="M 64.5 322 L 64.5 332" stroke="#C0D0E0" stroke-width="1" opacity="1"></path><path fill="none" d="M 65 322.5 L 590 322.5" stroke="#C0D0E0" stroke-width="1"  visibility="visible"></path></g><g class="highcharts-axis" ><text x="28"  text-anchor="middle" transform="translate(0,0) rotate(270 28 166)" class=" highcharts-yaxis-title" style="color:#707070;fill:#707070;" visibility="visible" y="166">成绩（分）</text></g><g class="highcharts-series-group" ><g class="highcharts-series" visibility="visible"  transform="translate(65,10) scale(1 1)" clip-path="url(#highcharts-8)"><rect x="29.5" y="221.5" width="32" height="91" fill="#999999" rx="0" ry="0" stroke="#FFFFFF" stroke-width="1"></rect><rect x="160.5" y="221.5" width="32" height="91" fill="#999999" rx="0" ry="0" stroke="#FFFFFF" stroke-width="1"></rect><rect x="292.5" y="207.5" width="32" height="105" fill="#999999" rx="0" ry="0" stroke="#FFFFFF" stroke-width="1"></rect><rect x="423.5" y="151.5" width="32" height="161" fill="#999999" rx="0" ry="0" stroke="#FFFFFF" stroke-width="1"></rect></g><g class="highcharts-markers" visibility="visible"  transform="translate(65,10) scale(1 1)" clip-path="none"></g><g class="highcharts-series" visibility="visible"  transform="translate(65,10) scale(1 1)" clip-path="url(#highcharts-8)"><rect x="69.5" y="200.5" width="32" height="112" fill="#7cb5ec" rx="0" ry="0" stroke="#FFFFFF" stroke-width="1"></rect><rect x="200.5" y="167.5" width="32" height="145" fill="#7cb5ec" rx="0" ry="0" stroke="#FFFFFF" stroke-width="1"></rect><rect x="331.5" y="174.5" width="32" height="138" fill="#7cb5ec" rx="0" ry="0" stroke="#FFFFFF" stroke-width="1"></rect><rect x="462.5" y="34.5" width="32" height="278" fill="#7cb5ec" rx="0" ry="0" stroke="#FFFFFF" stroke-width="1"></rect></g><g class="highcharts-markers" visibility="visible"  transform="translate(65,10) scale(1 1)" clip-path="none"></g><g class="highcharts-series" visibility="visible"  transform="translate(65,10) scale(1 1)" clip-path="url(#highcharts-8)"><path fill="none" d="M 65.625 218.92000000000002 L 196.875 247.51999999999998 L 328.125 237.64 L 459.375 142.48" stroke="#ff0000" stroke-width="2"  stroke-linejoin="round" stroke-linecap="round"></path></g><g class="highcharts-markers" visibility="visible"  transform="translate(65,10) scale(1 1)" clip-path="none"><path fill="#ff0000" d="M 459 138.48 C 464.328 138.48 464.328 146.48 459 146.48 C 453.672 146.48 453.672 138.48 459 138.48 Z"></path><path fill="#ff0000" d="M 328 233.64 C 333.328 233.64 333.328 241.64 328 241.64 C 322.672 241.64 322.672 233.64 328 233.64 Z"></path><path fill="#ff0000" d="M 196 243.51999999999998 C 201.328 243.51999999999998 201.328 251.51999999999998 196 251.51999999999998 C 190.672 251.51999999999998 190.672 243.51999999999998 196 243.51999999999998 Z"></path><path fill="#ff0000" d="M 65 214.92000000000002 C 70.328 214.92000000000002 70.328 222.92000000000002 65 222.92000000000002 C 59.672 222.92000000000002 59.672 214.92000000000002 65 214.92000000000002 Z"></path></g></g><g class="highcharts-legend"  transform="translate(110,367)"><g ><g><g class="highcharts-legend-item"  transform="translate(8,3)"><path fill="none" d="M 0 11 L 16 11" stroke="#ff0000" stroke-width="2"></path><path fill="#ff0000" d="M 8 7 C 13.328 7 13.328 15 8 15 C 2.6719999999999997 15 2.6719999999999997 7 8 7 Z"></path><text x="21" style="color:#333333;font-size:12px;font-weight:bold;cursor:pointer;fill:#333333;" text-anchor="start"  y="15">考生成绩</text></g><g class="highcharts-legend-item"  transform="translate(98,3)"><text x="21" y="15" style="color:#333333;font-size:12px;font-weight:bold;cursor:pointer;fill:#333333;" text-anchor="start" >考生单位学生平均分</text><rect x="0" y="4" width="16" height="12"  fill="#999999"></rect></g><g class="highcharts-legend-item"  transform="translate(249,3)"><text x="21" y="15" style="color:#333333;font-size:12px;font-weight:bold;cursor:pointer;fill:#333333;" text-anchor="start" >考生单位学生最高分</text><rect x="0" y="4" width="16" height="12"  fill="#7cb5ec"></rect></g></g></g></g><g class="highcharts-axis-labels highcharts-xaxis-labels" ><text x="130.625" text-anchor="middle" style="width:111px;color:#606060;cursor:default;font-size:11px;fill:#606060;" y="342" opacity="1">语文</text><text x="261.875" text-anchor="middle" style="width:111px;color:#606060;cursor:default;font-size:11px;fill:#606060;" y="342" opacity="1">数学</text><text x="393.125" text-anchor="middle" style="width:111px;color:#606060;cursor:default;font-size:11px;fill:#606060;" y="342" opacity="1">英语</text><text x="524.375" text-anchor="middle" style="width:111px;color:#606060;cursor:default;font-size:11px;fill:#606060;" y="342" opacity="1">理科综合</text></g><g class="highcharts-axis-labels highcharts-yaxis-labels" ><text x="50" text-anchor="end" style="width:178px;color:#606060;cursor:default;font-size:11px;fill:#606060;" y="325.5" opacity="1">0</text><text x="50" text-anchor="end" style="width:178px;color:#606060;cursor:default;font-size:11px;fill:#606060;" y="273.5" opacity="1">50</text><text x="50" text-anchor="end" style="width:178px;color:#606060;cursor:default;font-size:11px;fill:#606060;" y="221.5" opacity="1">100</text><text x="50" text-anchor="end" style="width:178px;color:#606060;cursor:default;font-size:11px;fill:#606060;" y="169.5" opacity="1">150</text><text x="50" text-anchor="end" style="width:178px;color:#606060;cursor:default;font-size:11px;fill:#606060;" y="117.5" opacity="1">200</text><text x="50" text-anchor="end" style="width:178px;color:#606060;cursor:default;font-size:11px;fill:#606060;" y="65.5" opacity="1">250</text><text x="50" text-anchor="end" style="width:178px;color:#606060;cursor:default;font-size:11px;fill:#606060;" y="13.5" opacity="1">300</text></g><g class="highcharts-tooltip"  style="cursor:default;padding:0;white-space:nowrap;" transform="translate(0,-9999)"><path fill="none" d="M 3 0 L 13 0 C 16 0 16 0 16 3 L 16 13 C 16 16 16 16 13 16 L 3 16 C 0 16 0 16 0 13 L 0 3 C 0 0 0 0 3 0"  stroke="black" stroke-opacity="0.049999999999999996" stroke-width="5" transform="translate(1, 1)"></path><path fill="none" d="M 3 0 L 13 0 C 16 0 16 0 16 3 L 16 13 C 16 16 16 16 13 16 L 3 16 C 0 16 0 16 0 13 L 0 3 C 0 0 0 0 3 0"  stroke="black" stroke-opacity="0.09999999999999999" stroke-width="3" transform="translate(1, 1)"></path><path fill="none" d="M 3 0 L 13 0 C 16 0 16 0 16 3 L 16 13 C 16 16 16 16 13 16 L 3 16 C 0 16 0 16 0 13 L 0 3 C 0 0 0 0 3 0"  stroke="black" stroke-opacity="0.15" stroke-width="1" transform="translate(1, 1)"></path><path fill="rgb(249, 249, 249)" fill-opacity=" .85" d="M 3 0 L 13 0 C 16 0 16 0 16 3 L 16 13 C 16 16 16 16 13 16 L 3 16 C 0 16 0 16 0 13 L 0 3 C 0 0 0 0 3 0"></path><text x="8"  style="font-size:12px;color:#333333;fill:#333333;" y="21"></text></g><text x="590" text-anchor="end"  style="cursor:pointer;color:#909090;font-size:9px;fill:#909090;" y="395">Septnet</text></svg>