<svg xmlns:xlink="http://www.w3.org/1999/xlink" version="1.1" style="font-family:'lucida grande', 'lucida sans unicode', arial, helvetica, sans-serif;font-size:12px;" xmlns="http://www.w3.org/2000/svg" width="600" height="400"><desc>Created with Highcharts 4.0.3</desc><defs><clipPath id="highcharts-21"><rect x="0" y="0" width="515" height="312"></rect></clipPath></defs><rect x="0" y="0" width="600" height="400" strokeWidth="0" fill="#FFFFFF" class=" highcharts-background"></rect><g class="highcharts-grid" ></g><g class="highcharts-grid" ><path fill="none" d="M 75 9.5 L 590 9.5" stroke="#C0C0C0" stroke-width="1"  opacity="1"></path><path fill="none" d="M 75 55.5 L 590 55.5" stroke="#C0C0C0" stroke-width="1"  opacity="1"></path><path fill="none" d="M 75 99.5 L 590 99.5" stroke="#C0C0C0" stroke-width="1"  opacity="1"></path><path fill="none" d="M 75 144.5 L 590 144.5" stroke="#C0C0C0" stroke-width="1"  opacity="1"></path><path fill="none" d="M 75 188.5 L 590 188.5" stroke="#C0C0C0" stroke-width="1"  opacity="1"></path><path fill="none" d="M 75 233.5 L 590 233.5" stroke="#C0C0C0" stroke-width="1"  opacity="1"></path><path fill="none" d="M 75 277.5 L 590 277.5" stroke="#C0C0C0" stroke-width="1"  opacity="1"></path><path fill="none" d="M 75 322.5 L 590 322.5" stroke="#C0C0C0" stroke-width="1"  opacity="1"></path></g><g class="highcharts-axis" ><path fill="none" d="M 246.5 322 L 246.5 332" stroke="#C0D0E0" stroke-width="1" opacity="1"></path><path fill="none" d="M 332.5 322 L 332.5 332" stroke="#C0D0E0" stroke-width="1" opacity="1"></path><path fill="none" d="M 417.5 322 L 417.5 332" stroke="#C0D0E0" stroke-width="1" opacity="1"></path><path fill="none" d="M 503.5 322 L 503.5 332" stroke="#C0D0E0" stroke-width="1" opacity="1"></path><path fill="none" d="M 590.5 322 L 590.5 332" stroke="#C0D0E0" stroke-width="1" opacity="1"></path><path fill="none" d="M 160.5 322 L 160.5 332" stroke="#C0D0E0" stroke-width="1" opacity="1"></path><path fill="none" d="M 74.5 322 L 74.5 332" stroke="#C0D0E0" stroke-width="1" opacity="1"></path><path fill="none" d="M 75 322.5 L 590 322.5" stroke="#C0D0E0" stroke-width="1"  visibility="visible"></path></g><g class="highcharts-axis" ><text x="26"  text-anchor="middle" transform="translate(0,0) rotate(270 26 166)" class=" highcharts-yaxis-title" style="color:#707070;fill:#707070;" visibility="visible" y="166">成绩（分）</text></g><g class="highcharts-series-group" ><g class="highcharts-series" visibility="visible"  transform="translate(75,10) scale(1 1)" clip-path="url(#highcharts-21)"><rect x="19.5" y="121.5" width="21" height="191" fill="#999999" rx="0" ry="0" stroke="#FFFFFF" stroke-width="1"></rect><rect x="105.5" y="76.5" width="21" height="236" fill="#999999" rx="0" ry="0" stroke="#FFFFFF" stroke-width="1"></rect><rect x="190.5" y="101.5" width="21" height="211" fill="#999999" rx="0" ry="0" stroke="#FFFFFF" stroke-width="1"></rect><rect x="276.5" y="153.5" width="21" height="159" fill="#999999" rx="0" ry="0" stroke="#FFFFFF" stroke-width="1"></rect><rect x="362.5" y="149.5" width="21" height="163" fill="#999999" rx="0" ry="0" stroke="#FFFFFF" stroke-width="1"></rect><rect x="448.5" y="162.5" width="21" height="150" fill="#999999" rx="0" ry="0" stroke="#FFFFFF" stroke-width="1"></rect></g><g class="highcharts-markers" visibility="visible"  transform="translate(75,10) scale(1 1)" clip-path="none"></g><g class="highcharts-series" visibility="visible"  transform="translate(75,10) scale(1 1)" clip-path="url(#highcharts-21)"><rect x="44.5" y="102.5" width="21" height="210" fill="#7cb5ec" rx="0" ry="0" stroke="#FFFFFF" stroke-width="1"></rect><rect x="130.5" y="45.5" width="21" height="267" fill="#7cb5ec" rx="0" ry="0" stroke="#FFFFFF" stroke-width="1"></rect><rect x="216.5" y="56.5" width="21" height="256" fill="#7cb5ec" rx="0" ry="0" stroke="#FFFFFF" stroke-width="1"></rect><rect x="302.5" y="134.5" width="21" height="178" fill="#7cb5ec" rx="0" ry="0" stroke="#FFFFFF" stroke-width="1"></rect><rect x="388.5" y="134.5" width="21" height="178" fill="#7cb5ec" rx="0" ry="0" stroke="#FFFFFF" stroke-width="1"></rect><rect x="474.5" y="147.5" width="21" height="165" fill="#7cb5ec" rx="0" ry="0" stroke="#FFFFFF" stroke-width="1"></rect></g><g class="highcharts-markers" visibility="visible"  transform="translate(75,10) scale(1 1)" clip-path="none"></g><g class="highcharts-series" visibility="visible"  transform="translate(75,10) scale(1 1)" clip-path="url(#highcharts-21)"><path fill="none" d="M 42.916666666666664 124.79999999999998 L 128.75 71.31428571428572 L 214.58333333333331 89.14285714285714 L 300.4166666666667 139.06285714285713 L 386.25 147.97714285714284 L 472.0833333333333 163.13142857142856" stroke="#ff0000" stroke-width="2"  stroke-linejoin="round" stroke-linecap="round"></path></g><g class="highcharts-markers" visibility="visible"  transform="translate(75,10) scale(1 1)" clip-path="none"><path fill="#ff0000" d="M 472 159.13142857142856 C 477.328 159.13142857142856 477.328 167.13142857142856 472 167.13142857142856 C 466.672 167.13142857142856 466.672 159.13142857142856 472 159.13142857142856 Z"></path><path fill="#ff0000" d="M 386 143.97714285714284 C 391.328 143.97714285714284 391.328 151.97714285714284 386 151.97714285714284 C 380.672 151.97714285714284 380.672 143.97714285714284 386 143.97714285714284 Z"></path><path fill="#ff0000" d="M 300 135.06285714285713 C 305.328 135.06285714285713 305.328 143.06285714285713 300 143.06285714285713 C 294.672 143.06285714285713 294.672 135.06285714285713 300 135.06285714285713 Z"></path><path fill="#ff0000" d="M 214 85.14285714285714 C 219.328 85.14285714285714 219.328 93.14285714285714 214 93.14285714285714 C 208.672 93.14285714285714 208.672 85.14285714285714 214 85.14285714285714 Z"></path><path fill="#ff0000" d="M 128 67.31428571428572 C 133.328 67.31428571428572 133.328 75.31428571428572 128 75.31428571428572 C 122.672 75.31428571428572 122.672 67.31428571428572 128 67.31428571428572 Z"></path><path fill="#ff0000" d="M 42 120.79999999999998 C 47.328 120.79999999999998 47.328 128.79999999999998 42 128.79999999999998 C 36.672 128.79999999999998 36.672 120.79999999999998 42 120.79999999999998 Z"></path></g></g><g class="highcharts-legend"  transform="translate(102,366)"><g ><g><g class="highcharts-legend-item"  transform="translate(8,3)"><path fill="none" d="M 0 11 L 16 11" stroke="#ff0000" stroke-width="2"></path><path fill="#ff0000" d="M 8 7 C 13.328 7 13.328 15 8 15 C 2.6719999999999997 15 2.6719999999999997 7 8 7 Z"></path><text x="21" style="color:#333333;font-size:12px;font-weight:bold;cursor:pointer;fill:#333333;" text-anchor="start"  y="15">考生成绩</text></g><g class="highcharts-legend-item"  transform="translate(101,3)"><text x="21" y="15" style="color:#333333;font-size:12px;font-weight:bold;cursor:pointer;fill:#333333;" text-anchor="start" >考生单位学生平均分</text><rect x="0" y="4" width="16" height="12"  fill="#999999"></rect></g><g class="highcharts-legend-item"  transform="translate(259,3)"><text x="21" y="15" style="color:#333333;font-size:12px;font-weight:bold;cursor:pointer;fill:#333333;" text-anchor="start" >考生单位学生最高分</text><rect x="0" y="4" width="16" height="12"  fill="#7cb5ec"></rect></g></g></g></g><g class="highcharts-axis-labels highcharts-xaxis-labels" ><text x="117.91666666666666" text-anchor="middle" style="width:66px;color:#606060;cursor:default;font-size:11px;fill:#606060;" y="343" opacity="1">语文</text><text x="203.75" text-anchor="middle" style="width:66px;color:#606060;cursor:default;font-size:11px;fill:#606060;" y="343" opacity="1">数学</text><text x="289.5833333333333" text-anchor="middle" style="width:66px;color:#606060;cursor:default;font-size:11px;fill:#606060;" y="343" opacity="1">英语</text><text x="375.41666666666663" text-anchor="middle" style="width:66px;color:#606060;cursor:default;font-size:11px;fill:#606060;" y="343" opacity="1">物理</text><text x="461.25" text-anchor="middle" style="width:66px;color:#606060;cursor:default;font-size:11px;fill:#606060;" y="343" opacity="1">化学</text><text x="547.0833333333334" text-anchor="middle" style="width:66px;color:#606060;cursor:default;font-size:11px;fill:#606060;" y="343" opacity="1">生物</text></g><g class="highcharts-axis-labels highcharts-yaxis-labels" ><text x="60" text-anchor="end" style="width:178px;color:#606060;cursor:default;font-size:11px;fill:#606060;" y="327" opacity="1">0</text><text x="60" text-anchor="end" style="width:178px;color:#606060;cursor:default;font-size:11px;fill:#606060;" y="282.42857142857144" opacity="1">25</text><text x="60" text-anchor="end" style="width:178px;color:#606060;cursor:default;font-size:11px;fill:#606060;" y="237.8571428571429" opacity="1">50</text><text x="60" text-anchor="end" style="width:178px;color:#606060;cursor:default;font-size:11px;fill:#606060;" y="193.28571428571428" opacity="1">75</text><text x="60" text-anchor="end" style="width:178px;color:#606060;cursor:default;font-size:11px;fill:#606060;" y="148.71428571428572" opacity="1">100</text><text x="60" text-anchor="end" style="width:178px;color:#606060;cursor:default;font-size:11px;fill:#606060;" y="104.14285714285714" opacity="1">125</text><text x="60" text-anchor="end" style="width:178px;color:#606060;cursor:default;font-size:11px;fill:#606060;" y="59.571428571428555" opacity="1">150</text><text x="60" text-anchor="end" style="width:178px;color:#606060;cursor:default;font-size:11px;fill:#606060;" y="15" opacity="1">175</text></g><g class="highcharts-tooltip"  style="cursor:default;padding:0;white-space:nowrap;" transform="translate(0,-9999)"><path fill="none" d="M 3 0 L 13 0 C 16 0 16 0 16 3 L 16 13 C 16 16 16 16 13 16 L 3 16 C 0 16 0 16 0 13 L 0 3 C 0 0 0 0 3 0"  stroke="black" stroke-opacity="0.049999999999999996" stroke-width="5" transform="translate(1, 1)"></path><path fill="none" d="M 3 0 L 13 0 C 16 0 16 0 16 3 L 16 13 C 16 16 16 16 13 16 L 3 16 C 0 16 0 16 0 13 L 0 3 C 0 0 0 0 3 0"  stroke="black" stroke-opacity="0.09999999999999999" stroke-width="3" transform="translate(1, 1)"></path><path fill="none" d="M 3 0 L 13 0 C 16 0 16 0 16 3 L 16 13 C 16 16 16 16 13 16 L 3 16 C 0 16 0 16 0 13 L 0 3 C 0 0 0 0 3 0"  stroke="black" stroke-opacity="0.15" stroke-width="1" transform="translate(1, 1)"></path><path fill="rgb(249, 249, 249)" fill-opacity=" .85" d="M 3 0 L 13 0 C 16 0 16 0 16 3 L 16 13 C 16 16 16 16 13 16 L 3 16 C 0 16 0 16 0 13 L 0 3 C 0 0 0 0 3 0"></path><text x="8"  style="font-size:12px;color:#333333;fill:#333333;" y="21"></text></g><text x="590" text-anchor="end"  style="cursor:pointer;color:#909090;font-size:9px;fill:#909090;" y="395">Septnet</text></svg>