<svg xmlns:xlink="http://www.w3.org/1999/xlink" version="1.1" style="font-family:'lucida grande', 'lucida sans unicode', arial, helvetica, sans-serif;font-size:12px;" xmlns="http://www.w3.org/2000/svg" width="600" height="400"><desc>Created with Highcharts 4.0.3</desc><defs><clipPath id="highcharts-7"><rect x="0" y="0" width="523" height="318"></rect></clipPath></defs><rect x="0" y="0" width="600" height="400" strokeWidth="0" fill="#FFFFFF" class=" highcharts-background"></rect><g class="highcharts-grid" ></g><g class="highcharts-grid" ><path fill="none" d="M 67 9.5 L 590 9.5" stroke="#C0C0C0" stroke-width="1"  opacity="1"></path><path fill="none" d="M 67 55.5 L 590 55.5" stroke="#C0C0C0" stroke-width="1"  opacity="1"></path><path fill="none" d="M 67 101.5 L 590 101.5" stroke="#C0C0C0" stroke-width="1"  opacity="1"></path><path fill="none" d="M 67 146.5 L 590 146.5" stroke="#C0C0C0" stroke-width="1"  opacity="1"></path><path fill="none" d="M 67 192.5 L 590 192.5" stroke="#C0C0C0" stroke-width="1"  opacity="1"></path><path fill="none" d="M 67 237.5 L 590 237.5" stroke="#C0C0C0" stroke-width="1"  opacity="1"></path><path fill="none" d="M 67 283.5 L 590 283.5" stroke="#C0C0C0" stroke-width="1"  opacity="1"></path><path fill="none" d="M 67 328.5 L 590 328.5" stroke="#C0C0C0" stroke-width="1"  opacity="1"></path></g><g class="highcharts-axis" ><path fill="none" d="M 240.5 328 L 240.5 338" stroke="#C0D0E0" stroke-width="1" opacity="1"></path><path fill="none" d="M 328.5 328 L 328.5 338" stroke="#C0D0E0" stroke-width="1" opacity="1"></path><path fill="none" d="M 415.5 328 L 415.5 338" stroke="#C0D0E0" stroke-width="1" opacity="1"></path><path fill="none" d="M 502.5 328 L 502.5 338" stroke="#C0D0E0" stroke-width="1" opacity="1"></path><path fill="none" d="M 590.5 328 L 590.5 338" stroke="#C0D0E0" stroke-width="1" opacity="1"></path><path fill="none" d="M 153.5 328 L 153.5 338" stroke="#C0D0E0" stroke-width="1" opacity="1"></path><path fill="none" d="M 66.5 328 L 66.5 338" stroke="#C0D0E0" stroke-width="1" opacity="1"></path><path fill="none" d="M 67 328.5 L 590 328.5" stroke="#C0D0E0" stroke-width="1"  visibility="visible"></path></g><g class="highcharts-axis" ><text x="23.640625"  text-anchor="middle" transform="translate(0,0) rotate(270 23.640625 169)" class=" highcharts-yaxis-title" style="color:#707070;fill:#707070;" visibility="visible" y="169">成绩（分）</text></g><g class="highcharts-series-group" ><g class="highcharts-series" visibility="visible"  transform="translate(67,10) scale(1 1)" clip-path="url(#highcharts-7)"><rect x="19.5" y="158.5" width="21" height="160" fill="#999999" rx="0" ry="0" stroke="#FFFFFF" stroke-width="1"></rect><rect x="106.5" y="226.5" width="21" height="92" fill="#999999" rx="0" ry="0" stroke="#FFFFFF" stroke-width="1"></rect><rect x="193.5" y="192.5" width="21" height="126" fill="#999999" rx="0" ry="0" stroke="#FFFFFF" stroke-width="1"></rect><rect x="281.5" y="235.5" width="21" height="83" fill="#999999" rx="0" ry="0" stroke="#FFFFFF" stroke-width="1"></rect><rect x="368.5" y="227.5" width="21" height="91" fill="#999999" rx="0" ry="0" stroke="#FFFFFF" stroke-width="1"></rect><rect x="455.5" y="207.5" width="21" height="111" fill="#999999" rx="0" ry="0" stroke="#FFFFFF" stroke-width="1"></rect></g><g class="highcharts-markers" visibility="visible"  transform="translate(67,10) scale(1 1)" clip-path="none"></g><g class="highcharts-series" visibility="visible"  transform="translate(67,10) scale(1 1)" clip-path="url(#highcharts-7)"><rect x="45.5" y="96.5" width="21" height="222" fill="#7cb5ec" rx="0" ry="0" stroke="#FFFFFF" stroke-width="1"></rect><rect x="132.5" y="47.5" width="21" height="271" fill="#7cb5ec" rx="0" ry="0" stroke="#FFFFFF" stroke-width="1"></rect><rect x="220.5" y="78.5" width="21" height="240" fill="#7cb5ec" rx="0" ry="0" stroke="#FFFFFF" stroke-width="1"></rect><rect x="307.5" y="158.5" width="21" height="160" fill="#7cb5ec" rx="0" ry="0" stroke="#FFFFFF" stroke-width="1"></rect><rect x="394.5" y="173.5" width="21" height="145" fill="#7cb5ec" rx="0" ry="0" stroke="#FFFFFF" stroke-width="1"></rect><rect x="481.5" y="154.5" width="21" height="164" fill="#7cb5ec" rx="0" ry="0" stroke="#FFFFFF" stroke-width="1"></rect></g><g class="highcharts-markers" visibility="visible"  transform="translate(67,10) scale(1 1)" clip-path="none"></g><g class="highcharts-series" visibility="visible"  transform="translate(67,10) scale(1 1)" clip-path="url(#highcharts-7)"><path fill="none" d="M 43.583333333333336 136.28571428571428 L 130.75 199.8857142857143 L 217.91666666666669 165.35999999999999 L 305.0833333333333 201.70285714285714 L 392.25 203.51999999999998 L 479.4166666666667 167.17714285714285" stroke="#ff0000" stroke-width="2"  stroke-linejoin="round" stroke-linecap="round"></path></g><g class="highcharts-markers" visibility="visible"  transform="translate(67,10) scale(1 1)" clip-path="none"><path fill="#ff0000" d="M 479 163.17714285714285 C 484.328 163.17714285714285 484.328 171.17714285714285 479 171.17714285714285 C 473.672 171.17714285714285 473.672 163.17714285714285 479 163.17714285714285 Z"></path><path fill="#ff0000" d="M 392 199.51999999999998 C 397.328 199.51999999999998 397.328 207.51999999999998 392 207.51999999999998 C 386.672 207.51999999999998 386.672 199.51999999999998 392 199.51999999999998 Z"></path><path fill="#ff0000" d="M 305 197.70285714285714 C 310.328 197.70285714285714 310.328 205.70285714285714 305 205.70285714285714 C 299.672 205.70285714285714 299.672 197.70285714285714 305 197.70285714285714 Z"></path><path fill="#ff0000" d="M 217 161.35999999999999 C 222.328 161.35999999999999 222.328 169.35999999999999 217 169.35999999999999 C 211.672 169.35999999999999 211.672 161.35999999999999 217 161.35999999999999 Z"></path><path fill="#ff0000" d="M 130 195.8857142857143 C 135.328 195.8857142857143 135.328 203.8857142857143 130 203.8857142857143 C 124.672 203.8857142857143 124.672 195.8857142857143 130 195.8857142857143 Z"></path><path fill="#ff0000" d="M 43 132.28571428571428 C 48.328 132.28571428571428 48.328 140.28571428571428 43 140.28571428571428 C 37.672 140.28571428571428 37.672 132.28571428571428 43 132.28571428571428 Z"></path></g></g><g class="highcharts-legend"  transform="translate(137,368)"><g ><g><g class="highcharts-legend-item"  transform="translate(8,3)"><path fill="none" d="M 0 11 L 16 11" stroke="#ff0000" stroke-width="2"></path><path fill="#ff0000" d="M 8 7 C 13.328 7 13.328 15 8 15 C 2.6719999999999997 15 2.6719999999999997 7 8 7 Z"></path><text x="21" style="color:#333333;font-size:12px;font-weight:bold;cursor:pointer;fill:#333333;" text-anchor="start"  y="15">考生成绩</text></g><g class="highcharts-legend-item"  transform="translate(97,3)"><text x="21" y="15" style="color:#333333;font-size:12px;font-weight:bold;cursor:pointer;fill:#333333;" text-anchor="start" >全体学生平均分</text><rect x="0" y="4" width="16" height="12"  fill="#999999"></rect></g><g class="highcharts-legend-item"  transform="translate(222,3)"><text x="21" y="15" style="color:#333333;font-size:12px;font-weight:bold;cursor:pointer;fill:#333333;" text-anchor="start" >全体学生最高分</text><rect x="0" y="4" width="16" height="12"  fill="#7cb5ec"></rect></g></g></g></g><g class="highcharts-axis-labels highcharts-xaxis-labels" ><text x="110.58333333333334" text-anchor="middle" style="width:67px;color:#606060;cursor:default;font-size:11px;fill:#606060;" y="348" opacity="1">语文</text><text x="197.75" text-anchor="middle" style="width:67px;color:#606060;cursor:default;font-size:11px;fill:#606060;" y="348" opacity="1">数学</text><text x="284.9166666666667" text-anchor="middle" style="width:67px;color:#606060;cursor:default;font-size:11px;fill:#606060;" y="348" opacity="1">英语</text><text x="372.08333333333337" text-anchor="middle" style="width:67px;color:#606060;cursor:default;font-size:11px;fill:#606060;" y="348" opacity="1">政治</text><text x="459.25" text-anchor="middle" style="width:67px;color:#606060;cursor:default;font-size:11px;fill:#606060;" y="348" opacity="1">历史</text><text x="546.4166666666666" text-anchor="middle" style="width:67px;color:#606060;cursor:default;font-size:11px;fill:#606060;" y="348" opacity="1">地理</text></g><g class="highcharts-axis-labels highcharts-yaxis-labels" ><text x="52" text-anchor="end" style="width:178px;color:#606060;cursor:default;font-size:11px;fill:#606060;" y="333.75" opacity="1">0</text><text x="52" text-anchor="end" style="width:178px;color:#606060;cursor:default;font-size:11px;fill:#606060;" y="288.32142857142856" opacity="1">25</text><text x="52" text-anchor="end" style="width:178px;color:#606060;cursor:default;font-size:11px;fill:#606060;" y="242.8928571428571" opacity="1">50</text><text x="52" text-anchor="end" style="width:178px;color:#606060;cursor:default;font-size:11px;fill:#606060;" y="197.46428571428572" opacity="1">75</text><text x="52" text-anchor="end" style="width:178px;color:#606060;cursor:default;font-size:11px;fill:#606060;" y="152.03571428571428" opacity="1">100</text><text x="52" text-anchor="end" style="width:178px;color:#606060;cursor:default;font-size:11px;fill:#606060;" y="106.60714285714286" opacity="1">125</text><text x="52" text-anchor="end" style="width:178px;color:#606060;cursor:default;font-size:11px;fill:#606060;" y="61.178571428571445" opacity="1">150</text><text x="52" text-anchor="end" style="width:178px;color:#606060;cursor:default;font-size:11px;fill:#606060;" y="15.75" opacity="1">175</text></g><g class="highcharts-tooltip"  style="cursor:default;padding:0;white-space:nowrap;" transform="translate(0,-9999)"><path fill="none" d="M 3 0 L 13 0 C 16 0 16 0 16 3 L 16 13 C 16 16 16 16 13 16 L 3 16 C 0 16 0 16 0 13 L 0 3 C 0 0 0 0 3 0"  stroke="black" stroke-opacity="0.049999999999999996" stroke-width="5" transform="translate(1, 1)"></path><path fill="none" d="M 3 0 L 13 0 C 16 0 16 0 16 3 L 16 13 C 16 16 16 16 13 16 L 3 16 C 0 16 0 16 0 13 L 0 3 C 0 0 0 0 3 0"  stroke="black" stroke-opacity="0.09999999999999999" stroke-width="3" transform="translate(1, 1)"></path><path fill="none" d="M 3 0 L 13 0 C 16 0 16 0 16 3 L 16 13 C 16 16 16 16 13 16 L 3 16 C 0 16 0 16 0 13 L 0 3 C 0 0 0 0 3 0"  stroke="black" stroke-opacity="0.15" stroke-width="1" transform="translate(1, 1)"></path><path fill="rgb(249, 249, 249)" fill-opacity=" .85" d="M 3 0 L 13 0 C 16 0 16 0 16 3 L 16 13 C 16 16 16 16 13 16 L 3 16 C 0 16 0 16 0 13 L 0 3 C 0 0 0 0 3 0"></path><text x="8"  style="font-size:12px;color:#333333;fill:#333333;" y="21"></text></g><text x="590" text-anchor="end"  style="cursor:pointer;color:#909090;font-size:9px;fill:#909090;" y="395">Septnet</text></svg>