<svg xmlns:xlink="http://www.w3.org/1999/xlink" version="1.1" style="font-family:'lucida grande', 'lucida sans unicode', arial, helvetica, sans-serif;font-size:12px;" xmlns="http://www.w3.org/2000/svg" width="600" height="400"><desc>Created with Highcharts 4.0.3</desc><defs><clipPath id="highcharts-11"><rect x="0" y="0" width="525" height="319"></rect></clipPath></defs><rect x="0" y="0" width="600" height="400" strokeWidth="0" fill="#FFFFFF" class=" highcharts-background"></rect><g class="highcharts-grid" ></g><g class="highcharts-grid" ><path fill="none" d="M 65 9.5 L 590 9.5" stroke="#C0C0C0" stroke-width="1"  opacity="1"></path><path fill="none" d="M 65 56.5 L 590 56.5" stroke="#C0C0C0" stroke-width="1"  opacity="1"></path><path fill="none" d="M 65 101.5 L 590 101.5" stroke="#C0C0C0" stroke-width="1"  opacity="1"></path><path fill="none" d="M 65 147.5 L 590 147.5" stroke="#C0C0C0" stroke-width="1"  opacity="1"></path><path fill="none" d="M 65 192.5 L 590 192.5" stroke="#C0C0C0" stroke-width="1"  opacity="1"></path><path fill="none" d="M 65 238.5 L 590 238.5" stroke="#C0C0C0" stroke-width="1"  opacity="1"></path><path fill="none" d="M 65 283.5 L 590 283.5" stroke="#C0C0C0" stroke-width="1"  opacity="1"></path><path fill="none" d="M 65 329.5 L 590 329.5" stroke="#C0C0C0" stroke-width="1"  opacity="1"></path></g><g class="highcharts-axis" ><path fill="none" d="M 239.5 329 L 239.5 339" stroke="#C0D0E0" stroke-width="1" opacity="1"></path><path fill="none" d="M 327.5 329 L 327.5 339" stroke="#C0D0E0" stroke-width="1" opacity="1"></path><path fill="none" d="M 414.5 329 L 414.5 339" stroke="#C0D0E0" stroke-width="1" opacity="1"></path><path fill="none" d="M 502.5 329 L 502.5 339" stroke="#C0D0E0" stroke-width="1" opacity="1"></path><path fill="none" d="M 590.5 329 L 590.5 339" stroke="#C0D0E0" stroke-width="1" opacity="1"></path><path fill="none" d="M 152.5 329 L 152.5 339" stroke="#C0D0E0" stroke-width="1" opacity="1"></path><path fill="none" d="M 64.5 329 L 64.5 339" stroke="#C0D0E0" stroke-width="1" opacity="1"></path><path fill="none" d="M 65 329.5 L 590 329.5" stroke="#C0D0E0" stroke-width="1"  visibility="visible"></path></g><g class="highcharts-axis" ><text x="23"  text-anchor="middle" transform="translate(0,0) rotate(270 23 169.5)" class=" highcharts-yaxis-title" style="color:#707070;fill:#707070;" visibility="visible" y="169.5">成绩（分）</text></g><g class="highcharts-series-group" ><g class="highcharts-series" visibility="visible"  transform="translate(65,10) scale(1 1)" clip-path="url(#highcharts-11)"><rect x="19.5" y="133.5" width="21" height="186" fill="#999999" rx="0" ry="0" stroke="#FFFFFF" stroke-width="1"></rect><rect x="107.5" y="117.5" width="21" height="202" fill="#999999" rx="0" ry="0" stroke="#FFFFFF" stroke-width="1"></rect><rect x="194.5" y="136.5" width="21" height="183" fill="#999999" rx="0" ry="0" stroke="#FFFFFF" stroke-width="1"></rect><rect x="282.5" y="161.5" width="21" height="158" fill="#999999" rx="0" ry="0" stroke="#FFFFFF" stroke-width="1"></rect><rect x="369.5" y="168.5" width="21" height="151" fill="#999999" rx="0" ry="0" stroke="#FFFFFF" stroke-width="1"></rect><rect x="457.5" y="187.5" width="21" height="132" fill="#999999" rx="0" ry="0" stroke="#FFFFFF" stroke-width="1"></rect></g><g class="highcharts-markers" visibility="visible"  transform="translate(65,10) scale(1 1)" clip-path="none"></g><g class="highcharts-series" visibility="visible"  transform="translate(65,10) scale(1 1)" clip-path="url(#highcharts-11)"><rect x="45.5" y="111.5" width="21" height="208" fill="#7cb5ec" rx="0" ry="0" stroke="#FFFFFF" stroke-width="1"></rect><rect x="133.5" y="55.5" width="21" height="264" fill="#7cb5ec" rx="0" ry="0" stroke="#FFFFFF" stroke-width="1"></rect><rect x="220.5" y="85.5" width="21" height="234" fill="#7cb5ec" rx="0" ry="0" stroke="#FFFFFF" stroke-width="1"></rect><rect x="308.5" y="137.5" width="21" height="182" fill="#7cb5ec" rx="0" ry="0" stroke="#FFFFFF" stroke-width="1"></rect><rect x="395.5" y="149.5" width="21" height="170" fill="#7cb5ec" rx="0" ry="0" stroke="#FFFFFF" stroke-width="1"></rect><rect x="483.5" y="147.5" width="21" height="172" fill="#7cb5ec" rx="0" ry="0" stroke="#FFFFFF" stroke-width="1"></rect></g><g class="highcharts-markers" visibility="visible"  transform="translate(65,10) scale(1 1)" clip-path="none"></g><g class="highcharts-series" visibility="visible"  transform="translate(65,10) scale(1 1)" clip-path="url(#highcharts-11)"><path fill="none" d="M 43.75 140.35999999999999 L 131.25 129.42285714285714 L 218.75 103.90285714285713 L 306.25 153.12 L 393.75 153.12 L 481.25 178.64" stroke="#ff0000" stroke-width="2"  stroke-linejoin="round" stroke-linecap="round"></path></g><g class="highcharts-markers" visibility="visible"  transform="translate(65,10) scale(1 1)" clip-path="none"><path fill="#ff0000" d="M 481 174.64 C 486.328 174.64 486.328 182.64 481 182.64 C 475.672 182.64 475.672 174.64 481 174.64 Z"></path><path fill="#ff0000" d="M 393 149.12 C 398.328 149.12 398.328 157.12 393 157.12 C 387.672 157.12 387.672 149.12 393 149.12 Z"></path><path fill="#ff0000" d="M 306 149.12 C 311.328 149.12 311.328 157.12 306 157.12 C 300.672 157.12 300.672 149.12 306 149.12 Z"></path><path fill="#ff0000" d="M 218 99.90285714285713 C 223.328 99.90285714285713 223.328 107.90285714285713 218 107.90285714285713 C 212.672 107.90285714285713 212.672 99.90285714285713 218 99.90285714285713 Z"></path><path fill="#ff0000" d="M 131 125.42285714285714 C 136.328 125.42285714285714 136.328 133.42285714285714 131 133.42285714285714 C 125.672 133.42285714285714 125.672 125.42285714285714 131 125.42285714285714 Z"></path><path fill="#ff0000" d="M 43 136.35999999999999 C 48.328 136.35999999999999 48.328 144.35999999999999 43 144.35999999999999 C 37.672 144.35999999999999 37.672 136.35999999999999 43 136.35999999999999 Z"></path></g></g><g class="highcharts-legend"  transform="translate(113,369)"><g ><g><g class="highcharts-legend-item"  transform="translate(8,3)"><path fill="none" d="M 0 11 L 16 11" stroke="#ff0000" stroke-width="2"></path><path fill="#ff0000" d="M 8 7 C 13.328 7 13.328 15 8 15 C 2.6719999999999997 15 2.6719999999999997 7 8 7 Z"></path><text x="21" style="color:#333333;font-size:12px;font-weight:bold;cursor:pointer;fill:#333333;" text-anchor="start"  y="15">考生成绩</text></g><g class="highcharts-legend-item"  transform="translate(97,3)"><text x="21" y="15" style="color:#333333;font-size:12px;font-weight:bold;cursor:pointer;fill:#333333;" text-anchor="start" >考生单位学生平均分</text><rect x="0" y="4" width="16" height="12"  fill="#999999"></rect></g><g class="highcharts-legend-item"  transform="translate(246,3)"><text x="21" y="15" style="color:#333333;font-size:12px;font-weight:bold;cursor:pointer;fill:#333333;" text-anchor="start" >考生单位学生最高分</text><rect x="0" y="4" width="16" height="12"  fill="#7cb5ec"></rect></g></g></g></g><g class="highcharts-axis-labels highcharts-xaxis-labels" ><text x="108.75" text-anchor="middle" style="width:68px;color:#606060;cursor:default;font-size:11px;fill:#606060;" y="349" opacity="1">语文</text><text x="196.25" text-anchor="middle" style="width:68px;color:#606060;cursor:default;font-size:11px;fill:#606060;" y="349" opacity="1">数学</text><text x="283.75" text-anchor="middle" style="width:68px;color:#606060;cursor:default;font-size:11px;fill:#606060;" y="349" opacity="1">英语</text><text x="371.25" text-anchor="middle" style="width:68px;color:#606060;cursor:default;font-size:11px;fill:#606060;" y="349" opacity="1">物理</text><text x="458.75" text-anchor="middle" style="width:68px;color:#606060;cursor:default;font-size:11px;fill:#606060;" y="349" opacity="1">化学</text><text x="546.25" text-anchor="middle" style="width:68px;color:#606060;cursor:default;font-size:11px;fill:#606060;" y="349" opacity="1">生物</text></g><g class="highcharts-axis-labels highcharts-yaxis-labels" ><text x="50" text-anchor="end" style="width:178px;color:#606060;cursor:default;font-size:11px;fill:#606060;" y="335" opacity="1">0</text><text x="50" text-anchor="end" style="width:178px;color:#606060;cursor:default;font-size:11px;fill:#606060;" y="289.42857142857144" opacity="1">25</text><text x="50" text-anchor="end" style="width:178px;color:#606060;cursor:default;font-size:11px;fill:#606060;" y="243.85714285714283" opacity="1">50</text><text x="50" text-anchor="end" style="width:178px;color:#606060;cursor:default;font-size:11px;fill:#606060;" y="198.28571428571428" opacity="1">75</text><text x="50" text-anchor="end" style="width:178px;color:#606060;cursor:default;font-size:11px;fill:#606060;" y="152.7142857142857" opacity="1">100</text><text x="50" text-anchor="end" style="width:178px;color:#606060;cursor:default;font-size:11px;fill:#606060;" y="107.14285714285714" opacity="1">125</text><text x="50" text-anchor="end" style="width:178px;color:#606060;cursor:default;font-size:11px;fill:#606060;" y="61.571428571428555" opacity="1">150</text><text x="50" text-anchor="end" style="width:178px;color:#606060;cursor:default;font-size:11px;fill:#606060;" y="16" opacity="1">175</text></g><g class="highcharts-tooltip"  style="cursor:default;padding:0;white-space:nowrap;" transform="translate(0,-9999)"><path fill="none" d="M 3 0 L 13 0 C 16 0 16 0 16 3 L 16 13 C 16 16 16 16 13 16 L 3 16 C 0 16 0 16 0 13 L 0 3 C 0 0 0 0 3 0"  stroke="black" stroke-opacity="0.049999999999999996" stroke-width="5" transform="translate(1, 1)"></path><path fill="none" d="M 3 0 L 13 0 C 16 0 16 0 16 3 L 16 13 C 16 16 16 16 13 16 L 3 16 C 0 16 0 16 0 13 L 0 3 C 0 0 0 0 3 0"  stroke="black" stroke-opacity="0.09999999999999999" stroke-width="3" transform="translate(1, 1)"></path><path fill="none" d="M 3 0 L 13 0 C 16 0 16 0 16 3 L 16 13 C 16 16 16 16 13 16 L 3 16 C 0 16 0 16 0 13 L 0 3 C 0 0 0 0 3 0"  stroke="black" stroke-opacity="0.15" stroke-width="1" transform="translate(1, 1)"></path><path fill="rgb(249, 249, 249)" fill-opacity=" .85" d="M 3 0 L 13 0 C 16 0 16 0 16 3 L 16 13 C 16 16 16 16 13 16 L 3 16 C 0 16 0 16 0 13 L 0 3 C 0 0 0 0 3 0"></path><text x="8"  style="font-size:12px;color:#333333;fill:#333333;" y="21"></text></g><text x="590" text-anchor="end"  style="cursor:pointer;color:#909090;font-size:9px;fill:#909090;" y="395">Septnet</text></svg>