<svg xmlns:xlink="http://www.w3.org/1999/xlink" version="1.1" style="font-family:'lucida grande', 'lucida sans unicode', arial, helvetica, sans-serif;font-size:12px;" xmlns="http://www.w3.org/2000/svg" width="600" height="400"><desc>Created with Highcharts 4.0.3</desc><defs><clipPath id="highcharts-8"><rect x="0" y="0" width="580" height="338"></rect></clipPath></defs><rect x="0" y="0" width="600" height="400" strokeWidth="0" fill="#FFFFFF" class=" highcharts-background"></rect><g class="highcharts-grid" ><path fill="none" d="M 300 179 L 424.4045492536346 250.825" stroke="#C0C0C0" stroke-width="1"  opacity="1"></path><path fill="none" d="M 300 179 L 300.00000000000006 322.65" stroke="#C0C0C0" stroke-width="1"  opacity="1"></path><path fill="none" d="M 300 179 L 175.5954507463654 250.82500000000005" stroke="#C0C0C0" stroke-width="1"  opacity="1"></path><path fill="none" d="M 300 179 L 175.59545074636537 107.17499999999998" stroke="#C0C0C0" stroke-width="1"  opacity="1"></path><path fill="none" d="M 300 179 L 300 35.349999999999994" stroke="#C0C0C0" stroke-width="1"  opacity="1"></path><path fill="none" d="M 300 179 L 424.40454925363457 107.17499999999994" stroke="#C0C0C0" stroke-width="1"  opacity="1"></path><path fill="none" d="M 300 179 L 424.4045492536346 107.175" stroke="#C0C0C0" stroke-width="1"  opacity="1"></path><path fill="none" d="M 300 179 L 300 35.349999999999994" stroke="#C0C0C0" stroke-width="1"  opacity="1"></path></g><g class="highcharts-grid" ><path fill="none" d="M 300 35.349999999999994 A 143.65 143.65 0 1 1 299.8563500239416 35.35007182499402 M 300 179 A 0 0 0 1 0 300 179 " stroke="#C0C0C0" stroke-width="1"  opacity="1"></path><path fill="none" d="M 300 83.23333333333333 A 95.76666666666667 95.76666666666667 0 1 1 299.9042333492944 83.23338121666268 M 300 179 A 0 0 0 1 0 300 179 " stroke="#C0C0C0" stroke-width="1"  opacity="1"></path><path fill="none" d="M 300 131.11666666666667 A 47.88333333333333 47.88333333333333 0 1 1 299.9521166746472 131.11669060833134 M 300 179 A 0 0 0 1 0 300 179 " stroke="#C0C0C0" stroke-width="1"  opacity="1"></path><path fill="none" stroke="#C0C0C0" stroke-width="1" ></path></g><g class="highcharts-axis" ><path fill="none" d="M 300 35.349999999999994 A 143.65 143.65 0 1 1 299.8563500239416 35.35007182499402 M 300 179 A 0 0 0 1 0 300 179 " stroke="#C0D0E0" stroke-width="1"  visibility="visible"></path></g><g class="highcharts-axis" ></g><g class="highcharts-series-group" ><g class="highcharts-series" visibility="visible"  transform="translate(10,10) scale(1 1)" clip-path="url(#highcharts-8)"><path fill="none" d="M 327.62815789473683 103.82611873109182 L 361.3304303599374 169 L 315.31774809160305 212.85162602788645 L 244.0171559417567 248.6446221853941 L 230.44839285714286 169 L 263.32923143350604 122.80487376592151 L 327.62815789473683 103.82611873109182" stroke="#ff0000" stroke-width="2"  stroke-linejoin="round" stroke-linecap="round"></path></g><g class="highcharts-markers" visibility="visible"  transform="translate(10,10) scale(1 1)" clip-path="none"><path fill="#ff0000" d="M 263 118.80487376592151 C 268.328 118.80487376592151 268.328 126.80487376592151 263 126.80487376592151 C 257.672 126.80487376592151 257.672 118.80487376592151 263 118.80487376592151 Z"></path><path fill="#ff0000" d="M 230 165 C 235.328 165 235.328 173 230 173 C 224.672 173 224.672 165 230 165 Z"></path><path fill="#ff0000" d="M 244 244.6446221853941 C 249.328 244.6446221853941 249.328 252.6446221853941 244 252.6446221853941 C 238.672 252.6446221853941 238.672 244.6446221853941 244 244.6446221853941 Z"></path><path fill="#ff0000" d="M 315 208.85162602788645 C 320.328 208.85162602788645 320.328 216.85162602788645 315 216.85162602788645 C 309.672 216.85162602788645 309.672 208.85162602788645 315 208.85162602788645 Z"></path><path fill="#ff0000" d="M 361 165 C 366.328 165 366.328 173 361 173 C 355.672 173 355.672 165 361 165 Z"></path><path fill="#ff0000" d="M 327 99.82611873109182 C 332.328 99.82611873109182 332.328 107.82611873109182 327 107.82611873109182 C 321.672 107.82611873109182 321.672 99.82611873109182 327 99.82611873109182 Z"></path></g><g class="highcharts-series" visibility="visible"  transform="translate(10,10) scale(1 1)" clip-path="url(#highcharts-8)"><path fill="none" d="M 313.94166666666666 127.53181691545512 L 337.8833333333333 169 L 313.94166666666666 210.46818308454485 L 266.05833333333334 210.46818308454488 L 242.11666666666667 169 L 266.05833333333334 127.53181691545515 L 313.94166666666666 127.53181691545512" stroke="#999999" stroke-width="2"  stroke-linejoin="round" stroke-linecap="round"></path></g><g class="highcharts-markers" visibility="visible"  transform="translate(10,10) scale(1 1)" clip-path="none"><path fill="#999999" d="M 266 123.53181691545515 L 270 127.53181691545515 266 131.53181691545515 262 127.53181691545515 Z"></path><path fill="#999999" d="M 242 165 L 246 169 242 173 238 169 Z"></path><path fill="#999999" d="M 266 206.46818308454488 L 270 210.46818308454488 266 214.46818308454488 262 210.46818308454488 Z"></path><path fill="#999999" d="M 313 206.46818308454485 L 317 210.46818308454485 313 214.46818308454485 309 210.46818308454485 Z"></path><path fill="#999999" d="M 337 165 L 341 169 337 173 333 169 Z"></path><path fill="#999999" d="M 313 123.53181691545512 L 317 127.53181691545512 313 131.53181691545512 309 127.53181691545512 Z"></path></g><g class="highcharts-series" visibility="visible"  transform="translate(10,10) scale(1 1)" clip-path="url(#highcharts-8)"><path fill="none" d="M 351.8606140350877 61.8542735038197 L 392.0536958789776 169 L 343.80693384223923 262.19634321425553 L 237.26985674025366 260.3312872162663 L 175.19839285714286 169 L 229.90462483208591 64.91175690925988 L 351.8606140350877 61.8542735038197" stroke="#7cb5ec" stroke-width="2"  stroke-linejoin="round" stroke-linecap="round"></path></g><g class="highcharts-markers" visibility="visible"  transform="translate(10,10) scale(1 1)" clip-path="none"><path fill="#7cb5ec" d="M 225 60.91175690925988 L 233 60.91175690925988 233 68.91175690925988 225 68.91175690925988 Z"></path><path fill="#7cb5ec" d="M 171 165 L 179 165 179 173 171 173 Z"></path><path fill="#7cb5ec" d="M 233 256.3312872162663 L 241 256.3312872162663 241 264.3312872162663 233 264.3312872162663 Z"></path><path fill="#7cb5ec" d="M 339 258.19634321425553 L 347 258.19634321425553 347 266.19634321425553 339 266.19634321425553 Z"></path><path fill="#7cb5ec" d="M 388 165 L 396 165 396 173 388 173 Z"></path><path fill="#7cb5ec" d="M 347 57.8542735038197 L 355 57.8542735038197 355 65.8542735038197 347 65.8542735038197 Z"></path></g></g><g class="highcharts-legend"  transform="translate(161,368)"><g ><g><g class="highcharts-legend-item"  transform="translate(8,3)"><path fill="none" d="M 0 11 L 16 11" stroke="#ff0000" stroke-width="2"></path><path fill="#ff0000" d="M 8 7 C 13.328 7 13.328 15 8 15 C 2.6719999999999997 15 2.6719999999999997 7 8 7 Z"></path><text x="21" style="color:#333333;font-size:12px;font-weight:bold;cursor:pointer;fill:#333333;" text-anchor="start"  y="15">考生位置</text></g><g class="highcharts-legend-item"  transform="translate(97,3)"><path fill="none" d="M 0 11 L 16 11" stroke="#999999" stroke-width="2"></path><path fill="#999999" d="M 8 7 L 12 11 8 15 4 11 Z"></path><text x="21" y="15" style="color:#333333;font-size:12px;font-weight:bold;cursor:pointer;fill:#333333;" text-anchor="start" >平均分位置</text></g><g class="highcharts-legend-item"  transform="translate(198,3)"><path fill="none" d="M 0 11 L 16 11" stroke="#7cb5ec" stroke-width="2"></path><path fill="#7cb5ec" d="M 4 7 L 12 7 12 15 4 15 Z"></path><text x="21" y="15" style="color:#333333;font-size:12px;font-weight:bold;cursor:pointer;fill:#333333;" text-anchor="start" >最高分位置</text></g></g></g></g><g class="highcharts-axis-labels highcharts-xaxis-labels" ><text x="379.325" text-anchor="start" style="width:63px;color:#606060;cursor:default;font-size:11px;fill:#606060;" y="47.10506968959879" opacity="1">语文</text><text x="458.65" text-anchor="start" style="width:63px;color:#606060;cursor:default;font-size:11px;fill:#606060;" y="184.5" opacity="1">数学</text><text x="379.32500000000005" text-anchor="start" style="width:63px;color:#606060;cursor:default;font-size:11px;fill:#606060;" y="321.89493031040115" opacity="1">英语</text><text x="220.675" text-anchor="end" style="width:63px;color:#606060;cursor:default;font-size:11px;fill:#606060;" y="321.8949303104012" opacity="1">物理</text><text x="141.35" text-anchor="end" style="width:63px;color:#606060;cursor:default;font-size:11px;fill:#606060;" y="184.50000000000003" opacity="1">化学</text><text x="220.67499999999993" text-anchor="end" style="width:63px;color:#606060;cursor:default;font-size:11px;fill:#606060;" y="47.10506968959882" opacity="1">生物</text><text x="0" text-anchor="start" style="width:63px;color:#606060;cursor:default;font-size:11px;fill:#606060;" y="-9999">6</text></g><g class="highcharts-axis-labels highcharts-yaxis-labels" ><text x="297" text-anchor="end" style="width:178px;color:#606060;cursor:default;font-size:11px;fill:#606060;" y="177" opacity="1">-2</text><text x="297" text-anchor="end" style="width:178px;color:#606060;cursor:default;font-size:11px;fill:#606060;" y="129.11666666666667" opacity="1">0</text><text x="297" text-anchor="end" style="width:178px;color:#606060;cursor:default;font-size:11px;fill:#606060;" y="81.23333333333333" opacity="1">2</text><text x="0" text-anchor="end" style="width:178px;color:#606060;cursor:default;font-size:11px;fill:#606060;" y="-9999">4</text></g><g class="highcharts-tooltip"  style="cursor:default;padding:0;white-space:nowrap;" transform="translate(0,-9999)"><path fill="none" d="M 3 0 L 13 0 C 16 0 16 0 16 3 L 16 13 C 16 16 16 16 13 16 L 3 16 C 0 16 0 16 0 13 L 0 3 C 0 0 0 0 3 0"  stroke="black" stroke-opacity="0.049999999999999996" stroke-width="5" transform="translate(1, 1)"></path><path fill="none" d="M 3 0 L 13 0 C 16 0 16 0 16 3 L 16 13 C 16 16 16 16 13 16 L 3 16 C 0 16 0 16 0 13 L 0 3 C 0 0 0 0 3 0"  stroke="black" stroke-opacity="0.09999999999999999" stroke-width="3" transform="translate(1, 1)"></path><path fill="none" d="M 3 0 L 13 0 C 16 0 16 0 16 3 L 16 13 C 16 16 16 16 13 16 L 3 16 C 0 16 0 16 0 13 L 0 3 C 0 0 0 0 3 0"  stroke="black" stroke-opacity="0.15" stroke-width="1" transform="translate(1, 1)"></path><path fill="rgb(249, 249, 249)" fill-opacity=" .85" d="M 3 0 L 13 0 C 16 0 16 0 16 3 L 16 13 C 16 16 16 16 13 16 L 3 16 C 0 16 0 16 0 13 L 0 3 C 0 0 0 0 3 0"></path><text x="8"  style="font-size:12px;color:#333333;fill:#333333;" y="21"></text></g><text x="590" text-anchor="end"  style="cursor:pointer;color:#909090;font-size:9px;fill:#909090;" y="395">Septnet</text></svg>