<svg xmlns:xlink="http://www.w3.org/1999/xlink" version="1.1" style="font-family:'lucida grande', 'lucida sans unicode', arial, helvetica, sans-serif;font-size:12px;" xmlns="http://www.w3.org/2000/svg" width="600" height="400"><desc>Created with Highcharts 4.0.3</desc><defs><clipPath id="highcharts-7"><rect x="0" y="0" width="527" height="318"></rect></clipPath></defs><rect x="0" y="0" width="600" height="400" strokeWidth="0" fill="#FFFFFF" class=" highcharts-background"></rect><g class="highcharts-grid" ></g><g class="highcharts-grid" ><path fill="none" d="M 63 9.5 L 590 9.5" stroke="#C0C0C0" stroke-width="1"  opacity="1"></path><path fill="none" d="M 63 63.5 L 590 63.5" stroke="#C0C0C0" stroke-width="1"  opacity="1"></path><path fill="none" d="M 63 116.5 L 590 116.5" stroke="#C0C0C0" stroke-width="1"  opacity="1"></path><path fill="none" d="M 63 169.5 L 590 169.5" stroke="#C0C0C0" stroke-width="1"  opacity="1"></path><path fill="none" d="M 63 222.5 L 590 222.5" stroke="#C0C0C0" stroke-width="1"  opacity="1"></path><path fill="none" d="M 63 275.5 L 590 275.5" stroke="#C0C0C0" stroke-width="1"  opacity="1"></path><path fill="none" d="M 63 328.5 L 590 328.5" stroke="#C0C0C0" stroke-width="1"  opacity="1"></path></g><g class="highcharts-axis" ><path fill="none" d="M 238.5 328 L 238.5 338" stroke="#C0D0E0" stroke-width="1" opacity="1"></path><path fill="none" d="M 326.5 328 L 326.5 338" stroke="#C0D0E0" stroke-width="1" opacity="1"></path><path fill="none" d="M 413.5 328 L 413.5 338" stroke="#C0D0E0" stroke-width="1" opacity="1"></path><path fill="none" d="M 501.5 328 L 501.5 338" stroke="#C0D0E0" stroke-width="1" opacity="1"></path><path fill="none" d="M 590.5 328 L 590.5 338" stroke="#C0D0E0" stroke-width="1" opacity="1"></path><path fill="none" d="M 150.5 328 L 150.5 338" stroke="#C0D0E0" stroke-width="1" opacity="1"></path><path fill="none" d="M 62.5 328 L 62.5 338" stroke="#C0D0E0" stroke-width="1" opacity="1"></path><path fill="none" d="M 63 328.5 L 590 328.5" stroke="#C0D0E0" stroke-width="1"  visibility="visible"></path></g><g class="highcharts-axis" ><text x="23"  text-anchor="middle" transform="translate(0,0) rotate(270 23 169)" class=" highcharts-yaxis-title" style="color:#707070;fill:#707070;" visibility="visible" y="169">成绩（分）</text></g><g class="highcharts-series-group" ><g class="highcharts-series" visibility="visible"  transform="translate(63,10) scale(1 1)" clip-path="url(#highcharts-7)"><rect x="19.5" y="109.5" width="22" height="209" fill="#999999" rx="0" ry="0" stroke="#FFFFFF" stroke-width="1"></rect><rect x="107.5" y="129.5" width="22" height="189" fill="#999999" rx="0" ry="0" stroke="#FFFFFF" stroke-width="1"></rect><rect x="195.5" y="86.5" width="22" height="232" fill="#999999" rx="0" ry="0" stroke="#FFFFFF" stroke-width="1"></rect><rect x="283.5" y="175.5" width="22" height="143" fill="#999999" rx="0" ry="0" stroke="#FFFFFF" stroke-width="1"></rect><rect x="371.5" y="151.5" width="22" height="167" fill="#999999" rx="0" ry="0" stroke="#FFFFFF" stroke-width="1"></rect><rect x="458.5" y="144.5" width="22" height="174" fill="#999999" rx="0" ry="0" stroke="#FFFFFF" stroke-width="1"></rect></g><g class="highcharts-markers" visibility="visible"  transform="translate(63,10) scale(1 1)" clip-path="none"></g><g class="highcharts-series" visibility="visible"  transform="translate(63,10) scale(1 1)" clip-path="url(#highcharts-7)"><rect x="46.5" y="93.5" width="22" height="225" fill="#7cb5ec" rx="0" ry="0" stroke="#FFFFFF" stroke-width="1"></rect><rect x="133.5" y="25.5" width="22" height="293" fill="#7cb5ec" rx="0" ry="0" stroke="#FFFFFF" stroke-width="1"></rect><rect x="221.5" y="47.5" width="22" height="271" fill="#7cb5ec" rx="0" ry="0" stroke="#FFFFFF" stroke-width="1"></rect><rect x="309.5" y="119.5" width="22" height="199" fill="#7cb5ec" rx="0" ry="0" stroke="#FFFFFF" stroke-width="1"></rect><rect x="397.5" y="108.5" width="22" height="210" fill="#7cb5ec" rx="0" ry="0" stroke="#FFFFFF" stroke-width="1"></rect><rect x="485.5" y="112.5" width="22" height="206" fill="#7cb5ec" rx="0" ry="0" stroke="#FFFFFF" stroke-width="1"></rect></g><g class="highcharts-markers" visibility="visible"  transform="translate(63,10) scale(1 1)" clip-path="none"></g><g class="highcharts-series" visibility="visible"  transform="translate(63,10) scale(1 1)" clip-path="url(#highcharts-7)"><path fill="none" d="M 43.916666666666664 99.63999999999999 L 131.75 152.64 L 219.58333333333331 69.95999999999998 L 307.4166666666667 161.12 L 395.25 137.79999999999998 L 483.0833333333333 146.28" stroke="#ff0000" stroke-width="2"  stroke-linejoin="round" stroke-linecap="round"></path></g><g class="highcharts-markers" visibility="visible"  transform="translate(63,10) scale(1 1)" clip-path="none"><path fill="#ff0000" d="M 483 142.28 C 488.328 142.28 488.328 150.28 483 150.28 C 477.672 150.28 477.672 142.28 483 142.28 Z"></path><path fill="#ff0000" d="M 395 133.79999999999998 C 400.328 133.79999999999998 400.328 141.79999999999998 395 141.79999999999998 C 389.672 141.79999999999998 389.672 133.79999999999998 395 133.79999999999998 Z"></path><path fill="#ff0000" d="M 307 157.12 C 312.328 157.12 312.328 165.12 307 165.12 C 301.672 165.12 301.672 157.12 307 157.12 Z"></path><path fill="#ff0000" d="M 219 65.95999999999998 C 224.328 65.95999999999998 224.328 73.95999999999998 219 73.95999999999998 C 213.672 73.95999999999998 213.672 65.95999999999998 219 65.95999999999998 Z"></path><path fill="#ff0000" d="M 131 148.64 C 136.328 148.64 136.328 156.64 131 156.64 C 125.672 156.64 125.672 148.64 131 148.64 Z"></path><path fill="#ff0000" d="M 43 95.63999999999999 C 48.328 95.63999999999999 48.328 103.63999999999999 43 103.63999999999999 C 37.672 103.63999999999999 37.672 95.63999999999999 43 95.63999999999999 Z"></path></g></g><g class="highcharts-legend"  transform="translate(111,368)"><g ><g><g class="highcharts-legend-item"  transform="translate(8,3)"><path fill="none" d="M 0 11 L 16 11" stroke="#ff0000" stroke-width="2"></path><path fill="#ff0000" d="M 8 7 C 13.328 7 13.328 15 8 15 C 2.6719999999999997 15 2.6719999999999997 7 8 7 Z"></path><text x="21" style="color:#333333;font-size:12px;font-weight:bold;cursor:pointer;fill:#333333;" text-anchor="start"  y="15">考生成绩</text></g><g class="highcharts-legend-item"  transform="translate(97,3)"><text x="21" y="15" style="color:#333333;font-size:12px;font-weight:bold;cursor:pointer;fill:#333333;" text-anchor="start" >考生单位学生平均分</text><rect x="0" y="4" width="16" height="12"  fill="#999999"></rect></g><g class="highcharts-legend-item"  transform="translate(248,3)"><text x="21" y="15" style="color:#333333;font-size:12px;font-weight:bold;cursor:pointer;fill:#333333;" text-anchor="start" >考生单位学生最高分</text><rect x="0" y="4" width="16" height="12"  fill="#7cb5ec"></rect></g></g></g></g><g class="highcharts-axis-labels highcharts-xaxis-labels" ><text x="106.91666666666666" text-anchor="middle" style="width:68px;color:#606060;cursor:default;font-size:11px;fill:#606060;" y="348" opacity="1">语文</text><text x="194.75" text-anchor="middle" style="width:68px;color:#606060;cursor:default;font-size:11px;fill:#606060;" y="348" opacity="1">数学</text><text x="282.5833333333333" text-anchor="middle" style="width:68px;color:#606060;cursor:default;font-size:11px;fill:#606060;" y="348" opacity="1">英语</text><text x="370.41666666666663" text-anchor="middle" style="width:68px;color:#606060;cursor:default;font-size:11px;fill:#606060;" y="348" opacity="1">物理</text><text x="458.25" text-anchor="middle" style="width:68px;color:#606060;cursor:default;font-size:11px;fill:#606060;" y="348" opacity="1">化学</text><text x="546.0833333333334" text-anchor="middle" style="width:68px;color:#606060;cursor:default;font-size:11px;fill:#606060;" y="348" opacity="1">生物</text></g><g class="highcharts-axis-labels highcharts-yaxis-labels" ><text x="48" text-anchor="end" style="width:178px;color:#606060;cursor:default;font-size:11px;fill:#606060;" y="334" opacity="1">0</text><text x="48" text-anchor="end" style="width:178px;color:#606060;cursor:default;font-size:11px;fill:#606060;" y="281" opacity="1">25</text><text x="48" text-anchor="end" style="width:178px;color:#606060;cursor:default;font-size:11px;fill:#606060;" y="228" opacity="1">50</text><text x="48" text-anchor="end" style="width:178px;color:#606060;cursor:default;font-size:11px;fill:#606060;" y="175" opacity="1">75</text><text x="48" text-anchor="end" style="width:178px;color:#606060;cursor:default;font-size:11px;fill:#606060;" y="122" opacity="1">100</text><text x="48" text-anchor="end" style="width:178px;color:#606060;cursor:default;font-size:11px;fill:#606060;" y="69" opacity="1">125</text><text x="48" text-anchor="end" style="width:178px;color:#606060;cursor:default;font-size:11px;fill:#606060;" y="16" opacity="1">150</text></g><g class="highcharts-tooltip"  style="cursor:default;padding:0;white-space:nowrap;" transform="translate(0,-9999)"><path fill="none" d="M 3 0 L 13 0 C 16 0 16 0 16 3 L 16 13 C 16 16 16 16 13 16 L 3 16 C 0 16 0 16 0 13 L 0 3 C 0 0 0 0 3 0"  stroke="black" stroke-opacity="0.049999999999999996" stroke-width="5" transform="translate(1, 1)"></path><path fill="none" d="M 3 0 L 13 0 C 16 0 16 0 16 3 L 16 13 C 16 16 16 16 13 16 L 3 16 C 0 16 0 16 0 13 L 0 3 C 0 0 0 0 3 0"  stroke="black" stroke-opacity="0.09999999999999999" stroke-width="3" transform="translate(1, 1)"></path><path fill="none" d="M 3 0 L 13 0 C 16 0 16 0 16 3 L 16 13 C 16 16 16 16 13 16 L 3 16 C 0 16 0 16 0 13 L 0 3 C 0 0 0 0 3 0"  stroke="black" stroke-opacity="0.15" stroke-width="1" transform="translate(1, 1)"></path><path fill="rgb(249, 249, 249)" fill-opacity=" .85" d="M 3 0 L 13 0 C 16 0 16 0 16 3 L 16 13 C 16 16 16 16 13 16 L 3 16 C 0 16 0 16 0 13 L 0 3 C 0 0 0 0 3 0"></path><text x="8"  style="font-size:12px;color:#333333;fill:#333333;" y="21"></text></g><text x="590" text-anchor="end"  style="cursor:pointer;color:#909090;font-size:9px;fill:#909090;" y="395">Septnet</text></svg>