<svg xmlns:xlink="http://www.w3.org/1999/xlink" version="1.1" style="font-family:'lucida grande', 'lucida sans unicode', arial, helvetica, sans-serif;font-size:12px;" xmlns="http://www.w3.org/2000/svg" width="600" height="400"><desc>Created with Highcharts 4.0.3</desc><defs><clipPath id="highcharts-17"><rect x="0" y="0" width="522" height="317"></rect></clipPath></defs><rect x="0" y="0" width="600" height="400" strokeWidth="0" fill="#FFFFFF" class=" highcharts-background"></rect><g class="highcharts-grid" ></g><g class="highcharts-grid" ><path fill="none" d="M 68 9.5 L 590 9.5" stroke="#C0C0C0" stroke-width="1"  opacity="1"></path><path fill="none" d="M 68 55.5 L 590 55.5" stroke="#C0C0C0" stroke-width="1"  opacity="1"></path><path fill="none" d="M 68 101.5 L 590 101.5" stroke="#C0C0C0" stroke-width="1"  opacity="1"></path><path fill="none" d="M 68 146.5 L 590 146.5" stroke="#C0C0C0" stroke-width="1"  opacity="1"></path><path fill="none" d="M 68 191.5 L 590 191.5" stroke="#C0C0C0" stroke-width="1"  opacity="1"></path><path fill="none" d="M 68 236.5 L 590 236.5" stroke="#C0C0C0" stroke-width="1"  opacity="1"></path><path fill="none" d="M 68 282.5 L 590 282.5" stroke="#C0C0C0" stroke-width="1"  opacity="1"></path><path fill="none" d="M 68 327.5 L 590 327.5" stroke="#C0C0C0" stroke-width="1"  opacity="1"></path></g><g class="highcharts-axis" ><path fill="none" d="M 241.5 327 L 241.5 337" stroke="#C0D0E0" stroke-width="1" opacity="1"></path><path fill="none" d="M 328.5 327 L 328.5 337" stroke="#C0D0E0" stroke-width="1" opacity="1"></path><path fill="none" d="M 415.5 327 L 415.5 337" stroke="#C0D0E0" stroke-width="1" opacity="1"></path><path fill="none" d="M 502.5 327 L 502.5 337" stroke="#C0D0E0" stroke-width="1" opacity="1"></path><path fill="none" d="M 590.5 327 L 590.5 337" stroke="#C0D0E0" stroke-width="1" opacity="1"></path><path fill="none" d="M 154.5 327 L 154.5 337" stroke="#C0D0E0" stroke-width="1" opacity="1"></path><path fill="none" d="M 67.5 327 L 67.5 337" stroke="#C0D0E0" stroke-width="1" opacity="1"></path><path fill="none" d="M 68 327.5 L 590 327.5" stroke="#C0D0E0" stroke-width="1"  visibility="visible"></path></g><g class="highcharts-axis" ><text x="24"  text-anchor="middle" transform="translate(0,0) rotate(270 24 168.5)" class=" highcharts-yaxis-title" style="color:#707070;fill:#707070;" visibility="visible" y="168.5">成绩（分）</text></g><g class="highcharts-series-group" ><g class="highcharts-series" visibility="visible"  transform="translate(68,10) scale(1 1)" clip-path="url(#highcharts-17)"><rect x="19.5" y="154.5" width="21" height="163" fill="#999999" rx="0" ry="0" stroke="#FFFFFF" stroke-width="1"></rect><rect x="106.5" y="121.5" width="21" height="196" fill="#999999" rx="0" ry="0" stroke="#FFFFFF" stroke-width="1"></rect><rect x="193.5" y="137.5" width="21" height="180" fill="#999999" rx="0" ry="0" stroke="#FFFFFF" stroke-width="1"></rect><rect x="280.5" y="174.5" width="21" height="143" fill="#999999" rx="0" ry="0" stroke="#FFFFFF" stroke-width="1"></rect><rect x="367.5" y="211.5" width="21" height="106" fill="#999999" rx="0" ry="0" stroke="#FFFFFF" stroke-width="1"></rect><rect x="454.5" y="175.5" width="21" height="142" fill="#999999" rx="0" ry="0" stroke="#FFFFFF" stroke-width="1"></rect></g><g class="highcharts-markers" visibility="visible"  transform="translate(68,10) scale(1 1)" clip-path="none"></g><g class="highcharts-series" visibility="visible"  transform="translate(68,10) scale(1 1)" clip-path="url(#highcharts-17)"><rect x="45.5" y="105.5" width="21" height="212" fill="#7cb5ec" rx="0" ry="0" stroke="#FFFFFF" stroke-width="1"></rect><rect x="132.5" y="54.5" width="21" height="263" fill="#7cb5ec" rx="0" ry="0" stroke="#FFFFFF" stroke-width="1"></rect><rect x="219.5" y="96.5" width="21" height="221" fill="#7cb5ec" rx="0" ry="0" stroke="#FFFFFF" stroke-width="1"></rect><rect x="306.5" y="136.5" width="21" height="181" fill="#7cb5ec" rx="0" ry="0" stroke="#FFFFFF" stroke-width="1"></rect><rect x="393.5" y="167.5" width="21" height="150" fill="#7cb5ec" rx="0" ry="0" stroke="#FFFFFF" stroke-width="1"></rect><rect x="480.5" y="143.5" width="21" height="174" fill="#7cb5ec" rx="0" ry="0" stroke="#FFFFFF" stroke-width="1"></rect></g><g class="highcharts-markers" visibility="visible"  transform="translate(68,10) scale(1 1)" clip-path="none"></g><g class="highcharts-series" visibility="visible"  transform="translate(68,10) scale(1 1)" clip-path="url(#highcharts-17)"><path fill="none" d="M 43.5 141.29142857142858 L 130.5 130.42285714285714 L 217.5 155.78285714285715 L 304.5 146.72571428571428 L 391.5 195.6342857142857 L 478.5 163.02857142857144" stroke="#ff0000" stroke-width="2"  stroke-linejoin="round" stroke-linecap="round"></path></g><g class="highcharts-markers" visibility="visible"  transform="translate(68,10) scale(1 1)" clip-path="none"><path fill="#ff0000" d="M 478 159.02857142857144 C 483.328 159.02857142857144 483.328 167.02857142857144 478 167.02857142857144 C 472.672 167.02857142857144 472.672 159.02857142857144 478 159.02857142857144 Z"></path><path fill="#ff0000" d="M 391 191.6342857142857 C 396.328 191.6342857142857 396.328 199.6342857142857 391 199.6342857142857 C 385.672 199.6342857142857 385.672 191.6342857142857 391 191.6342857142857 Z"></path><path fill="#ff0000" d="M 304 142.72571428571428 C 309.328 142.72571428571428 309.328 150.72571428571428 304 150.72571428571428 C 298.672 150.72571428571428 298.672 142.72571428571428 304 142.72571428571428 Z"></path><path fill="#ff0000" d="M 217 151.78285714285715 C 222.328 151.78285714285715 222.328 159.78285714285715 217 159.78285714285715 C 211.672 159.78285714285715 211.672 151.78285714285715 217 151.78285714285715 Z"></path><path fill="#ff0000" d="M 130 126.42285714285714 C 135.328 126.42285714285714 135.328 134.42285714285714 130 134.42285714285714 C 124.672 134.42285714285714 124.672 126.42285714285714 130 126.42285714285714 Z"></path><path fill="#ff0000" d="M 43 137.29142857142858 C 48.328 137.29142857142858 48.328 145.29142857142858 43 145.29142857142858 C 37.672 145.29142857142858 37.672 137.29142857142858 43 137.29142857142858 Z"></path></g></g><g class="highcharts-legend"  transform="translate(113,368)"><g ><g><g class="highcharts-legend-item"  transform="translate(8,3)"><path fill="none" d="M 0 11 L 16 11" stroke="#ff0000" stroke-width="2"></path><path fill="#ff0000" d="M 8 7 C 13.328 7 13.328 15 8 15 C 2.6719999999999997 15 2.6719999999999997 7 8 7 Z"></path><text x="21" style="color:#333333;font-size:12px;font-weight:bold;cursor:pointer;fill:#333333;" text-anchor="start"  y="15">考生成绩</text></g><g class="highcharts-legend-item"  transform="translate(97,3)"><text x="21" y="15" style="color:#333333;font-size:12px;font-weight:bold;cursor:pointer;fill:#333333;" text-anchor="start" >考生单位学生平均分</text><rect x="0" y="4" width="16" height="12"  fill="#999999"></rect></g><g class="highcharts-legend-item"  transform="translate(246,3)"><text x="21" y="15" style="color:#333333;font-size:12px;font-weight:bold;cursor:pointer;fill:#333333;" text-anchor="start" >考生单位学生最高分</text><rect x="0" y="4" width="16" height="12"  fill="#7cb5ec"></rect></g></g></g></g><g class="highcharts-axis-labels highcharts-xaxis-labels" ><text x="111.5" text-anchor="middle" style="width:67px;color:#606060;cursor:default;font-size:11px;fill:#606060;" y="347" opacity="1">语文</text><text x="198.5" text-anchor="middle" style="width:67px;color:#606060;cursor:default;font-size:11px;fill:#606060;" y="347" opacity="1">数学</text><text x="285.5" text-anchor="middle" style="width:67px;color:#606060;cursor:default;font-size:11px;fill:#606060;" y="347" opacity="1">英语</text><text x="372.5" text-anchor="middle" style="width:67px;color:#606060;cursor:default;font-size:11px;fill:#606060;" y="347" opacity="1">物理</text><text x="459.5" text-anchor="middle" style="width:67px;color:#606060;cursor:default;font-size:11px;fill:#606060;" y="347" opacity="1">化学</text><text x="546.5" text-anchor="middle" style="width:67px;color:#606060;cursor:default;font-size:11px;fill:#606060;" y="347" opacity="1">生物</text></g><g class="highcharts-axis-labels highcharts-yaxis-labels" ><text x="53" text-anchor="end" style="width:178px;color:#606060;cursor:default;font-size:11px;fill:#606060;" y="332.5" opacity="1">0</text><text x="53" text-anchor="end" style="width:178px;color:#606060;cursor:default;font-size:11px;fill:#606060;" y="287.2142857142857" opacity="1">25</text><text x="53" text-anchor="end" style="width:178px;color:#606060;cursor:default;font-size:11px;fill:#606060;" y="241.92857142857144" opacity="1">50</text><text x="53" text-anchor="end" style="width:178px;color:#606060;cursor:default;font-size:11px;fill:#606060;" y="196.6428571428571" opacity="1">75</text><text x="53" text-anchor="end" style="width:178px;color:#606060;cursor:default;font-size:11px;fill:#606060;" y="151.35714285714286" opacity="1">100</text><text x="53" text-anchor="end" style="width:178px;color:#606060;cursor:default;font-size:11px;fill:#606060;" y="106.07142857142858" opacity="1">125</text><text x="53" text-anchor="end" style="width:178px;color:#606060;cursor:default;font-size:11px;fill:#606060;" y="60.78571428571428" opacity="1">150</text><text x="53" text-anchor="end" style="width:178px;color:#606060;cursor:default;font-size:11px;fill:#606060;" y="15.5" opacity="1">175</text></g><g class="highcharts-tooltip"  style="cursor:default;padding:0;white-space:nowrap;" transform="translate(0,-9999)"><path fill="none" d="M 3 0 L 13 0 C 16 0 16 0 16 3 L 16 13 C 16 16 16 16 13 16 L 3 16 C 0 16 0 16 0 13 L 0 3 C 0 0 0 0 3 0"  stroke="black" stroke-opacity="0.049999999999999996" stroke-width="5" transform="translate(1, 1)"></path><path fill="none" d="M 3 0 L 13 0 C 16 0 16 0 16 3 L 16 13 C 16 16 16 16 13 16 L 3 16 C 0 16 0 16 0 13 L 0 3 C 0 0 0 0 3 0"  stroke="black" stroke-opacity="0.09999999999999999" stroke-width="3" transform="translate(1, 1)"></path><path fill="none" d="M 3 0 L 13 0 C 16 0 16 0 16 3 L 16 13 C 16 16 16 16 13 16 L 3 16 C 0 16 0 16 0 13 L 0 3 C 0 0 0 0 3 0"  stroke="black" stroke-opacity="0.15" stroke-width="1" transform="translate(1, 1)"></path><path fill="rgb(249, 249, 249)" fill-opacity=" .85" d="M 3 0 L 13 0 C 16 0 16 0 16 3 L 16 13 C 16 16 16 16 13 16 L 3 16 C 0 16 0 16 0 13 L 0 3 C 0 0 0 0 3 0"></path><text x="8"  style="font-size:12px;color:#333333;fill:#333333;" y="21"></text></g><text x="590" text-anchor="end"  style="cursor:pointer;color:#909090;font-size:9px;fill:#909090;" y="395">Septnet</text></svg>