<svg xmlns:xlink="http://www.w3.org/1999/xlink" version="1.1" style="font-family:'lucida grande', 'lucida sans unicode', arial, helvetica, sans-serif;font-size:12px;" xmlns="http://www.w3.org/2000/svg" width="600" height="400"><desc>Created with Highcharts 4.0.3</desc><defs><clipPath id="highcharts-8"><rect x="0" y="0" width="521" height="315"></rect></clipPath></defs><rect x="0" y="0" width="600" height="400" strokeWidth="0" fill="#FFFFFF" class=" highcharts-background"></rect><g class="highcharts-grid" ></g><g class="highcharts-grid" ><path fill="none" d="M 69 9.5 L 590 9.5" stroke="#C0C0C0" stroke-width="1"  opacity="1"></path><path fill="none" d="M 69 63.5 L 590 63.5" stroke="#C0C0C0" stroke-width="1"  opacity="1"></path><path fill="none" d="M 69 115.5 L 590 115.5" stroke="#C0C0C0" stroke-width="1"  opacity="1"></path><path fill="none" d="M 69 168.5 L 590 168.5" stroke="#C0C0C0" stroke-width="1"  opacity="1"></path><path fill="none" d="M 69 220.5 L 590 220.5" stroke="#C0C0C0" stroke-width="1"  opacity="1"></path><path fill="none" d="M 69 273.5 L 590 273.5" stroke="#C0C0C0" stroke-width="1"  opacity="1"></path><path fill="none" d="M 69 325.5 L 590 325.5" stroke="#C0C0C0" stroke-width="1"  opacity="1"></path></g><g class="highcharts-axis" ><path fill="none" d="M 242.5 325 L 242.5 335" stroke="#C0D0E0" stroke-width="1" opacity="1"></path><path fill="none" d="M 329.5 325 L 329.5 335" stroke="#C0D0E0" stroke-width="1" opacity="1"></path><path fill="none" d="M 415.5 325 L 415.5 335" stroke="#C0D0E0" stroke-width="1" opacity="1"></path><path fill="none" d="M 502.5 325 L 502.5 335" stroke="#C0D0E0" stroke-width="1" opacity="1"></path><path fill="none" d="M 590.5 325 L 590.5 335" stroke="#C0D0E0" stroke-width="1" opacity="1"></path><path fill="none" d="M 155.5 325 L 155.5 335" stroke="#C0D0E0" stroke-width="1" opacity="1"></path><path fill="none" d="M 68.5 325 L 68.5 335" stroke="#C0D0E0" stroke-width="1" opacity="1"></path><path fill="none" d="M 69 325.5 L 590 325.5" stroke="#C0D0E0" stroke-width="1"  visibility="visible"></path></g><g class="highcharts-axis" ><text x="25"  text-anchor="middle" transform="translate(0,0) rotate(270 25 167.5)" class=" highcharts-yaxis-title" style="color:#707070;fill:#707070;" visibility="visible" y="167.5">成绩（分）</text></g><g class="highcharts-series-group" ><g class="highcharts-series" visibility="visible"  transform="translate(69,10) scale(1 1)" clip-path="url(#highcharts-8)"><rect x="19.5" y="90.5" width="21" height="225" fill="#999999" rx="0" ry="0" stroke="#FFFFFF" stroke-width="1"></rect><rect x="106.5" y="160.5" width="21" height="155" fill="#999999" rx="0" ry="0" stroke="#FFFFFF" stroke-width="1"></rect><rect x="193.5" y="90.5" width="21" height="225" fill="#999999" rx="0" ry="0" stroke="#FFFFFF" stroke-width="1"></rect><rect x="279.5" y="198.5" width="21" height="117" fill="#999999" rx="0" ry="0" stroke="#FFFFFF" stroke-width="1"></rect><rect x="366.5" y="191.5" width="21" height="124" fill="#999999" rx="0" ry="0" stroke="#FFFFFF" stroke-width="1"></rect><rect x="453.5" y="192.5" width="21" height="123" fill="#999999" rx="0" ry="0" stroke="#FFFFFF" stroke-width="1"></rect></g><g class="highcharts-markers" visibility="visible"  transform="translate(69,10) scale(1 1)" clip-path="none"></g><g class="highcharts-series" visibility="visible"  transform="translate(69,10) scale(1 1)" clip-path="url(#highcharts-8)"><rect x="45.5" y="50.5" width="21" height="265" fill="#7cb5ec" rx="0" ry="0" stroke="#FFFFFF" stroke-width="1"></rect><rect x="132.5" y="34.5" width="21" height="281" fill="#7cb5ec" rx="0" ry="0" stroke="#FFFFFF" stroke-width="1"></rect><rect x="219.5" y="26.5" width="21" height="289" fill="#7cb5ec" rx="0" ry="0" stroke="#FFFFFF" stroke-width="1"></rect><rect x="306.5" y="116.5" width="21" height="199" fill="#7cb5ec" rx="0" ry="0" stroke="#FFFFFF" stroke-width="1"></rect><rect x="392.5" y="109.5" width="21" height="206" fill="#7cb5ec" rx="0" ry="0" stroke="#FFFFFF" stroke-width="1"></rect><rect x="479.5" y="132.5" width="21" height="183" fill="#7cb5ec" rx="0" ry="0" stroke="#FFFFFF" stroke-width="1"></rect></g><g class="highcharts-markers" visibility="visible"  transform="translate(69,10) scale(1 1)" clip-path="none"></g><g class="highcharts-series" visibility="visible"  transform="translate(69,10) scale(1 1)" clip-path="url(#highcharts-8)"><path fill="none" d="M 43.416666666666664 117.6 L 130.25 102.89999999999998 L 217.08333333333331 67.19999999999999 L 303.9166666666667 205.8 L 390.75 140.7 L 477.5833333333333 159.6" stroke="#ff0000" stroke-width="2"  stroke-linejoin="round" stroke-linecap="round"></path></g><g class="highcharts-markers" visibility="visible"  transform="translate(69,10) scale(1 1)" clip-path="none"><path fill="#ff0000" d="M 477 155.6 C 482.328 155.6 482.328 163.6 477 163.6 C 471.672 163.6 471.672 155.6 477 155.6 Z"></path><path fill="#ff0000" d="M 390 136.7 C 395.328 136.7 395.328 144.7 390 144.7 C 384.672 144.7 384.672 136.7 390 136.7 Z"></path><path fill="#ff0000" d="M 303 201.8 C 308.328 201.8 308.328 209.8 303 209.8 C 297.672 209.8 297.672 201.8 303 201.8 Z"></path><path fill="#ff0000" d="M 217 63.19999999999999 C 222.328 63.19999999999999 222.328 71.19999999999999 217 71.19999999999999 C 211.672 71.19999999999999 211.672 63.19999999999999 217 63.19999999999999 Z"></path><path fill="#ff0000" d="M 130 98.89999999999998 C 135.328 98.89999999999998 135.328 106.89999999999998 130 106.89999999999998 C 124.672 106.89999999999998 124.672 98.89999999999998 130 98.89999999999998 Z"></path><path fill="#ff0000" d="M 43 113.6 C 48.328 113.6 48.328 121.6 43 121.6 C 37.672 121.6 37.672 113.6 43 113.6 Z"></path></g></g><g class="highcharts-legend"  transform="translate(135,367)"><g ><g><g class="highcharts-legend-item"  transform="translate(8,3)"><path fill="none" d="M 0 11 L 16 11" stroke="#ff0000" stroke-width="2"></path><path fill="#ff0000" d="M 8 7 C 13.328 7 13.328 15 8 15 C 2.6719999999999997 15 2.6719999999999997 7 8 7 Z"></path><text x="21" style="color:#333333;font-size:12px;font-weight:bold;cursor:pointer;fill:#333333;" text-anchor="start"  y="15">考生成绩</text></g><g class="highcharts-legend-item"  transform="translate(98,3)"><text x="21" y="15" style="color:#333333;font-size:12px;font-weight:bold;cursor:pointer;fill:#333333;" text-anchor="start" >全体学生平均分</text><rect x="0" y="4" width="16" height="12"  fill="#999999"></rect></g><g class="highcharts-legend-item"  transform="translate(224,3)"><text x="21" y="15" style="color:#333333;font-size:12px;font-weight:bold;cursor:pointer;fill:#333333;" text-anchor="start" >全体学生最高分</text><rect x="0" y="4" width="16" height="12"  fill="#7cb5ec"></rect></g></g></g></g><g class="highcharts-axis-labels highcharts-xaxis-labels" ><text x="112.41666666666666" text-anchor="middle" style="width:67px;color:#606060;cursor:default;font-size:11px;fill:#606060;" y="345" opacity="1">语文</text><text x="199.25" text-anchor="middle" style="width:67px;color:#606060;cursor:default;font-size:11px;fill:#606060;" y="345" opacity="1">数学</text><text x="286.0833333333333" text-anchor="middle" style="width:67px;color:#606060;cursor:default;font-size:11px;fill:#606060;" y="345" opacity="1">英语</text><text x="372.91666666666663" text-anchor="middle" style="width:67px;color:#606060;cursor:default;font-size:11px;fill:#606060;" y="345" opacity="1">物理</text><text x="459.75" text-anchor="middle" style="width:67px;color:#606060;cursor:default;font-size:11px;fill:#606060;" y="345" opacity="1">化学</text><text x="546.5833333333334" text-anchor="middle" style="width:67px;color:#606060;cursor:default;font-size:11px;fill:#606060;" y="345" opacity="1">生物</text></g><g class="highcharts-axis-labels highcharts-yaxis-labels" ><text x="54" text-anchor="end" style="width:178px;color:#606060;cursor:default;font-size:11px;fill:#606060;" y="330" opacity="1">0</text><text x="54" text-anchor="end" style="width:178px;color:#606060;cursor:default;font-size:11px;fill:#606060;" y="277.5" opacity="1">25</text><text x="54" text-anchor="end" style="width:178px;color:#606060;cursor:default;font-size:11px;fill:#606060;" y="225" opacity="1">50</text><text x="54" text-anchor="end" style="width:178px;color:#606060;cursor:default;font-size:11px;fill:#606060;" y="172.5" opacity="1">75</text><text x="54" text-anchor="end" style="width:178px;color:#606060;cursor:default;font-size:11px;fill:#606060;" y="120" opacity="1">100</text><text x="54" text-anchor="end" style="width:178px;color:#606060;cursor:default;font-size:11px;fill:#606060;" y="67.5" opacity="1">125</text><text x="54" text-anchor="end" style="width:178px;color:#606060;cursor:default;font-size:11px;fill:#606060;" y="15" opacity="1">150</text></g><g class="highcharts-tooltip"  style="cursor:default;padding:0;white-space:nowrap;" transform="translate(0,-9999)"><path fill="none" d="M 3 0 L 13 0 C 16 0 16 0 16 3 L 16 13 C 16 16 16 16 13 16 L 3 16 C 0 16 0 16 0 13 L 0 3 C 0 0 0 0 3 0"  stroke="black" stroke-opacity="0.049999999999999996" stroke-width="5" transform="translate(1, 1)"></path><path fill="none" d="M 3 0 L 13 0 C 16 0 16 0 16 3 L 16 13 C 16 16 16 16 13 16 L 3 16 C 0 16 0 16 0 13 L 0 3 C 0 0 0 0 3 0"  stroke="black" stroke-opacity="0.09999999999999999" stroke-width="3" transform="translate(1, 1)"></path><path fill="none" d="M 3 0 L 13 0 C 16 0 16 0 16 3 L 16 13 C 16 16 16 16 13 16 L 3 16 C 0 16 0 16 0 13 L 0 3 C 0 0 0 0 3 0"  stroke="black" stroke-opacity="0.15" stroke-width="1" transform="translate(1, 1)"></path><path fill="rgb(249, 249, 249)" fill-opacity=" .85" d="M 3 0 L 13 0 C 16 0 16 0 16 3 L 16 13 C 16 16 16 16 13 16 L 3 16 C 0 16 0 16 0 13 L 0 3 C 0 0 0 0 3 0"></path><text x="8"  style="font-size:12px;color:#333333;fill:#333333;" y="21"></text></g><text x="590" text-anchor="end"  style="cursor:pointer;color:#909090;font-size:9px;fill:#909090;" y="395">Septnet</text></svg>