<svg xmlns:xlink="http://www.w3.org/1999/xlink" version="1.1" style="font-family:'lucida grande', 'lucida sans unicode', arial, helvetica, sans-serif;font-size:12px;" xmlns="http://www.w3.org/2000/svg" width="600" height="400"><desc>Created with Highcharts 4.0.3</desc><defs><clipPath id="highcharts-8"><rect x="0" y="0" width="580" height="336"></rect></clipPath></defs><rect x="0" y="0" width="600" height="400" strokeWidth="0" fill="#FFFFFF" class=" highcharts-background"></rect><g class="highcharts-grid" ><path fill="none" d="M 300 178 L 423.6684276604179 249.39999999999998" stroke="#C0C0C0" stroke-width="1"  opacity="1"></path><path fill="none" d="M 300 178 L 300.00000000000006 320.8" stroke="#C0C0C0" stroke-width="1"  opacity="1"></path><path fill="none" d="M 300 178 L 176.33157233958218 249.40000000000003" stroke="#C0C0C0" stroke-width="1"  opacity="1"></path><path fill="none" d="M 300 178 L 176.33157233958215 106.59999999999997" stroke="#C0C0C0" stroke-width="1"  opacity="1"></path><path fill="none" d="M 300 178 L 300 35.19999999999999" stroke="#C0C0C0" stroke-width="1"  opacity="1"></path><path fill="none" d="M 300 178 L 423.6684276604178 106.59999999999991" stroke="#C0C0C0" stroke-width="1"  opacity="1"></path><path fill="none" d="M 300 178 L 423.6684276604179 106.6" stroke="#C0C0C0" stroke-width="1"  opacity="1"></path><path fill="none" d="M 300 178 L 300 35.19999999999999" stroke="#C0C0C0" stroke-width="1"  opacity="1"></path></g><g class="highcharts-grid" ><path fill="none" d="M 300 35.19999999999999 A 142.8 142.8 0 1 1 299.8572000237999 35.20007139999407 M 300 178 A 0 0 0 1 0 300 178 " stroke="#C0C0C0" stroke-width="1"  opacity="1"></path><path fill="none" d="M 300 82.8 A 95.2 95.2 0 1 1 299.9048000158666 82.80004759999606 M 300 178 A 0 0 0 1 0 300 178 " stroke="#C0C0C0" stroke-width="1"  opacity="1"></path><path fill="none" d="M 300 130.4 A 47.6 47.6 0 1 1 299.9524000079333 130.40002379999802 M 300 178 A 0 0 0 1 0 300 178 " stroke="#C0C0C0" stroke-width="1"  opacity="1"></path><path fill="none" stroke="#C0C0C0" stroke-width="1" ></path></g><g class="highcharts-axis" ><path fill="none" d="M 300 35.19999999999999 A 142.8 142.8 0 1 1 299.8572000237999 35.20007139999407 M 300 178 A 0 0 0 1 0 300 178 " stroke="#C0D0E0" stroke-width="1"  visibility="visible"></path></g><g class="highcharts-axis" ></g><g class="highcharts-series-group" ><g class="highcharts-series" visibility="visible"  transform="translate(10,10) scale(1 1)" clip-path="url(#highcharts-8)"><path fill="none" d="M 315.8427530364372 123.23903873343579 L 348.9897339593114 168 L 310.3587786259542 203.26243896019997 L 247.64293095349933 241.36459564824227 L 222.9546153846154 168 L 262.8019573978123 120.8916083465881 L 315.8427530364372 123.23903873343579" stroke="#ff0000" stroke-width="2"  stroke-linejoin="round" stroke-linecap="round"></path></g><g class="highcharts-markers" visibility="visible"  transform="translate(10,10) scale(1 1)" clip-path="none"><path fill="#ff0000" d="M 262 116.8916083465881 C 267.328 116.8916083465881 267.328 124.8916083465881 262 124.8916083465881 C 256.672 124.8916083465881 256.672 116.8916083465881 262 116.8916083465881 Z"></path><path fill="#ff0000" d="M 222 164 C 227.328 164 227.328 172 222 172 C 216.672 172 216.672 164 222 164 Z"></path><path fill="#ff0000" d="M 247 237.36459564824227 C 252.328 237.36459564824227 252.328 245.36459564824227 247 245.36459564824227 C 241.672 245.36459564824227 241.672 237.36459564824227 247 237.36459564824227 Z"></path><path fill="#ff0000" d="M 310 199.26243896019997 C 315.328 199.26243896019997 315.328 207.26243896019997 310 207.26243896019997 C 304.672 207.26243896019997 304.672 199.26243896019997 310 199.26243896019997 Z"></path><path fill="#ff0000" d="M 348 164 C 353.328 164 353.328 172 348 172 C 342.672 172 342.672 164 348 164 Z"></path><path fill="#ff0000" d="M 315 119.23903873343579 C 320.328 119.23903873343579 320.328 127.23903873343579 315 127.23903873343579 C 309.672 127.23903873343579 309.672 119.23903873343579 315 119.23903873343579 Z"></path></g><g class="highcharts-series" visibility="visible"  transform="translate(10,10) scale(1 1)" clip-path="url(#highcharts-8)"><path fill="none" d="M 313.8 126.77719077986072 L 337.6 168 L 313.8 209.22280922013925 L 266.20000000000005 209.22280922013928 L 242.4 168 L 266.2 126.77719077986075 L 313.8 126.77719077986072" stroke="#999999" stroke-width="2"  stroke-linejoin="round" stroke-linecap="round"></path></g><g class="highcharts-markers" visibility="visible"  transform="translate(10,10) scale(1 1)" clip-path="none"><path fill="#999999" d="M 266 122.77719077986075 L 270 126.77719077986075 266 130.77719077986075 262 126.77719077986075 Z"></path><path fill="#999999" d="M 242 164 L 246 168 242 172 238 168 Z"></path><path fill="#999999" d="M 266 205.22280922013928 L 270 209.22280922013928 266 213.22280922013928 262 209.22280922013928 Z"></path><path fill="#999999" d="M 313 205.22280922013925 L 317 209.22280922013925 313 213.22280922013925 309 209.22280922013925 Z"></path><path fill="#999999" d="M 337 164 L 341 168 337 172 333 168 Z"></path><path fill="#999999" d="M 313 122.77719077986072 L 317 126.77719077986072 313 130.77719077986072 309 126.77719077986072 Z"></path></g><g class="highcharts-series" visibility="visible"  transform="translate(10,10) scale(1 1)" clip-path="url(#highcharts-8)"><path fill="none" d="M 351.4945748987854 61.488271885453884 L 391.4498278560251 168 L 343.48854961832063 260.64488556210017 L 237.581869422264 258.7908653984186 L 175.8776923076923 168 L 230.26021876799072 64.52766367311041 L 351.4945748987854 61.488271885453884" stroke="#7cb5ec" stroke-width="2"  stroke-linejoin="round" stroke-linecap="round"></path></g><g class="highcharts-markers" visibility="visible"  transform="translate(10,10) scale(1 1)" clip-path="none"><path fill="#7cb5ec" d="M 226 60.52766367311041 L 234 60.52766367311041 234 68.52766367311041 226 68.52766367311041 Z"></path><path fill="#7cb5ec" d="M 171 164 L 179 164 179 172 171 172 Z"></path><path fill="#7cb5ec" d="M 233 254.7908653984186 L 241 254.7908653984186 241 262.7908653984186 233 262.7908653984186 Z"></path><path fill="#7cb5ec" d="M 339 256.64488556210017 L 347 256.64488556210017 347 264.64488556210017 339 264.64488556210017 Z"></path><path fill="#7cb5ec" d="M 387 164 L 395 164 395 172 387 172 Z"></path><path fill="#7cb5ec" d="M 347 57.488271885453884 L 355 57.488271885453884 355 65.48827188545388 347 65.48827188545388 Z"></path></g></g><g class="highcharts-legend"  transform="translate(154,366)"><g ><g><g class="highcharts-legend-item"  transform="translate(8,3)"><path fill="none" d="M 0 11 L 16 11" stroke="#ff0000" stroke-width="2"></path><path fill="#ff0000" d="M 8 7 C 13.328 7 13.328 15 8 15 C 2.6719999999999997 15 2.6719999999999997 7 8 7 Z"></path><text x="21" style="color:#333333;font-size:12px;font-weight:bold;cursor:pointer;fill:#333333;" text-anchor="start"  y="15">考生位置</text></g><g class="highcharts-legend-item"  transform="translate(101,3)"><path fill="none" d="M 0 11 L 16 11" stroke="#999999" stroke-width="2"></path><path fill="#999999" d="M 8 7 L 12 11 8 15 4 11 Z"></path><text x="21" y="15" style="color:#333333;font-size:12px;font-weight:bold;cursor:pointer;fill:#333333;" text-anchor="start" >平均分位置</text></g><g class="highcharts-legend-item"  transform="translate(207,3)"><path fill="none" d="M 0 11 L 16 11" stroke="#7cb5ec" stroke-width="2"></path><path fill="#7cb5ec" d="M 4 7 L 12 7 12 15 4 15 Z"></path><text x="21" y="15" style="color:#333333;font-size:12px;font-weight:bold;cursor:pointer;fill:#333333;" text-anchor="start" >最高分位置</text></g></g></g></g><g class="highcharts-axis-labels highcharts-xaxis-labels" ><text x="378.9" text-anchor="start" style="width:63px;color:#606060;cursor:default;font-size:11px;fill:#606060;" y="45.34119128281557" opacity="1">语文</text><text x="457.8" text-anchor="start" style="width:63px;color:#606060;cursor:default;font-size:11px;fill:#606060;" y="182" opacity="1">数学</text><text x="378.9000000000001" text-anchor="start" style="width:63px;color:#606060;cursor:default;font-size:11px;fill:#606060;" y="318.6588087171844" opacity="1">英语</text><text x="221.10000000000002" text-anchor="end" style="width:63px;color:#606060;cursor:default;font-size:11px;fill:#606060;" y="318.65880871718446" opacity="1">物理</text><text x="142.2" text-anchor="end" style="width:63px;color:#606060;cursor:default;font-size:11px;fill:#606060;" y="182.00000000000003" opacity="1">化学</text><text x="221.0999999999999" text-anchor="end" style="width:63px;color:#606060;cursor:default;font-size:11px;fill:#606060;" y="45.3411912828156" opacity="1">生物</text><text x="0" text-anchor="start" style="width:63px;color:#606060;cursor:default;font-size:11px;fill:#606060;" y="-9999">6</text></g><g class="highcharts-axis-labels highcharts-yaxis-labels" ><text x="297" text-anchor="end" style="width:178px;color:#606060;cursor:default;font-size:11px;fill:#606060;" y="176" opacity="1">-2</text><text x="297" text-anchor="end" style="width:178px;color:#606060;cursor:default;font-size:11px;fill:#606060;" y="128.4" opacity="1">0</text><text x="297" text-anchor="end" style="width:178px;color:#606060;cursor:default;font-size:11px;fill:#606060;" y="80.8" opacity="1">2</text><text x="0" text-anchor="end" style="width:178px;color:#606060;cursor:default;font-size:11px;fill:#606060;" y="-9999">4</text></g><g class="highcharts-tooltip"  style="cursor:default;padding:0;white-space:nowrap;" transform="translate(0,-9999)"><path fill="none" d="M 3 0 L 13 0 C 16 0 16 0 16 3 L 16 13 C 16 16 16 16 13 16 L 3 16 C 0 16 0 16 0 13 L 0 3 C 0 0 0 0 3 0"  stroke="black" stroke-opacity="0.049999999999999996" stroke-width="5" transform="translate(1, 1)"></path><path fill="none" d="M 3 0 L 13 0 C 16 0 16 0 16 3 L 16 13 C 16 16 16 16 13 16 L 3 16 C 0 16 0 16 0 13 L 0 3 C 0 0 0 0 3 0"  stroke="black" stroke-opacity="0.09999999999999999" stroke-width="3" transform="translate(1, 1)"></path><path fill="none" d="M 3 0 L 13 0 C 16 0 16 0 16 3 L 16 13 C 16 16 16 16 13 16 L 3 16 C 0 16 0 16 0 13 L 0 3 C 0 0 0 0 3 0"  stroke="black" stroke-opacity="0.15" stroke-width="1" transform="translate(1, 1)"></path><path fill="rgb(249, 249, 249)" fill-opacity=" .85" d="M 3 0 L 13 0 C 16 0 16 0 16 3 L 16 13 C 16 16 16 16 13 16 L 3 16 C 0 16 0 16 0 13 L 0 3 C 0 0 0 0 3 0"></path><text x="8"  style="font-size:12px;color:#333333;fill:#333333;" y="21"></text></g><text x="590" text-anchor="end"  style="cursor:pointer;color:#909090;font-size:9px;fill:#909090;" y="395">Septnet</text></svg>