<svg xmlns:xlink="http://www.w3.org/1999/xlink" version="1.1" style="font-family:'lucida grande', 'lucida sans unicode', arial, helvetica, sans-serif;font-size:12px;" xmlns="http://www.w3.org/2000/svg" width="600" height="400"><desc>Created with Highcharts 4.0.3</desc><defs><clipPath id="highcharts-25"><rect x="0" y="0" width="523" height="319"></rect></clipPath></defs><rect x="0" y="0" width="600" height="400" strokeWidth="0" fill="#FFFFFF" class=" highcharts-background"></rect><g class="highcharts-grid" ></g><g class="highcharts-grid" ><path fill="none" d="M 67 9.5 L 590 9.5" stroke="#C0C0C0" stroke-width="1"  opacity="1"></path><path fill="none" d="M 67 63.5 L 590 63.5" stroke="#C0C0C0" stroke-width="1"  opacity="1"></path><path fill="none" d="M 67 116.5 L 590 116.5" stroke="#C0C0C0" stroke-width="1"  opacity="1"></path><path fill="none" d="M 67 170.5 L 590 170.5" stroke="#C0C0C0" stroke-width="1"  opacity="1"></path><path fill="none" d="M 67 223.5 L 590 223.5" stroke="#C0C0C0" stroke-width="1"  opacity="1"></path><path fill="none" d="M 67 276.5 L 590 276.5" stroke="#C0C0C0" stroke-width="1"  opacity="1"></path><path fill="none" d="M 67 329.5 L 590 329.5" stroke="#C0C0C0" stroke-width="1"  opacity="1"></path></g><g class="highcharts-axis" ><path fill="none" d="M 240.5 329 L 240.5 339" stroke="#C0D0E0" stroke-width="1" opacity="1"></path><path fill="none" d="M 328.5 329 L 328.5 339" stroke="#C0D0E0" stroke-width="1" opacity="1"></path><path fill="none" d="M 415.5 329 L 415.5 339" stroke="#C0D0E0" stroke-width="1" opacity="1"></path><path fill="none" d="M 502.5 329 L 502.5 339" stroke="#C0D0E0" stroke-width="1" opacity="1"></path><path fill="none" d="M 590.5 329 L 590.5 339" stroke="#C0D0E0" stroke-width="1" opacity="1"></path><path fill="none" d="M 153.5 329 L 153.5 339" stroke="#C0D0E0" stroke-width="1" opacity="1"></path><path fill="none" d="M 66.5 329 L 66.5 339" stroke="#C0D0E0" stroke-width="1" opacity="1"></path><path fill="none" d="M 67 329.5 L 590 329.5" stroke="#C0D0E0" stroke-width="1"  visibility="visible"></path></g><g class="highcharts-axis" ><text x="23"  text-anchor="middle" transform="translate(0,0) rotate(270 23 169.5)" class=" highcharts-yaxis-title" style="color:#707070;fill:#707070;" visibility="visible" y="169.5">成绩（分）</text></g><g class="highcharts-series-group" ><g class="highcharts-series" visibility="visible"  transform="translate(67,10) scale(1 1)" clip-path="url(#highcharts-25)"><rect x="19.5" y="141.5" width="21" height="178" fill="#999999" rx="0" ry="0" stroke="#FFFFFF" stroke-width="1"></rect><rect x="106.5" y="144.5" width="21" height="175" fill="#999999" rx="0" ry="0" stroke="#FFFFFF" stroke-width="1"></rect><rect x="193.5" y="152.5" width="21" height="167" fill="#999999" rx="0" ry="0" stroke="#FFFFFF" stroke-width="1"></rect><rect x="281.5" y="222.5" width="21" height="97" fill="#999999" rx="0" ry="0" stroke="#FFFFFF" stroke-width="1"></rect><rect x="368.5" y="226.5" width="21" height="93" fill="#999999" rx="0" ry="0" stroke="#FFFFFF" stroke-width="1"></rect><rect x="455.5" y="226.5" width="21" height="93" fill="#999999" rx="0" ry="0" stroke="#FFFFFF" stroke-width="1"></rect></g><g class="highcharts-markers" visibility="visible"  transform="translate(67,10) scale(1 1)" clip-path="none"></g><g class="highcharts-series" visibility="visible"  transform="translate(67,10) scale(1 1)" clip-path="url(#highcharts-25)"><rect x="45.5" y="100.5" width="21" height="219" fill="#7cb5ec" rx="0" ry="0" stroke="#FFFFFF" stroke-width="1"></rect><rect x="132.5" y="64.5" width="21" height="255" fill="#7cb5ec" rx="0" ry="0" stroke="#FFFFFF" stroke-width="1"></rect><rect x="220.5" y="81.5" width="21" height="238" fill="#7cb5ec" rx="0" ry="0" stroke="#FFFFFF" stroke-width="1"></rect><rect x="307.5" y="138.5" width="21" height="181" fill="#7cb5ec" rx="0" ry="0" stroke="#FFFFFF" stroke-width="1"></rect><rect x="394.5" y="145.5" width="21" height="174" fill="#7cb5ec" rx="0" ry="0" stroke="#FFFFFF" stroke-width="1"></rect><rect x="481.5" y="183.5" width="21" height="136" fill="#7cb5ec" rx="0" ry="0" stroke="#FFFFFF" stroke-width="1"></rect></g><g class="highcharts-markers" visibility="visible"  transform="translate(67,10) scale(1 1)" clip-path="none"></g><g class="highcharts-series" visibility="visible"  transform="translate(67,10) scale(1 1)" clip-path="url(#highcharts-25)"><path fill="none" d="M 43.583333333333336 161.6266666666667 L 130.75 153.12 L 217.91666666666669 156.31 L 305.0833333333333 257.32666666666665 L 392.25 227.55333333333334 L 479.4166666666667 240.31333333333333" stroke="#ff0000" stroke-width="2"  stroke-linejoin="round" stroke-linecap="round"></path></g><g class="highcharts-markers" visibility="visible"  transform="translate(67,10) scale(1 1)" clip-path="none"><path fill="#ff0000" d="M 479 236.31333333333333 C 484.328 236.31333333333333 484.328 244.31333333333333 479 244.31333333333333 C 473.672 244.31333333333333 473.672 236.31333333333333 479 236.31333333333333 Z"></path><path fill="#ff0000" d="M 392 223.55333333333334 C 397.328 223.55333333333334 397.328 231.55333333333334 392 231.55333333333334 C 386.672 231.55333333333334 386.672 223.55333333333334 392 223.55333333333334 Z"></path><path fill="#ff0000" d="M 305 253.32666666666665 C 310.328 253.32666666666665 310.328 261.32666666666665 305 261.32666666666665 C 299.672 261.32666666666665 299.672 253.32666666666665 305 253.32666666666665 Z"></path><path fill="#ff0000" d="M 217 152.31 C 222.328 152.31 222.328 160.31 217 160.31 C 211.672 160.31 211.672 152.31 217 152.31 Z"></path><path fill="#ff0000" d="M 130 149.12 C 135.328 149.12 135.328 157.12 130 157.12 C 124.672 157.12 124.672 149.12 130 149.12 Z"></path><path fill="#ff0000" d="M 43 157.6266666666667 C 48.328 157.6266666666667 48.328 165.6266666666667 43 165.6266666666667 C 37.672 165.6266666666667 37.672 157.6266666666667 43 157.6266666666667 Z"></path></g></g><g class="highcharts-legend"  transform="translate(113,369)"><g ><g><g class="highcharts-legend-item"  transform="translate(8,3)"><path fill="none" d="M 0 11 L 16 11" stroke="#ff0000" stroke-width="2"></path><path fill="#ff0000" d="M 8 7 C 13.328 7 13.328 15 8 15 C 2.6719999999999997 15 2.6719999999999997 7 8 7 Z"></path><text x="21" style="color:#333333;font-size:12px;font-weight:bold;cursor:pointer;fill:#333333;" text-anchor="start"  y="15">考生成绩</text></g><g class="highcharts-legend-item"  transform="translate(97,3)"><text x="21" y="15" style="color:#333333;font-size:12px;font-weight:bold;cursor:pointer;fill:#333333;" text-anchor="start" >考生单位学生平均分</text><rect x="0" y="4" width="16" height="12"  fill="#999999"></rect></g><g class="highcharts-legend-item"  transform="translate(246,3)"><text x="21" y="15" style="color:#333333;font-size:12px;font-weight:bold;cursor:pointer;fill:#333333;" text-anchor="start" >考生单位学生最高分</text><rect x="0" y="4" width="16" height="12"  fill="#7cb5ec"></rect></g></g></g></g><g class="highcharts-axis-labels highcharts-xaxis-labels" ><text x="110.58333333333334" text-anchor="middle" style="width:67px;color:#606060;cursor:default;font-size:11px;fill:#606060;" y="349" opacity="1">语文</text><text x="197.75" text-anchor="middle" style="width:67px;color:#606060;cursor:default;font-size:11px;fill:#606060;" y="349" opacity="1">数学</text><text x="284.9166666666667" text-anchor="middle" style="width:67px;color:#606060;cursor:default;font-size:11px;fill:#606060;" y="349" opacity="1">英语</text><text x="372.08333333333337" text-anchor="middle" style="width:67px;color:#606060;cursor:default;font-size:11px;fill:#606060;" y="349" opacity="1">物理</text><text x="459.25" text-anchor="middle" style="width:67px;color:#606060;cursor:default;font-size:11px;fill:#606060;" y="349" opacity="1">化学</text><text x="546.4166666666666" text-anchor="middle" style="width:67px;color:#606060;cursor:default;font-size:11px;fill:#606060;" y="349" opacity="1">生物</text></g><g class="highcharts-axis-labels highcharts-yaxis-labels" ><text x="52" text-anchor="end" style="width:178px;color:#606060;cursor:default;font-size:11px;fill:#606060;" y="335" opacity="1">0</text><text x="52" text-anchor="end" style="width:178px;color:#606060;cursor:default;font-size:11px;fill:#606060;" y="281.8333333333333" opacity="1">25</text><text x="52" text-anchor="end" style="width:178px;color:#606060;cursor:default;font-size:11px;fill:#606060;" y="228.66666666666669" opacity="1">50</text><text x="52" text-anchor="end" style="width:178px;color:#606060;cursor:default;font-size:11px;fill:#606060;" y="175.5" opacity="1">75</text><text x="52" text-anchor="end" style="width:178px;color:#606060;cursor:default;font-size:11px;fill:#606060;" y="122.33333333333334" opacity="1">100</text><text x="52" text-anchor="end" style="width:178px;color:#606060;cursor:default;font-size:11px;fill:#606060;" y="69.16666666666669" opacity="1">125</text><text x="52" text-anchor="end" style="width:178px;color:#606060;cursor:default;font-size:11px;fill:#606060;" y="16" opacity="1">150</text></g><g class="highcharts-tooltip"  style="cursor:default;padding:0;white-space:nowrap;" transform="translate(0,-9999)"><path fill="none" d="M 3 0 L 13 0 C 16 0 16 0 16 3 L 16 13 C 16 16 16 16 13 16 L 3 16 C 0 16 0 16 0 13 L 0 3 C 0 0 0 0 3 0"  stroke="black" stroke-opacity="0.049999999999999996" stroke-width="5" transform="translate(1, 1)"></path><path fill="none" d="M 3 0 L 13 0 C 16 0 16 0 16 3 L 16 13 C 16 16 16 16 13 16 L 3 16 C 0 16 0 16 0 13 L 0 3 C 0 0 0 0 3 0"  stroke="black" stroke-opacity="0.09999999999999999" stroke-width="3" transform="translate(1, 1)"></path><path fill="none" d="M 3 0 L 13 0 C 16 0 16 0 16 3 L 16 13 C 16 16 16 16 13 16 L 3 16 C 0 16 0 16 0 13 L 0 3 C 0 0 0 0 3 0"  stroke="black" stroke-opacity="0.15" stroke-width="1" transform="translate(1, 1)"></path><path fill="rgb(249, 249, 249)" fill-opacity=" .85" d="M 3 0 L 13 0 C 16 0 16 0 16 3 L 16 13 C 16 16 16 16 13 16 L 3 16 C 0 16 0 16 0 13 L 0 3 C 0 0 0 0 3 0"></path><text x="8"  style="font-size:12px;color:#333333;fill:#333333;" y="21"></text></g><text x="590" text-anchor="end"  style="cursor:pointer;color:#909090;font-size:9px;fill:#909090;" y="395">Septnet</text></svg>