<svg xmlns:xlink="http://www.w3.org/1999/xlink" version="1.1" style="font-family:'lucida grande', 'lucida sans unicode', arial, helvetica, sans-serif;font-size:12px;" xmlns="http://www.w3.org/2000/svg" width="600" height="400"><desc>Created with Highcharts 4.0.3</desc><defs><clipPath id="highcharts-8"><rect x="0" y="0" width="580" height="337"></rect></clipPath></defs><rect x="0" y="0" width="600" height="400" strokeWidth="0" fill="#FFFFFF" class=" highcharts-background"></rect><g class="highcharts-grid" ><path fill="none" d="M 300 178.5 L 424.0364884570262 250.11249999999995" stroke="#C0C0C0" stroke-width="1"  opacity="1"></path><path fill="none" d="M 300 178.5 L 300.00000000000006 321.725" stroke="#C0C0C0" stroke-width="1"  opacity="1"></path><path fill="none" d="M 300 178.5 L 175.9635115429738 250.11250000000004" stroke="#C0C0C0" stroke-width="1"  opacity="1"></path><path fill="none" d="M 300 178.5 L 175.96351154297378 106.88749999999999" stroke="#C0C0C0" stroke-width="1"  opacity="1"></path><path fill="none" d="M 300 178.5 L 300 35.275000000000006" stroke="#C0C0C0" stroke-width="1"  opacity="1"></path><path fill="none" d="M 300 178.5 L 424.03648845702617 106.88749999999995" stroke="#C0C0C0" stroke-width="1"  opacity="1"></path><path fill="none" d="M 300 178.5 L 424.0364884570262 106.8875" stroke="#C0C0C0" stroke-width="1"  opacity="1"></path><path fill="none" d="M 300 178.5 L 300 35.275000000000006" stroke="#C0C0C0" stroke-width="1"  opacity="1"></path></g><g class="highcharts-grid" ><path fill="none" d="M 300 35.275000000000006 A 143.225 143.225 0 1 1 299.85677502387074 35.27507161249403 M 300 178.5 A 0 0 0 1 0 300 178.5 " stroke="#C0C0C0" stroke-width="1"  opacity="1"></path><path fill="none" d="M 300 83.01666666666667 A 95.48333333333333 95.48333333333333 0 1 1 299.9045166825805 83.01671440832935 M 300 178.5 A 0 0 0 1 0 300 178.5 " stroke="#C0C0C0" stroke-width="1"  opacity="1"></path><path fill="none" d="M 300 130.75833333333333 A 47.74166666666667 47.74166666666667 0 1 1 299.95225834129025 130.75835720416467 M 300 178.5 A 0 0 0 1 0 300 178.5 " stroke="#C0C0C0" stroke-width="1"  opacity="1"></path><path fill="none" stroke="#C0C0C0" stroke-width="1" ></path></g><g class="highcharts-axis" ><path fill="none" d="M 300 35.275000000000006 A 143.225 143.225 0 1 1 299.85677502387074 35.27507161249403 M 300 178.5 A 0 0 0 1 0 300 178.5 " stroke="#C0D0E0" stroke-width="1"  visibility="visible"></path></g><g class="highcharts-axis" ></g><g class="highcharts-series-group" ><g class="highcharts-series" visibility="visible"  transform="translate(10,10) scale(1 1)" clip-path="url(#highcharts-8)"><path fill="none" d="M 318.0180674638989 119.97128362263459 L 345.5509477730647 168.5 L 333.97927048338937 244.67433095704456 L 249.7898910692213 238.14595164598785 L 226.79687886279356 168.5 L 254.01125127420994 106.16565870610202 L 318.0180674638989 119.97128362263459" stroke="#ff0000" stroke-width="2"  stroke-linejoin="round" stroke-linecap="round"></path></g><g class="highcharts-markers" visibility="visible"  transform="translate(10,10) scale(1 1)" clip-path="none"><path fill="#ff0000" d="M 254 102.16565870610202 C 259.328 102.16565870610202 259.328 110.16565870610202 254 110.16565870610202 C 248.672 110.16565870610202 248.672 102.16565870610202 254 102.16565870610202 Z"></path><path fill="#ff0000" d="M 226 164.5 C 231.328 164.5 231.328 172.5 226 172.5 C 220.672 172.5 220.672 164.5 226 164.5 Z"></path><path fill="#ff0000" d="M 249 234.14595164598785 C 254.328 234.14595164598785 254.328 242.14595164598785 249 242.14595164598785 C 243.672 242.14595164598785 243.672 234.14595164598785 249 234.14595164598785 Z"></path><path fill="#ff0000" d="M 333 240.67433095704456 C 338.328 240.67433095704456 338.328 248.67433095704456 333 248.67433095704456 C 327.672 248.67433095704456 327.672 240.67433095704456 333 240.67433095704456 Z"></path><path fill="#ff0000" d="M 345 164.5 C 350.328 164.5 350.328 172.5 345 172.5 C 339.672 172.5 339.672 164.5 345 164.5 Z"></path><path fill="#ff0000" d="M 318 115.97128362263459 C 323.328 115.97128362263459 323.328 123.97128362263459 318 123.97128362263459 C 312.672 123.97128362263459 312.672 115.97128362263459 318 115.97128362263459 Z"></path></g><g class="highcharts-series" visibility="visible"  transform="translate(10,10) scale(1 1)" clip-path="url(#highcharts-8)"><path fill="none" d="M 313.87083333333334 127.1545038476579 L 337.7416666666667 168.5 L 313.87083333333334 209.84549615234206 L 266.12916666666666 209.8454961523421 L 242.25833333333333 168.5 L 266.12916666666666 127.15450384765794 L 313.87083333333334 127.1545038476579" stroke="#999999" stroke-width="2"  stroke-linejoin="round" stroke-linecap="round"></path></g><g class="highcharts-markers" visibility="visible"  transform="translate(10,10) scale(1 1)" clip-path="none"><path fill="#999999" d="M 266 123.15450384765794 L 270 127.15450384765794 266 131.15450384765794 262 127.15450384765794 Z"></path><path fill="#999999" d="M 242 164.5 L 246 168.5 242 172.5 238 168.5 Z"></path><path fill="#999999" d="M 266 205.8454961523421 L 270 209.8454961523421 266 213.8454961523421 262 209.8454961523421 Z"></path><path fill="#999999" d="M 313 205.84549615234206 L 317 209.84549615234206 313 213.84549615234206 309 209.84549615234206 Z"></path><path fill="#999999" d="M 337 164.5 L 341 168.5 337 172.5 333 168.5 Z"></path><path fill="#999999" d="M 313 123.1545038476579 L 317 127.1545038476579 313 131.1545038476579 309 127.1545038476579 Z"></path></g><g class="highcharts-series" visibility="visible"  transform="translate(10,10) scale(1 1)" clip-path="url(#highcharts-8)"><path fill="none" d="M 340.63934453971115 80.7900823952346 L 403.77249248851183 168.5 L 341.66444918812994 257.98545093890164 L 230.61060594355175 271.36544793649756 L 178.11100123609395 168.5 L 232.1114041794087 68.23401085991664 L 340.63934453971115 80.7900823952346" stroke="#7cb5ec" stroke-width="2"  stroke-linejoin="round" stroke-linecap="round"></path></g><g class="highcharts-markers" visibility="visible"  transform="translate(10,10) scale(1 1)" clip-path="none"><path fill="#7cb5ec" d="M 228 64.23401085991664 L 236 64.23401085991664 236 72.23401085991664 228 72.23401085991664 Z"></path><path fill="#7cb5ec" d="M 174 164.5 L 182 164.5 182 172.5 174 172.5 Z"></path><path fill="#7cb5ec" d="M 226 267.36544793649756 L 234 267.36544793649756 234 275.36544793649756 226 275.36544793649756 Z"></path><path fill="#7cb5ec" d="M 337 253.98545093890164 L 345 253.98545093890164 345 261.98545093890164 337 261.98545093890164 Z"></path><path fill="#7cb5ec" d="M 399 164.5 L 407 164.5 407 172.5 399 172.5 Z"></path><path fill="#7cb5ec" d="M 336 76.7900823952346 L 344 76.7900823952346 344 84.7900823952346 336 84.7900823952346 Z"></path></g></g><g class="highcharts-legend"  transform="translate(161,367)"><g ><g><g class="highcharts-legend-item"  transform="translate(8,3)"><path fill="none" d="M 0 11 L 16 11" stroke="#ff0000" stroke-width="2"></path><path fill="#ff0000" d="M 8 7 C 13.328 7 13.328 15 8 15 C 2.6719999999999997 15 2.6719999999999997 7 8 7 Z"></path><text x="21" style="color:#333333;font-size:12px;font-weight:bold;cursor:pointer;fill:#333333;" text-anchor="start"  y="15">考生位置</text></g><g class="highcharts-legend-item"  transform="translate(97,3)"><path fill="none" d="M 0 11 L 16 11" stroke="#999999" stroke-width="2"></path><path fill="#999999" d="M 8 7 L 12 11 8 15 4 11 Z"></path><text x="21" y="15" style="color:#333333;font-size:12px;font-weight:bold;cursor:pointer;fill:#333333;" text-anchor="start" >平均分位置</text></g><g class="highcharts-legend-item"  transform="translate(198,3)"><path fill="none" d="M 0 11 L 16 11" stroke="#7cb5ec" stroke-width="2"></path><path fill="#7cb5ec" d="M 4 7 L 12 7 12 15 4 15 Z"></path><text x="21" y="15" style="color:#333333;font-size:12px;font-weight:bold;cursor:pointer;fill:#333333;" text-anchor="start" >最高分位置</text></g></g></g></g><g class="highcharts-axis-labels highcharts-xaxis-labels" ><text x="379.11249999999995" text-anchor="start" style="width:63px;color:#606060;cursor:default;font-size:11px;fill:#606060;" y="46.4731304862072" opacity="1">语文</text><text x="458.225" text-anchor="start" style="width:63px;color:#606060;cursor:default;font-size:11px;fill:#606060;" y="183.5" opacity="1">数学</text><text x="379.11250000000007" text-anchor="start" style="width:63px;color:#606060;cursor:default;font-size:11px;fill:#606060;" y="320.5268695137928" opacity="1">英语</text><text x="220.88750000000005" text-anchor="end" style="width:63px;color:#606060;cursor:default;font-size:11px;fill:#606060;" y="320.5268695137928" opacity="1">物理</text><text x="141.775" text-anchor="end" style="width:63px;color:#606060;cursor:default;font-size:11px;fill:#606060;" y="183.50000000000003" opacity="1">化学</text><text x="220.88749999999993" text-anchor="end" style="width:63px;color:#606060;cursor:default;font-size:11px;fill:#606060;" y="46.473130486207225" opacity="1">生物</text><text x="0" text-anchor="start" style="width:63px;color:#606060;cursor:default;font-size:11px;fill:#606060;" y="-9999">6</text></g><g class="highcharts-axis-labels highcharts-yaxis-labels" ><text x="297" text-anchor="end" style="width:178px;color:#606060;cursor:default;font-size:11px;fill:#606060;" y="176.5" opacity="1">-2</text><text x="297" text-anchor="end" style="width:178px;color:#606060;cursor:default;font-size:11px;fill:#606060;" y="128.75833333333333" opacity="1">0</text><text x="297" text-anchor="end" style="width:178px;color:#606060;cursor:default;font-size:11px;fill:#606060;" y="81.01666666666667" opacity="1">2</text><text x="0" text-anchor="end" style="width:178px;color:#606060;cursor:default;font-size:11px;fill:#606060;" y="-9999">4</text></g><g class="highcharts-tooltip"  style="cursor:default;padding:0;white-space:nowrap;" transform="translate(0,-9999)"><path fill="none" d="M 3 0 L 13 0 C 16 0 16 0 16 3 L 16 13 C 16 16 16 16 13 16 L 3 16 C 0 16 0 16 0 13 L 0 3 C 0 0 0 0 3 0"  stroke="black" stroke-opacity="0.049999999999999996" stroke-width="5" transform="translate(1, 1)"></path><path fill="none" d="M 3 0 L 13 0 C 16 0 16 0 16 3 L 16 13 C 16 16 16 16 13 16 L 3 16 C 0 16 0 16 0 13 L 0 3 C 0 0 0 0 3 0"  stroke="black" stroke-opacity="0.09999999999999999" stroke-width="3" transform="translate(1, 1)"></path><path fill="none" d="M 3 0 L 13 0 C 16 0 16 0 16 3 L 16 13 C 16 16 16 16 13 16 L 3 16 C 0 16 0 16 0 13 L 0 3 C 0 0 0 0 3 0"  stroke="black" stroke-opacity="0.15" stroke-width="1" transform="translate(1, 1)"></path><path fill="rgb(249, 249, 249)" fill-opacity=" .85" d="M 3 0 L 13 0 C 16 0 16 0 16 3 L 16 13 C 16 16 16 16 13 16 L 3 16 C 0 16 0 16 0 13 L 0 3 C 0 0 0 0 3 0"></path><text x="8"  style="font-size:12px;color:#333333;fill:#333333;" y="21"></text></g><text x="590" text-anchor="end"  style="cursor:pointer;color:#909090;font-size:9px;fill:#909090;" y="395">Septnet</text></svg>