<svg xmlns:xlink="http://www.w3.org/1999/xlink" version="1.1" style="font-family:'lucida grande', 'lucida sans unicode', arial, helvetica, sans-serif;font-size:12px;" xmlns="http://www.w3.org/2000/svg" width="600" height="400"><desc>Created with Highcharts 4.0.3</desc><defs><clipPath id="highcharts-8"><rect x="0" y="0" width="519" height="315"></rect></clipPath></defs><rect x="0" y="0" width="600" height="400" strokeWidth="0" fill="#FFFFFF" class=" highcharts-background"></rect><g class="highcharts-grid" ></g><g class="highcharts-grid" ><path fill="none" d="M 71 9.5 L 590 9.5" stroke="#C0C0C0" stroke-width="1"  opacity="1"></path><path fill="none" d="M 71 63.5 L 590 63.5" stroke="#C0C0C0" stroke-width="1"  opacity="1"></path><path fill="none" d="M 71 115.5 L 590 115.5" stroke="#C0C0C0" stroke-width="1"  opacity="1"></path><path fill="none" d="M 71 168.5 L 590 168.5" stroke="#C0C0C0" stroke-width="1"  opacity="1"></path><path fill="none" d="M 71 220.5 L 590 220.5" stroke="#C0C0C0" stroke-width="1"  opacity="1"></path><path fill="none" d="M 71 273.5 L 590 273.5" stroke="#C0C0C0" stroke-width="1"  opacity="1"></path><path fill="none" d="M 71 325.5 L 590 325.5" stroke="#C0C0C0" stroke-width="1"  opacity="1"></path></g><g class="highcharts-axis" ><path fill="none" d="M 243.5 325 L 243.5 335" stroke="#C0D0E0" stroke-width="1" opacity="1"></path><path fill="none" d="M 330.5 325 L 330.5 335" stroke="#C0D0E0" stroke-width="1" opacity="1"></path><path fill="none" d="M 416.5 325 L 416.5 335" stroke="#C0D0E0" stroke-width="1" opacity="1"></path><path fill="none" d="M 503.5 325 L 503.5 335" stroke="#C0D0E0" stroke-width="1" opacity="1"></path><path fill="none" d="M 590.5 325 L 590.5 335" stroke="#C0D0E0" stroke-width="1" opacity="1"></path><path fill="none" d="M 157.5 325 L 157.5 335" stroke="#C0D0E0" stroke-width="1" opacity="1"></path><path fill="none" d="M 70.5 325 L 70.5 335" stroke="#C0D0E0" stroke-width="1" opacity="1"></path><path fill="none" d="M 71 325.5 L 590 325.5" stroke="#C0D0E0" stroke-width="1"  visibility="visible"></path></g><g class="highcharts-axis" ><text x="25"  text-anchor="middle" transform="translate(0,0) rotate(270 25 167.5)" class=" highcharts-yaxis-title" style="color:#707070;fill:#707070;" visibility="visible" y="167.5">成绩（分）</text></g><g class="highcharts-series-group" ><g class="highcharts-series" visibility="hidden"  transform="translate(71,10) scale(1 1)" clip-path="url(#highcharts-8)"></g><g class="highcharts-markers" visibility="hidden"  transform="translate(71,10) scale(1 1)" clip-path="none"></g><g class="highcharts-series" visibility="visible"  transform="translate(71,10) scale(1 1)" clip-path="url(#highcharts-8)"><rect x="21.5" y="88.5" width="42" height="227" fill="#7cb5ec" rx="0" ry="0" stroke="#FFFFFF" stroke-width="1"></rect><rect x="108.5" y="82.5" width="42" height="233" fill="#7cb5ec" rx="0" ry="0" stroke="#FFFFFF" stroke-width="1"></rect><rect x="194.5" y="48.5" width="42" height="267" fill="#7cb5ec" rx="0" ry="0" stroke="#FFFFFF" stroke-width="1"></rect><rect x="281.5" y="132.5" width="42" height="183" fill="#7cb5ec" rx="0" ry="0" stroke="#FFFFFF" stroke-width="1"></rect><rect x="367.5" y="149.5" width="42" height="166" fill="#7cb5ec" rx="0" ry="0" stroke="#FFFFFF" stroke-width="1"></rect><rect x="454.5" y="147.5" width="42" height="168" fill="#7cb5ec" rx="0" ry="0" stroke="#FFFFFF" stroke-width="1"></rect></g><g class="highcharts-markers" visibility="visible"  transform="translate(71,10) scale(1 1)" clip-path="none"></g><g class="highcharts-series" visibility="visible"  transform="translate(71,10) scale(1 1)" clip-path="url(#highcharts-8)"><path fill="none" d="M 43.25 117.6 L 129.75 184.79999999999998 L 216.25 147 L 302.75 172.2 L 389.25 212.1 L 475.75 195.3" stroke="#ff0000" stroke-width="2"  stroke-linejoin="round" stroke-linecap="round"></path></g><g class="highcharts-markers" visibility="visible"  transform="translate(71,10) scale(1 1)" clip-path="none"><path fill="#ff0000" d="M 475 191.3 C 480.328 191.3 480.328 199.3 475 199.3 C 469.672 199.3 469.672 191.3 475 191.3 Z"></path><path fill="#ff0000" d="M 389 208.1 C 394.328 208.1 394.328 216.1 389 216.1 C 383.672 216.1 383.672 208.1 389 208.1 Z"></path><path fill="#ff0000" d="M 302 168.2 C 307.328 168.2 307.328 176.2 302 176.2 C 296.672 176.2 296.672 168.2 302 168.2 Z"></path><path fill="#ff0000" d="M 216 143 C 221.328 143 221.328 151 216 151 C 210.672 151 210.672 143 216 143 Z"></path><path fill="#ff0000" d="M 129 180.79999999999998 C 134.328 180.79999999999998 134.328 188.79999999999998 129 188.79999999999998 C 123.672 188.79999999999998 123.672 180.79999999999998 129 180.79999999999998 Z"></path><path fill="#ff0000" d="M 43 113.6 C 48.328 113.6 48.328 121.6 43 121.6 C 37.672 121.6 37.672 113.6 43 113.6 Z"></path></g></g><g class="highcharts-legend"  transform="translate(113,367)"><g ><g><g class="highcharts-legend-item"  transform="translate(8,3)"><path fill="none" d="M 0 11 L 16 11" stroke="#ff0000" stroke-width="2"></path><path fill="#ff0000" d="M 8 7 C 13.328 7 13.328 15 8 15 C 2.6719999999999997 15 2.6719999999999997 7 8 7 Z"></path><text x="21" style="color:#333333;font-size:12px;font-weight:bold;cursor:pointer;fill:#333333;" text-anchor="start"  y="15">考生成绩</text></g><g class="highcharts-legend-item"  transform="translate(97,3)"><text x="21" y="15" style="color:#ccc;font-size:12px;font-weight:bold;cursor:pointer;fill:#ccc;" text-anchor="start" >考生单位学生平均分</text><rect x="0" y="4" width="16" height="12"  fill="#CCC"></rect></g><g class="highcharts-legend-item"  transform="translate(246,3)"><text x="21" y="15" style="color:#333333;font-size:12px;font-weight:bold;cursor:pointer;fill:#333333;" text-anchor="start" >考生单位学生最高分</text><rect x="0" y="4" width="16" height="12"  fill="#7cb5ec"></rect></g></g></g></g><g class="highcharts-axis-labels highcharts-xaxis-labels" ><text x="114.25" text-anchor="middle" style="width:67px;color:#606060;cursor:default;font-size:11px;fill:#606060;" y="345" opacity="1">语文</text><text x="200.75" text-anchor="middle" style="width:67px;color:#606060;cursor:default;font-size:11px;fill:#606060;" y="345" opacity="1">数学</text><text x="287.25" text-anchor="middle" style="width:67px;color:#606060;cursor:default;font-size:11px;fill:#606060;" y="345" opacity="1">英语</text><text x="373.75" text-anchor="middle" style="width:67px;color:#606060;cursor:default;font-size:11px;fill:#606060;" y="345" opacity="1">政治</text><text x="460.25" text-anchor="middle" style="width:67px;color:#606060;cursor:default;font-size:11px;fill:#606060;" y="345" opacity="1">历史</text><text x="546.75" text-anchor="middle" style="width:67px;color:#606060;cursor:default;font-size:11px;fill:#606060;" y="345" opacity="1">地理</text></g><g class="highcharts-axis-labels highcharts-yaxis-labels" ><text x="56" text-anchor="end" style="width:178px;color:#606060;cursor:default;font-size:11px;fill:#606060;" y="330" opacity="1">0</text><text x="56" text-anchor="end" style="width:178px;color:#606060;cursor:default;font-size:11px;fill:#606060;" y="277.5" opacity="1">25</text><text x="56" text-anchor="end" style="width:178px;color:#606060;cursor:default;font-size:11px;fill:#606060;" y="225" opacity="1">50</text><text x="56" text-anchor="end" style="width:178px;color:#606060;cursor:default;font-size:11px;fill:#606060;" y="172.5" opacity="1">75</text><text x="56" text-anchor="end" style="width:178px;color:#606060;cursor:default;font-size:11px;fill:#606060;" y="120" opacity="1">100</text><text x="56" text-anchor="end" style="width:178px;color:#606060;cursor:default;font-size:11px;fill:#606060;" y="67.5" opacity="1">125</text><text x="56" text-anchor="end" style="width:178px;color:#606060;cursor:default;font-size:11px;fill:#606060;" y="15" opacity="1">150</text></g><g class="highcharts-tooltip"  style="cursor:default;padding:0;white-space:nowrap;" transform="translate(0,-9999)"><path fill="none" d="M 3 0 L 13 0 C 16 0 16 0 16 3 L 16 13 C 16 16 16 16 13 16 L 3 16 C 0 16 0 16 0 13 L 0 3 C 0 0 0 0 3 0"  stroke="black" stroke-opacity="0.049999999999999996" stroke-width="5" transform="translate(1, 1)"></path><path fill="none" d="M 3 0 L 13 0 C 16 0 16 0 16 3 L 16 13 C 16 16 16 16 13 16 L 3 16 C 0 16 0 16 0 13 L 0 3 C 0 0 0 0 3 0"  stroke="black" stroke-opacity="0.09999999999999999" stroke-width="3" transform="translate(1, 1)"></path><path fill="none" d="M 3 0 L 13 0 C 16 0 16 0 16 3 L 16 13 C 16 16 16 16 13 16 L 3 16 C 0 16 0 16 0 13 L 0 3 C 0 0 0 0 3 0"  stroke="black" stroke-opacity="0.15" stroke-width="1" transform="translate(1, 1)"></path><path fill="rgb(249, 249, 249)" fill-opacity=" .85" d="M 3 0 L 13 0 C 16 0 16 0 16 3 L 16 13 C 16 16 16 16 13 16 L 3 16 C 0 16 0 16 0 13 L 0 3 C 0 0 0 0 3 0"></path><text x="8"  style="font-size:12px;color:#333333;fill:#333333;" y="21"></text></g><text x="590" text-anchor="end"  style="cursor:pointer;color:#909090;font-size:9px;fill:#909090;" y="395">Septnet</text></svg>