<svg xmlns:xlink="http://www.w3.org/1999/xlink" version="1.1" style="font-family:'lucida grande', 'lucida sans unicode', arial, helvetica, sans-serif;font-size:12px;" xmlns="http://www.w3.org/2000/svg" width="600" height="400"><desc>Created with Highcharts 4.0.3</desc><defs><clipPath id="highcharts-20"><rect x="0" y="0" width="580" height="336"></rect></clipPath></defs><rect x="0" y="0" width="600" height="400" strokeWidth="0" fill="#FFFFFF" class=" highcharts-background"></rect><g class="highcharts-grid" ><path fill="none" d="M 300 178 L 423.6684276604179 249.39999999999998" stroke="#C0C0C0" stroke-width="1"  opacity="1"></path><path fill="none" d="M 300 178 L 300.00000000000006 320.8" stroke="#C0C0C0" stroke-width="1"  opacity="1"></path><path fill="none" d="M 300 178 L 176.33157233958218 249.40000000000003" stroke="#C0C0C0" stroke-width="1"  opacity="1"></path><path fill="none" d="M 300 178 L 176.33157233958215 106.59999999999998" stroke="#C0C0C0" stroke-width="1"  opacity="1"></path><path fill="none" d="M 300 178 L 300 35.19999999999999" stroke="#C0C0C0" stroke-width="1"  opacity="1"></path><path fill="none" d="M 300 178 L 423.6684276604178 106.59999999999994" stroke="#C0C0C0" stroke-width="1"  opacity="1"></path><path fill="none" d="M 300 178 L 423.6684276604178 106.6" stroke="#C0C0C0" stroke-width="1"  opacity="1"></path><path fill="none" d="M 300 178 L 300 35.19999999999999" stroke="#C0C0C0" stroke-width="1"  opacity="1"></path></g><g class="highcharts-grid" ><path fill="none" d="M 300 35.19999999999999 A 142.8 142.8 0 1 1 299.8572000237999 35.200071399994044 M 300 178 A 0 0 0 1 0 300 178 " stroke="#C0C0C0" stroke-width="1"  opacity="1"></path><path fill="none" d="M 300 82.8 A 95.2 95.2 0 1 1 299.9048000158666 82.80004759999603 M 300 178 A 0 0 0 1 0 300 178 " stroke="#C0C0C0" stroke-width="1"  opacity="1"></path><path fill="none" d="M 300 130.4 A 47.6 47.6 0 1 1 299.9524000079333 130.40002379999802 M 300 178 A 0 0 0 1 0 300 178 " stroke="#C0C0C0" stroke-width="1"  opacity="1"></path><path fill="none" stroke="#C0C0C0" stroke-width="1" ></path></g><g class="highcharts-axis" ><path fill="none" d="M 300 35.19999999999999 A 142.8 142.8 0 1 1 299.8572000237999 35.200071399994044 M 300 178 A 0 0 0 1 0 300 178 " stroke="#C0D0E0" stroke-width="1"  visibility="visible"></path></g><g class="highcharts-axis" ></g><g class="highcharts-series-group" ><g class="highcharts-series" visibility="visible"  transform="translate(10,10) scale(1 1)" clip-path="url(#highcharts-20)"><path fill="none" d="M 318.3433962264151 118.90779767679305 L 352.91711639146195 168 L 326.93337129840546 231.97047558364437 L 278.00832049306626 188.77019817409177 L 239.04526233359437 168 L 265.45117513267627 125.480188063685 L 318.3433962264151 118.90779767679305" stroke="#ff0000" stroke-width="2"  stroke-linejoin="round" stroke-linecap="round"></path></g><g class="highcharts-markers" visibility="visible"  transform="translate(10,10) scale(1 1)" clip-path="none"><path fill="#ff0000" d="M 265 121.480188063685 C 270.328 121.480188063685 270.328 129.480188063685 265 129.480188063685 C 259.672 129.480188063685 259.672 121.480188063685 265 121.480188063685 Z"></path><path fill="#ff0000" d="M 239 164 C 244.328 164 244.328 172 239 172 C 233.672 172 233.672 164 239 164 Z"></path><path fill="#ff0000" d="M 278 184.77019817409177 C 283.328 184.77019817409177 283.328 192.77019817409177 278 192.77019817409177 C 272.672 192.77019817409177 272.672 184.77019817409177 278 184.77019817409177 Z"></path><path fill="#ff0000" d="M 326 227.97047558364437 C 331.328 227.97047558364437 331.328 235.97047558364437 326 235.97047558364437 C 320.672 235.97047558364437 320.672 227.97047558364437 326 227.97047558364437 Z"></path><path fill="#ff0000" d="M 352 164 C 357.328 164 357.328 172 352 172 C 346.672 172 346.672 164 352 164 Z"></path><path fill="#ff0000" d="M 318 114.90779767679305 C 323.328 114.90779767679305 323.328 122.90779767679305 318 122.90779767679305 C 312.672 122.90779767679305 312.672 114.90779767679305 318 114.90779767679305 Z"></path></g><g class="highcharts-series" visibility="visible"  transform="translate(10,10) scale(1 1)" clip-path="url(#highcharts-20)"><path fill="none" d="M 313.8 126.77719077986072 L 337.6 168 L 313.8 209.22280922013925 L 266.2 209.22280922013928 L 242.4 168 L 266.2 126.77719077986075 L 313.8 126.77719077986072" stroke="#999999" stroke-width="2"  stroke-linejoin="round" stroke-linecap="round"></path></g><g class="highcharts-markers" visibility="visible"  transform="translate(10,10) scale(1 1)" clip-path="none"><path fill="#999999" d="M 266 122.77719077986075 L 270 126.77719077986075 266 130.77719077986075 262 126.77719077986075 Z"></path><path fill="#999999" d="M 242 164 L 246 168 242 172 238 168 Z"></path><path fill="#999999" d="M 266 205.22280922013928 L 270 209.22280922013928 266 213.22280922013928 262 209.22280922013928 Z"></path><path fill="#999999" d="M 313 205.22280922013925 L 317 209.22280922013925 313 213.22280922013925 309 209.22280922013925 Z"></path><path fill="#999999" d="M 337 164 L 341 168 337 172 333 168 Z"></path><path fill="#999999" d="M 313 122.77719077986072 L 317 126.77719077986072 313 130.77719077986072 309 126.77719077986072 Z"></path></g><g class="highcharts-series" visibility="visible"  transform="translate(10,10) scale(1 1)" clip-path="url(#highcharts-20)"><path fill="none" d="M 339.4754716981132 82.30596929043188 L 392.216351188079 168 L 348.9578587699317 270.11800689499194 L 248.05968156137646 240.64276242131376 L 198.04291307752544 168 L 240.64071266110685 82.50720650364596 L 339.4754716981132 82.30596929043188" stroke="#7cb5ec" stroke-width="2"  stroke-linejoin="round" stroke-linecap="round"></path></g><g class="highcharts-markers" visibility="visible"  transform="translate(10,10) scale(1 1)" clip-path="none"><path fill="#7cb5ec" d="M 236 78.50720650364596 L 244 78.50720650364596 244 86.50720650364596 236 86.50720650364596 Z"></path><path fill="#7cb5ec" d="M 194 164 L 202 164 202 172 194 172 Z"></path><path fill="#7cb5ec" d="M 244 236.64276242131376 L 252 236.64276242131376 252 244.64276242131376 244 244.64276242131376 Z"></path><path fill="#7cb5ec" d="M 344 266.11800689499194 L 352 266.11800689499194 352 274.11800689499194 344 274.11800689499194 Z"></path><path fill="#7cb5ec" d="M 388 164 L 396 164 396 172 388 172 Z"></path><path fill="#7cb5ec" d="M 335 78.30596929043188 L 343 78.30596929043188 343 86.30596929043188 335 86.30596929043188 Z"></path></g></g><g class="highcharts-legend"  transform="translate(154,366)"><g ><g><g class="highcharts-legend-item"  transform="translate(8,3)"><path fill="none" d="M 0 11 L 16 11" stroke="#ff0000" stroke-width="2"></path><path fill="#ff0000" d="M 8 7 C 13.328 7 13.328 15 8 15 C 2.6719999999999997 15 2.6719999999999997 7 8 7 Z"></path><text x="21" style="color:#333333;font-size:12px;font-weight:bold;cursor:pointer;fill:#333333;" text-anchor="start"  y="15">考生位置</text></g><g class="highcharts-legend-item"  transform="translate(101,3)"><path fill="none" d="M 0 11 L 16 11" stroke="#999999" stroke-width="2"></path><path fill="#999999" d="M 8 7 L 12 11 8 15 4 11 Z"></path><text x="21" y="15" style="color:#333333;font-size:12px;font-weight:bold;cursor:pointer;fill:#333333;" text-anchor="start" >平均分位置</text></g><g class="highcharts-legend-item"  transform="translate(207,3)"><path fill="none" d="M 0 11 L 16 11" stroke="#7cb5ec" stroke-width="2"></path><path fill="#7cb5ec" d="M 4 7 L 12 7 12 15 4 15 Z"></path><text x="21" y="15" style="color:#333333;font-size:12px;font-weight:bold;cursor:pointer;fill:#333333;" text-anchor="start" >最高分位置</text></g></g></g></g><g class="highcharts-axis-labels highcharts-xaxis-labels" ><text x="378.9" text-anchor="start" style="width:63px;color:#606060;cursor:default;font-size:11px;fill:#606060;" y="45.34119128281557" opacity="1">语文</text><text x="457.8" text-anchor="start" style="width:63px;color:#606060;cursor:default;font-size:11px;fill:#606060;" y="182" opacity="1">数学</text><text x="378.9000000000001" text-anchor="start" style="width:63px;color:#606060;cursor:default;font-size:11px;fill:#606060;" y="318.6588087171844" opacity="1">英语</text><text x="221.10000000000002" text-anchor="end" style="width:63px;color:#606060;cursor:default;font-size:11px;fill:#606060;" y="318.65880871718446" opacity="1">物理</text><text x="142.2" text-anchor="end" style="width:63px;color:#606060;cursor:default;font-size:11px;fill:#606060;" y="182.00000000000003" opacity="1">化学</text><text x="221.0999999999999" text-anchor="end" style="width:63px;color:#606060;cursor:default;font-size:11px;fill:#606060;" y="45.3411912828156" opacity="1">生物</text><text x="0" text-anchor="start" style="width:63px;color:#606060;cursor:default;font-size:11px;fill:#606060;" y="-9999">6</text></g><g class="highcharts-axis-labels highcharts-yaxis-labels" ><text x="297" text-anchor="end" style="width:178px;color:#606060;cursor:default;font-size:11px;fill:#606060;" y="176" opacity="1">-2</text><text x="297" text-anchor="end" style="width:178px;color:#606060;cursor:default;font-size:11px;fill:#606060;" y="128.4" opacity="1">0</text><text x="297" text-anchor="end" style="width:178px;color:#606060;cursor:default;font-size:11px;fill:#606060;" y="80.8" opacity="1">2</text><text x="0" text-anchor="end" style="width:178px;color:#606060;cursor:default;font-size:11px;fill:#606060;" y="-9999">4</text></g><g class="highcharts-tooltip"  style="cursor:default;padding:0;white-space:nowrap;" transform="translate(0,-9999)"><path fill="none" d="M 3 0 L 13 0 C 16 0 16 0 16 3 L 16 13 C 16 16 16 16 13 16 L 3 16 C 0 16 0 16 0 13 L 0 3 C 0 0 0 0 3 0"  stroke="black" stroke-opacity="0.049999999999999996" stroke-width="5" transform="translate(1, 1)"></path><path fill="none" d="M 3 0 L 13 0 C 16 0 16 0 16 3 L 16 13 C 16 16 16 16 13 16 L 3 16 C 0 16 0 16 0 13 L 0 3 C 0 0 0 0 3 0"  stroke="black" stroke-opacity="0.09999999999999999" stroke-width="3" transform="translate(1, 1)"></path><path fill="none" d="M 3 0 L 13 0 C 16 0 16 0 16 3 L 16 13 C 16 16 16 16 13 16 L 3 16 C 0 16 0 16 0 13 L 0 3 C 0 0 0 0 3 0"  stroke="black" stroke-opacity="0.15" stroke-width="1" transform="translate(1, 1)"></path><path fill="rgb(249, 249, 249)" fill-opacity=" .85" d="M 3 0 L 13 0 C 16 0 16 0 16 3 L 16 13 C 16 16 16 16 13 16 L 3 16 C 0 16 0 16 0 13 L 0 3 C 0 0 0 0 3 0"></path><text x="8"  style="font-size:12px;color:#333333;fill:#333333;" y="21"></text></g><text x="590" text-anchor="end"  style="cursor:pointer;color:#909090;font-size:9px;fill:#909090;" y="395">Septnet</text></svg>