<svg xmlns:xlink="http://www.w3.org/1999/xlink" version="1.1" style="font-family:'lucida grande', 'lucida sans unicode', arial, helvetica, sans-serif;font-size:12px;" xmlns="http://www.w3.org/2000/svg" width="600" height="400"><desc>Created with Highcharts 4.0.3</desc><defs><clipPath id="highcharts-10"><rect x="0" y="0" width="521" height="315"></rect></clipPath></defs><rect x="0" y="0" width="600" height="400" strokeWidth="0" fill="#FFFFFF" class=" highcharts-background"></rect><g class="highcharts-grid" ></g><g class="highcharts-grid" ><path fill="none" d="M 69 9.5 L 590 9.5" stroke="#C0C0C0" stroke-width="1"  opacity="1"></path><path fill="none" d="M 69 63.5 L 590 63.5" stroke="#C0C0C0" stroke-width="1"  opacity="1"></path><path fill="none" d="M 69 115.5 L 590 115.5" stroke="#C0C0C0" stroke-width="1"  opacity="1"></path><path fill="none" d="M 69 168.5 L 590 168.5" stroke="#C0C0C0" stroke-width="1"  opacity="1"></path><path fill="none" d="M 69 220.5 L 590 220.5" stroke="#C0C0C0" stroke-width="1"  opacity="1"></path><path fill="none" d="M 69 273.5 L 590 273.5" stroke="#C0C0C0" stroke-width="1"  opacity="1"></path><path fill="none" d="M 69 325.5 L 590 325.5" stroke="#C0C0C0" stroke-width="1"  opacity="1"></path></g><g class="highcharts-axis" ><path fill="none" d="M 242.5 325 L 242.5 335" stroke="#C0D0E0" stroke-width="1" opacity="1"></path><path fill="none" d="M 329.5 325 L 329.5 335" stroke="#C0D0E0" stroke-width="1" opacity="1"></path><path fill="none" d="M 415.5 325 L 415.5 335" stroke="#C0D0E0" stroke-width="1" opacity="1"></path><path fill="none" d="M 502.5 325 L 502.5 335" stroke="#C0D0E0" stroke-width="1" opacity="1"></path><path fill="none" d="M 590.5 325 L 590.5 335" stroke="#C0D0E0" stroke-width="1" opacity="1"></path><path fill="none" d="M 155.5 325 L 155.5 335" stroke="#C0D0E0" stroke-width="1" opacity="1"></path><path fill="none" d="M 68.5 325 L 68.5 335" stroke="#C0D0E0" stroke-width="1" opacity="1"></path><path fill="none" d="M 69 325.5 L 590 325.5" stroke="#C0D0E0" stroke-width="1"  visibility="visible"></path></g><g class="highcharts-axis" ><text x="25"  text-anchor="middle" transform="translate(0,0) rotate(270 25 167.5)" class=" highcharts-yaxis-title" style="color:#707070;fill:#707070;" visibility="visible" y="167.5">成绩（分）</text></g><g class="highcharts-series-group" ><g class="highcharts-series" visibility="visible"  transform="translate(69,10) scale(1 1)" clip-path="url(#highcharts-10)"><rect x="19.5" y="126.5" width="21" height="189" fill="#999999" rx="0" ry="0" stroke="#FFFFFF" stroke-width="1"></rect><rect x="106.5" y="169.5" width="21" height="146" fill="#999999" rx="0" ry="0" stroke="#FFFFFF" stroke-width="1"></rect><rect x="193.5" y="159.5" width="21" height="156" fill="#999999" rx="0" ry="0" stroke="#FFFFFF" stroke-width="1"></rect><rect x="279.5" y="224.5" width="21" height="91" fill="#999999" rx="0" ry="0" stroke="#FFFFFF" stroke-width="1"></rect><rect x="366.5" y="229.5" width="21" height="86" fill="#999999" rx="0" ry="0" stroke="#FFFFFF" stroke-width="1"></rect><rect x="453.5" y="233.5" width="21" height="82" fill="#999999" rx="0" ry="0" stroke="#FFFFFF" stroke-width="1"></rect></g><g class="highcharts-markers" visibility="visible"  transform="translate(69,10) scale(1 1)" clip-path="none"></g><g class="highcharts-series" visibility="visible"  transform="translate(69,10) scale(1 1)" clip-path="url(#highcharts-10)"><rect x="45.5" y="86.5" width="21" height="229" fill="#7cb5ec" rx="0" ry="0" stroke="#FFFFFF" stroke-width="1"></rect><rect x="132.5" y="17.5" width="21" height="298" fill="#7cb5ec" rx="0" ry="0" stroke="#FFFFFF" stroke-width="1"></rect><rect x="219.5" y="75.5" width="21" height="240" fill="#7cb5ec" rx="0" ry="0" stroke="#FFFFFF" stroke-width="1"></rect><rect x="306.5" y="111.5" width="21" height="204" fill="#7cb5ec" rx="0" ry="0" stroke="#FFFFFF" stroke-width="1"></rect><rect x="392.5" y="145.5" width="21" height="170" fill="#7cb5ec" rx="0" ry="0" stroke="#FFFFFF" stroke-width="1"></rect><rect x="479.5" y="140.5" width="21" height="175" fill="#7cb5ec" rx="0" ry="0" stroke="#FFFFFF" stroke-width="1"></rect></g><g class="highcharts-markers" visibility="visible"  transform="translate(69,10) scale(1 1)" clip-path="none"></g><g class="highcharts-series" visibility="visible"  transform="translate(69,10) scale(1 1)" clip-path="url(#highcharts-10)"><path fill="none" d="M 43.416666666666664 111.29999999999998 L 130.25 130.2 L 217.08333333333331 135.45 L 303.9166666666667 191.1 L 390.75 195.3 L 477.5833333333333 157.5" stroke="#ff0000" stroke-width="2"  stroke-linejoin="round" stroke-linecap="round"></path></g><g class="highcharts-markers" visibility="visible"  transform="translate(69,10) scale(1 1)" clip-path="none"><path fill="#ff0000" d="M 477 153.5 C 482.328 153.5 482.328 161.5 477 161.5 C 471.672 161.5 471.672 153.5 477 153.5 Z"></path><path fill="#ff0000" d="M 390 191.3 C 395.328 191.3 395.328 199.3 390 199.3 C 384.672 199.3 384.672 191.3 390 191.3 Z"></path><path fill="#ff0000" d="M 303 187.1 C 308.328 187.1 308.328 195.1 303 195.1 C 297.672 195.1 297.672 187.1 303 187.1 Z"></path><path fill="#ff0000" d="M 217 131.45 C 222.328 131.45 222.328 139.45 217 139.45 C 211.672 139.45 211.672 131.45 217 131.45 Z"></path><path fill="#ff0000" d="M 130 126.19999999999999 C 135.328 126.19999999999999 135.328 134.2 130 134.2 C 124.672 134.2 124.672 126.19999999999999 130 126.19999999999999 Z"></path><path fill="#ff0000" d="M 43 107.29999999999998 C 48.328 107.29999999999998 48.328 115.29999999999998 43 115.29999999999998 C 37.672 115.29999999999998 37.672 107.29999999999998 43 107.29999999999998 Z"></path></g></g><g class="highcharts-legend"  transform="translate(113,367)"><g ><g><g class="highcharts-legend-item"  transform="translate(8,3)"><path fill="none" d="M 0 11 L 16 11" stroke="#ff0000" stroke-width="2"></path><path fill="#ff0000" d="M 8 7 C 13.328 7 13.328 15 8 15 C 2.6719999999999997 15 2.6719999999999997 7 8 7 Z"></path><text x="21" style="color:#333333;font-size:12px;font-weight:bold;cursor:pointer;fill:#333333;" text-anchor="start"  y="15">考生成绩</text></g><g class="highcharts-legend-item"  transform="translate(97,3)"><text x="21" y="15" style="color:#333333;font-size:12px;font-weight:bold;cursor:pointer;fill:#333333;" text-anchor="start" >考生单位学生平均分</text><rect x="0" y="4" width="16" height="12"  fill="#999999"></rect></g><g class="highcharts-legend-item"  transform="translate(246,3)"><text x="21" y="15" style="color:#333333;font-size:12px;font-weight:bold;cursor:pointer;fill:#333333;" text-anchor="start" >考生单位学生最高分</text><rect x="0" y="4" width="16" height="12"  fill="#7cb5ec"></rect></g></g></g></g><g class="highcharts-axis-labels highcharts-xaxis-labels" ><text x="112.41666666666666" text-anchor="middle" style="width:67px;color:#606060;cursor:default;font-size:11px;fill:#606060;" y="345" opacity="1">语文</text><text x="199.25" text-anchor="middle" style="width:67px;color:#606060;cursor:default;font-size:11px;fill:#606060;" y="345" opacity="1">数学</text><text x="286.0833333333333" text-anchor="middle" style="width:67px;color:#606060;cursor:default;font-size:11px;fill:#606060;" y="345" opacity="1">英语</text><text x="372.91666666666663" text-anchor="middle" style="width:67px;color:#606060;cursor:default;font-size:11px;fill:#606060;" y="345" opacity="1">物理</text><text x="459.75" text-anchor="middle" style="width:67px;color:#606060;cursor:default;font-size:11px;fill:#606060;" y="345" opacity="1">化学</text><text x="546.5833333333334" text-anchor="middle" style="width:67px;color:#606060;cursor:default;font-size:11px;fill:#606060;" y="345" opacity="1">生物</text></g><g class="highcharts-axis-labels highcharts-yaxis-labels" ><text x="54" text-anchor="end" style="width:178px;color:#606060;cursor:default;font-size:11px;fill:#606060;" y="330" opacity="1">0</text><text x="54" text-anchor="end" style="width:178px;color:#606060;cursor:default;font-size:11px;fill:#606060;" y="277.5" opacity="1">25</text><text x="54" text-anchor="end" style="width:178px;color:#606060;cursor:default;font-size:11px;fill:#606060;" y="225" opacity="1">50</text><text x="54" text-anchor="end" style="width:178px;color:#606060;cursor:default;font-size:11px;fill:#606060;" y="172.5" opacity="1">75</text><text x="54" text-anchor="end" style="width:178px;color:#606060;cursor:default;font-size:11px;fill:#606060;" y="120" opacity="1">100</text><text x="54" text-anchor="end" style="width:178px;color:#606060;cursor:default;font-size:11px;fill:#606060;" y="67.5" opacity="1">125</text><text x="54" text-anchor="end" style="width:178px;color:#606060;cursor:default;font-size:11px;fill:#606060;" y="15" opacity="1">150</text></g><g class="highcharts-tooltip"  style="cursor:default;padding:0;white-space:nowrap;" transform="translate(0,-9999)"><path fill="none" d="M 3 0 L 13 0 C 16 0 16 0 16 3 L 16 13 C 16 16 16 16 13 16 L 3 16 C 0 16 0 16 0 13 L 0 3 C 0 0 0 0 3 0"  stroke="black" stroke-opacity="0.049999999999999996" stroke-width="5" transform="translate(1, 1)"></path><path fill="none" d="M 3 0 L 13 0 C 16 0 16 0 16 3 L 16 13 C 16 16 16 16 13 16 L 3 16 C 0 16 0 16 0 13 L 0 3 C 0 0 0 0 3 0"  stroke="black" stroke-opacity="0.09999999999999999" stroke-width="3" transform="translate(1, 1)"></path><path fill="none" d="M 3 0 L 13 0 C 16 0 16 0 16 3 L 16 13 C 16 16 16 16 13 16 L 3 16 C 0 16 0 16 0 13 L 0 3 C 0 0 0 0 3 0"  stroke="black" stroke-opacity="0.15" stroke-width="1" transform="translate(1, 1)"></path><path fill="rgb(249, 249, 249)" fill-opacity=" .85" d="M 3 0 L 13 0 C 16 0 16 0 16 3 L 16 13 C 16 16 16 16 13 16 L 3 16 C 0 16 0 16 0 13 L 0 3 C 0 0 0 0 3 0"></path><text x="8"  style="font-size:12px;color:#333333;fill:#333333;" y="21"></text></g><text x="590" text-anchor="end"  style="cursor:pointer;color:#909090;font-size:9px;fill:#909090;" y="395">Septnet</text></svg>